G04 EAGLE Gerber X2 export*
%TF.Part,Single*%
%TF.FileFunction,Copper,L1,Top,Mixed*%
%TF.FilePolarity,Positive*%
%TF.GenerationSoftware,Autodesk,EAGLE,8.7.1*%
%TF.CreationDate,2019-02-08T14:13:12Z*%
G75*
%MOMM*%
%FSLAX34Y34*%
%LPD*%
%AMOC8*
5,1,8,0,0,1.08239X$1,22.5*%
G01*
%ADD10R,1.500000X1.300000*%
%ADD11P,1.539592X8X112.500000*%
%ADD12C,1.422400*%
%ADD13P,1.539592X8X292.500000*%
%ADD14R,1.400000X1.000000*%
%ADD15P,1.814519X8X112.500000*%
%ADD16P,1.649562X8X22.500000*%
%ADD17R,1.800000X1.200000*%
%ADD18R,1.300000X1.500000*%
%ADD19P,1.814519X8X22.500000*%
%ADD20P,1.814519X8X202.500000*%
%ADD21R,0.800000X1.400000*%
%ADD22R,0.800000X1.900000*%
%ADD23C,1.524000*%
%ADD24C,1.508000*%
%ADD25C,0.756400*%
%ADD26C,0.406400*%
%ADD27C,0.609600*%
%ADD28C,0.304800*%

G36*
X410146Y10169D02*
X410146Y10169D01*
X410228Y10167D01*
X410346Y10189D01*
X410465Y10201D01*
X410544Y10225D01*
X410624Y10239D01*
X410735Y10284D01*
X410850Y10319D01*
X410922Y10358D01*
X410998Y10388D01*
X411099Y10454D01*
X411204Y10511D01*
X411267Y10563D01*
X411336Y10608D01*
X411421Y10692D01*
X411513Y10768D01*
X411565Y10832D01*
X411623Y10890D01*
X411691Y10989D01*
X411766Y11082D01*
X411803Y11155D01*
X411850Y11223D01*
X411896Y11333D01*
X411951Y11439D01*
X411974Y11518D01*
X412006Y11594D01*
X412029Y11711D01*
X412062Y11826D01*
X412069Y11908D01*
X412085Y11989D01*
X412086Y12108D01*
X412095Y12228D01*
X412086Y12309D01*
X412086Y12391D01*
X412059Y12541D01*
X412048Y12627D01*
X412036Y12666D01*
X412026Y12718D01*
X410402Y18781D01*
X410402Y25669D01*
X412185Y32323D01*
X415629Y38288D01*
X420499Y43159D01*
X426465Y46603D01*
X433118Y48386D01*
X440007Y48386D01*
X446660Y46603D01*
X447042Y46382D01*
X447176Y46322D01*
X447305Y46255D01*
X447359Y46239D01*
X447409Y46216D01*
X447552Y46184D01*
X447692Y46143D01*
X447748Y46139D01*
X447802Y46126D01*
X447948Y46122D01*
X448094Y46110D01*
X448149Y46117D01*
X448204Y46115D01*
X448348Y46140D01*
X448493Y46157D01*
X448546Y46174D01*
X448601Y46184D01*
X448737Y46237D01*
X448876Y46282D01*
X448925Y46309D01*
X448976Y46329D01*
X449100Y46408D01*
X449227Y46480D01*
X449269Y46516D01*
X449316Y46546D01*
X449421Y46648D01*
X449532Y46743D01*
X449566Y46787D01*
X449605Y46826D01*
X449689Y46946D01*
X449778Y47061D01*
X449803Y47111D01*
X449835Y47157D01*
X449892Y47291D01*
X449958Y47422D01*
X449972Y47476D01*
X449994Y47526D01*
X450024Y47669D01*
X450062Y47811D01*
X450067Y47874D01*
X450077Y47920D01*
X450078Y48004D01*
X450089Y48141D01*
X450089Y249238D01*
X450087Y249255D01*
X450089Y249273D01*
X450068Y249455D01*
X450049Y249638D01*
X450044Y249655D01*
X450042Y249673D01*
X449985Y249847D01*
X449931Y250023D01*
X449923Y250039D01*
X449917Y250056D01*
X449827Y250216D01*
X449739Y250377D01*
X449728Y250391D01*
X449719Y250406D01*
X449599Y250546D01*
X449482Y250686D01*
X449468Y250698D01*
X449456Y250711D01*
X449311Y250824D01*
X449168Y250939D01*
X449152Y250947D01*
X449138Y250958D01*
X448973Y251040D01*
X448811Y251124D01*
X448794Y251129D01*
X448778Y251137D01*
X448599Y251185D01*
X448424Y251236D01*
X448406Y251237D01*
X448389Y251242D01*
X448058Y251269D01*
X444847Y251269D01*
X444838Y251268D01*
X444830Y251269D01*
X444636Y251248D01*
X444447Y251229D01*
X444438Y251226D01*
X444429Y251225D01*
X444245Y251167D01*
X444062Y251111D01*
X444054Y251106D01*
X444045Y251104D01*
X443877Y251011D01*
X443708Y250919D01*
X443701Y250913D01*
X443693Y250909D01*
X443546Y250784D01*
X443398Y250661D01*
X443393Y250654D01*
X443386Y250648D01*
X443266Y250497D01*
X443146Y250347D01*
X443142Y250340D01*
X443136Y250333D01*
X443048Y250159D01*
X442961Y249990D01*
X442958Y249982D01*
X442954Y249974D01*
X442902Y249787D01*
X442849Y249603D01*
X442849Y249594D01*
X442846Y249586D01*
X442832Y249393D01*
X442816Y249202D01*
X442817Y249193D01*
X442817Y249184D01*
X442841Y248992D01*
X442863Y248802D01*
X442866Y248794D01*
X442867Y248785D01*
X442928Y248603D01*
X442988Y248419D01*
X442993Y248411D01*
X442995Y248403D01*
X443091Y248236D01*
X443186Y248069D01*
X443192Y248062D01*
X443196Y248054D01*
X443411Y247801D01*
X445072Y246140D01*
X445072Y236460D01*
X438227Y229615D01*
X428548Y229615D01*
X423140Y235023D01*
X423133Y235029D01*
X423127Y235036D01*
X422978Y235156D01*
X422828Y235278D01*
X422820Y235282D01*
X422813Y235288D01*
X422643Y235376D01*
X422473Y235467D01*
X422464Y235469D01*
X422456Y235473D01*
X422271Y235527D01*
X422087Y235582D01*
X422078Y235582D01*
X422069Y235585D01*
X421878Y235600D01*
X421686Y235618D01*
X421677Y235617D01*
X421668Y235618D01*
X421479Y235595D01*
X421285Y235575D01*
X421277Y235572D01*
X421268Y235571D01*
X421086Y235511D01*
X420902Y235453D01*
X420894Y235449D01*
X420885Y235446D01*
X420717Y235351D01*
X420549Y235258D01*
X420543Y235252D01*
X420535Y235248D01*
X420389Y235122D01*
X420242Y234998D01*
X420237Y234991D01*
X420230Y234985D01*
X420112Y234833D01*
X419993Y234682D01*
X419989Y234674D01*
X419983Y234667D01*
X419897Y234494D01*
X419810Y234323D01*
X419808Y234314D01*
X419804Y234306D01*
X419754Y234120D01*
X419702Y233935D01*
X419702Y233926D01*
X419699Y233917D01*
X419672Y233587D01*
X419672Y223760D01*
X412827Y216915D01*
X403148Y216915D01*
X400089Y219974D01*
X400082Y219979D01*
X400077Y219986D01*
X399927Y220106D01*
X399778Y220229D01*
X399770Y220233D01*
X399763Y220238D01*
X399593Y220327D01*
X399422Y220417D01*
X399413Y220420D01*
X399406Y220424D01*
X399221Y220477D01*
X399036Y220532D01*
X399027Y220533D01*
X399019Y220535D01*
X398828Y220551D01*
X398635Y220568D01*
X398626Y220567D01*
X398617Y220568D01*
X398428Y220546D01*
X398235Y220525D01*
X398226Y220522D01*
X398218Y220521D01*
X398036Y220462D01*
X397851Y220404D01*
X397843Y220399D01*
X397835Y220396D01*
X397666Y220301D01*
X397499Y220209D01*
X397492Y220203D01*
X397484Y220199D01*
X397338Y220073D01*
X397192Y219948D01*
X397186Y219941D01*
X397179Y219935D01*
X397062Y219784D01*
X396942Y219632D01*
X396938Y219624D01*
X396933Y219617D01*
X396847Y219445D01*
X396760Y219273D01*
X396757Y219265D01*
X396753Y219257D01*
X396703Y219071D01*
X396652Y218885D01*
X396651Y218877D01*
X396649Y218868D01*
X396622Y218537D01*
X396622Y209010D01*
X396623Y209001D01*
X396622Y208992D01*
X396643Y208801D01*
X396662Y208610D01*
X396664Y208601D01*
X396665Y208592D01*
X396723Y208410D01*
X396780Y208225D01*
X396784Y208217D01*
X396787Y208208D01*
X396880Y208040D01*
X396972Y207871D01*
X396977Y207864D01*
X396982Y207856D01*
X397106Y207709D01*
X397229Y207561D01*
X397236Y207556D01*
X397242Y207549D01*
X397393Y207430D01*
X397543Y207309D01*
X397551Y207305D01*
X397558Y207299D01*
X397731Y207212D01*
X397900Y207123D01*
X397909Y207121D01*
X397917Y207117D01*
X398103Y207065D01*
X398287Y207012D01*
X398296Y207011D01*
X398305Y207009D01*
X398498Y206995D01*
X398689Y206979D01*
X398697Y206980D01*
X398706Y206980D01*
X398899Y207004D01*
X399088Y207026D01*
X399097Y207029D01*
X399106Y207030D01*
X399289Y207091D01*
X399471Y207151D01*
X399479Y207155D01*
X399487Y207158D01*
X399654Y207254D01*
X399822Y207349D01*
X399829Y207355D01*
X399836Y207359D01*
X400089Y207574D01*
X403463Y210948D01*
X405956Y210948D01*
X405956Y200025D01*
X405956Y189102D01*
X403463Y189102D01*
X400089Y192476D01*
X400082Y192482D01*
X400077Y192489D01*
X399927Y192609D01*
X399778Y192731D01*
X399770Y192735D01*
X399763Y192741D01*
X399593Y192829D01*
X399422Y192920D01*
X399413Y192922D01*
X399406Y192927D01*
X399221Y192980D01*
X399036Y193035D01*
X399027Y193035D01*
X399019Y193038D01*
X398828Y193054D01*
X398635Y193071D01*
X398626Y193070D01*
X398617Y193071D01*
X398428Y193049D01*
X398235Y193028D01*
X398226Y193025D01*
X398218Y193024D01*
X398036Y192965D01*
X397851Y192906D01*
X397843Y192902D01*
X397835Y192899D01*
X397666Y192804D01*
X397499Y192711D01*
X397492Y192706D01*
X397484Y192701D01*
X397338Y192575D01*
X397192Y192451D01*
X397186Y192444D01*
X397179Y192438D01*
X397062Y192287D01*
X396942Y192135D01*
X396938Y192127D01*
X396933Y192120D01*
X396847Y191948D01*
X396760Y191776D01*
X396757Y191767D01*
X396753Y191759D01*
X396703Y191573D01*
X396652Y191388D01*
X396651Y191379D01*
X396649Y191371D01*
X396622Y191040D01*
X396622Y186112D01*
X395694Y183871D01*
X384454Y172631D01*
X382213Y171703D01*
X353504Y171703D01*
X353477Y171701D01*
X353451Y171703D01*
X353277Y171681D01*
X353103Y171663D01*
X353078Y171656D01*
X353051Y171652D01*
X352885Y171596D01*
X352719Y171545D01*
X352695Y171532D01*
X352670Y171524D01*
X352518Y171437D01*
X352364Y171353D01*
X352344Y171336D01*
X352321Y171323D01*
X352121Y171154D01*
X350709Y170569D01*
X350681Y170554D01*
X350651Y170544D01*
X350504Y170459D01*
X350354Y170378D01*
X350330Y170358D01*
X350303Y170343D01*
X350050Y170128D01*
X327916Y147994D01*
X327910Y147987D01*
X327903Y147982D01*
X327783Y147832D01*
X327661Y147683D01*
X327656Y147675D01*
X327651Y147668D01*
X327562Y147497D01*
X327472Y147327D01*
X327469Y147319D01*
X327465Y147311D01*
X327412Y147125D01*
X327357Y146941D01*
X327356Y146932D01*
X327354Y146924D01*
X327338Y146732D01*
X327321Y146540D01*
X327322Y146531D01*
X327321Y146522D01*
X327343Y146333D01*
X327364Y146140D01*
X327367Y146131D01*
X327368Y146123D01*
X327427Y145941D01*
X327486Y145756D01*
X327490Y145748D01*
X327493Y145740D01*
X327588Y145571D01*
X327681Y145404D01*
X327686Y145397D01*
X327691Y145389D01*
X327817Y145243D01*
X327941Y145097D01*
X327948Y145091D01*
X327954Y145084D01*
X328106Y144966D01*
X328257Y144847D01*
X328265Y144843D01*
X328272Y144838D01*
X328444Y144752D01*
X328616Y144665D01*
X328624Y144662D01*
X328633Y144658D01*
X328819Y144608D01*
X329004Y144557D01*
X329013Y144556D01*
X329021Y144554D01*
X329223Y144537D01*
X333356Y142825D01*
X336500Y139681D01*
X338202Y135573D01*
X338202Y131127D01*
X336500Y127019D01*
X333356Y123875D01*
X329248Y122173D01*
X324802Y122173D01*
X320694Y123875D01*
X317550Y127019D01*
X315848Y131127D01*
X315848Y135573D01*
X316078Y136129D01*
X316082Y136142D01*
X316088Y136153D01*
X316140Y136333D01*
X316195Y136514D01*
X316196Y136527D01*
X316200Y136540D01*
X316215Y136728D01*
X316233Y136915D01*
X316232Y136928D01*
X316233Y136942D01*
X316211Y137128D01*
X316191Y137315D01*
X316187Y137328D01*
X316186Y137341D01*
X316128Y137520D01*
X316071Y137700D01*
X316065Y137711D01*
X316061Y137724D01*
X315968Y137889D01*
X315878Y138053D01*
X315870Y138063D01*
X315863Y138075D01*
X315740Y138217D01*
X315619Y138361D01*
X315609Y138369D01*
X315600Y138380D01*
X315452Y138494D01*
X315304Y138612D01*
X315292Y138618D01*
X315282Y138626D01*
X315113Y138710D01*
X314946Y138796D01*
X314933Y138800D01*
X314921Y138806D01*
X314738Y138855D01*
X314559Y138906D01*
X314545Y138907D01*
X314532Y138910D01*
X314202Y138937D01*
X278404Y138937D01*
X278381Y138935D01*
X278359Y138937D01*
X278181Y138915D01*
X278003Y138897D01*
X277982Y138891D01*
X277959Y138888D01*
X277790Y138832D01*
X277618Y138779D01*
X277598Y138768D01*
X277577Y138761D01*
X277422Y138673D01*
X277264Y138587D01*
X277247Y138573D01*
X277227Y138562D01*
X276973Y138348D01*
X273901Y135300D01*
X273893Y135290D01*
X273883Y135282D01*
X273766Y135136D01*
X273645Y134989D01*
X273639Y134978D01*
X273631Y134968D01*
X273544Y134801D01*
X273455Y134634D01*
X273451Y134622D01*
X273445Y134611D01*
X273393Y134429D01*
X273339Y134249D01*
X273337Y134236D01*
X273334Y134224D01*
X273318Y134035D01*
X273301Y133848D01*
X273302Y133835D01*
X273301Y133822D01*
X273323Y133635D01*
X273342Y133448D01*
X273346Y133435D01*
X273348Y133423D01*
X273407Y133242D01*
X273462Y133063D01*
X273469Y133052D01*
X273473Y133040D01*
X273566Y132875D01*
X273656Y132710D01*
X273664Y132700D01*
X273671Y132689D01*
X273794Y132546D01*
X273915Y132402D01*
X273925Y132394D01*
X273934Y132384D01*
X274083Y132269D01*
X274230Y132151D01*
X274242Y132146D01*
X274252Y132138D01*
X274420Y132054D01*
X274588Y131968D01*
X274601Y131964D01*
X274612Y131958D01*
X274795Y131909D01*
X274976Y131858D01*
X274989Y131857D01*
X275001Y131854D01*
X275332Y131827D01*
X276861Y131827D01*
X280969Y130125D01*
X284113Y126981D01*
X285814Y122873D01*
X285814Y118427D01*
X284113Y114319D01*
X280969Y111175D01*
X276861Y109473D01*
X272414Y109473D01*
X268306Y111175D01*
X265162Y114319D01*
X263461Y118427D01*
X263461Y122873D01*
X265006Y126604D01*
X265010Y126617D01*
X265016Y126628D01*
X265068Y126809D01*
X265122Y126989D01*
X265124Y127002D01*
X265127Y127015D01*
X265143Y127203D01*
X265161Y127390D01*
X265159Y127403D01*
X265160Y127417D01*
X265138Y127604D01*
X265119Y127790D01*
X265115Y127803D01*
X265113Y127816D01*
X265055Y127996D01*
X264999Y128175D01*
X264993Y128186D01*
X264989Y128199D01*
X264896Y128364D01*
X264806Y128528D01*
X264797Y128538D01*
X264791Y128550D01*
X264668Y128692D01*
X264547Y128836D01*
X264536Y128844D01*
X264527Y128855D01*
X264379Y128970D01*
X264232Y129087D01*
X264220Y129093D01*
X264209Y129101D01*
X264041Y129185D01*
X263874Y129271D01*
X263861Y129275D01*
X263849Y129281D01*
X263666Y129330D01*
X263486Y129381D01*
X263473Y129382D01*
X263460Y129385D01*
X263129Y129412D01*
X235123Y129412D01*
X232508Y130495D01*
X230328Y132675D01*
X230311Y132689D01*
X230297Y132706D01*
X230156Y132817D01*
X230017Y132930D01*
X229997Y132941D01*
X229980Y132954D01*
X229819Y133035D01*
X229661Y133119D01*
X229640Y133125D01*
X229620Y133135D01*
X229447Y133183D01*
X229275Y133234D01*
X229253Y133236D01*
X229232Y133241D01*
X229054Y133254D01*
X228874Y133270D01*
X228852Y133268D01*
X228830Y133269D01*
X228654Y133246D01*
X228474Y133227D01*
X228453Y133220D01*
X228431Y133217D01*
X228115Y133115D01*
X226840Y132587D01*
X224130Y132587D01*
X224108Y132585D01*
X224086Y132587D01*
X223908Y132565D01*
X223730Y132547D01*
X223708Y132541D01*
X223686Y132538D01*
X223516Y132482D01*
X223345Y132429D01*
X223325Y132419D01*
X223304Y132412D01*
X223148Y132323D01*
X222991Y132237D01*
X222974Y132223D01*
X222954Y132212D01*
X222819Y132095D01*
X222681Y131980D01*
X222667Y131962D01*
X222651Y131948D01*
X222541Y131806D01*
X222429Y131666D01*
X222419Y131646D01*
X222405Y131628D01*
X222254Y131333D01*
X222083Y130922D01*
X221196Y130035D01*
X221182Y130018D01*
X221165Y130003D01*
X221055Y129862D01*
X220941Y129724D01*
X220931Y129704D01*
X220917Y129686D01*
X220836Y129526D01*
X220752Y129368D01*
X220746Y129347D01*
X220736Y129327D01*
X220689Y129154D01*
X220638Y128982D01*
X220636Y128960D01*
X220630Y128938D01*
X220617Y128760D01*
X220601Y128581D01*
X220604Y128559D01*
X220602Y128537D01*
X220625Y128360D01*
X220645Y128181D01*
X220651Y128159D01*
X220654Y128137D01*
X220756Y127822D01*
X221492Y126044D01*
X221492Y110426D01*
X220873Y108933D01*
X219730Y107789D01*
X218236Y107170D01*
X211867Y107170D01*
X211774Y107161D01*
X211681Y107162D01*
X211574Y107141D01*
X211466Y107130D01*
X211377Y107103D01*
X211285Y107085D01*
X211185Y107044D01*
X211081Y107012D01*
X210999Y106968D01*
X210913Y106932D01*
X210822Y106872D01*
X210727Y106820D01*
X210656Y106761D01*
X210578Y106709D01*
X210501Y106632D01*
X210418Y106563D01*
X210359Y106490D01*
X210293Y106424D01*
X210233Y106333D01*
X210165Y106249D01*
X210122Y106166D01*
X210071Y106089D01*
X210030Y105988D01*
X209980Y105892D01*
X209954Y105802D01*
X209919Y105716D01*
X209899Y105609D01*
X209869Y105505D01*
X209861Y105412D01*
X209843Y105320D01*
X209845Y105212D01*
X209836Y105103D01*
X209847Y105011D01*
X209847Y104918D01*
X209870Y104811D01*
X209883Y104704D01*
X209912Y104615D01*
X209931Y104524D01*
X209982Y104400D01*
X210007Y104321D01*
X210032Y104278D01*
X210057Y104217D01*
X210394Y103555D01*
X210888Y102034D01*
X211138Y100455D01*
X211138Y93088D01*
X202501Y93088D01*
X202501Y101623D01*
X202499Y101641D01*
X202500Y101659D01*
X202479Y101841D01*
X202461Y102024D01*
X202456Y102041D01*
X202453Y102058D01*
X202397Y102233D01*
X202343Y102409D01*
X202334Y102424D01*
X202329Y102441D01*
X202238Y102601D01*
X202151Y102763D01*
X202139Y102776D01*
X202131Y102792D01*
X202010Y102931D01*
X201893Y103072D01*
X201879Y103083D01*
X201868Y103097D01*
X201723Y103209D01*
X201579Y103324D01*
X201564Y103332D01*
X201549Y103343D01*
X201385Y103425D01*
X201222Y103510D01*
X201205Y103515D01*
X201189Y103523D01*
X201011Y103570D01*
X200835Y103621D01*
X200817Y103623D01*
X200800Y103627D01*
X200469Y103654D01*
X200469Y115695D01*
X200469Y129388D01*
X200473Y129401D01*
X200474Y129413D01*
X200477Y129425D01*
X200490Y129612D01*
X200505Y129803D01*
X200504Y129815D01*
X200505Y129827D01*
X200481Y130014D01*
X200459Y130202D01*
X200455Y130214D01*
X200453Y130226D01*
X200394Y130400D01*
X200346Y130549D01*
X200343Y130558D01*
X200334Y130585D01*
X200328Y130596D01*
X200324Y130607D01*
X200318Y130617D01*
X199573Y132416D01*
X199573Y147034D01*
X200192Y148527D01*
X200787Y149123D01*
X200845Y149193D01*
X200910Y149257D01*
X200972Y149348D01*
X201042Y149434D01*
X201085Y149515D01*
X201136Y149590D01*
X201179Y149692D01*
X201231Y149790D01*
X201257Y149877D01*
X201292Y149961D01*
X201314Y150070D01*
X201345Y150176D01*
X201354Y150266D01*
X201372Y150356D01*
X201372Y150466D01*
X201382Y150577D01*
X201372Y150668D01*
X201372Y150758D01*
X201347Y150894D01*
X201338Y150977D01*
X201324Y151023D01*
X201313Y151085D01*
X201097Y151890D01*
X201097Y155476D01*
X209919Y155476D01*
X209937Y155477D01*
X209955Y155476D01*
X210137Y155497D01*
X210320Y155516D01*
X210337Y155521D01*
X210355Y155523D01*
X210529Y155580D01*
X210705Y155634D01*
X210721Y155642D01*
X210737Y155648D01*
X210898Y155738D01*
X211059Y155825D01*
X211073Y155837D01*
X211088Y155846D01*
X211227Y155966D01*
X211368Y156083D01*
X211379Y156097D01*
X211393Y156109D01*
X211505Y156254D01*
X211620Y156397D01*
X211629Y156413D01*
X211640Y156427D01*
X211722Y156592D01*
X211806Y156754D01*
X211811Y156771D01*
X211819Y156787D01*
X211867Y156966D01*
X211917Y157141D01*
X211919Y157159D01*
X211923Y157176D01*
X211951Y157507D01*
X211951Y159943D01*
X211949Y159961D01*
X211950Y159979D01*
X211929Y160161D01*
X211911Y160344D01*
X211905Y160361D01*
X211903Y160378D01*
X211846Y160553D01*
X211793Y160729D01*
X211784Y160744D01*
X211778Y160761D01*
X211688Y160921D01*
X211601Y161083D01*
X211589Y161096D01*
X211581Y161112D01*
X211460Y161251D01*
X211343Y161392D01*
X211329Y161403D01*
X211317Y161417D01*
X211172Y161529D01*
X211029Y161644D01*
X211013Y161652D01*
X210999Y161663D01*
X210834Y161745D01*
X210672Y161830D01*
X210655Y161835D01*
X210639Y161843D01*
X210461Y161890D01*
X210285Y161941D01*
X210267Y161943D01*
X210250Y161947D01*
X209919Y161974D01*
X201097Y161974D01*
X201097Y165560D01*
X201270Y166206D01*
X201604Y166785D01*
X201707Y166888D01*
X201715Y166898D01*
X201726Y166907D01*
X201843Y167054D01*
X201962Y167199D01*
X201968Y167211D01*
X201977Y167222D01*
X202063Y167389D01*
X202151Y167555D01*
X202155Y167568D01*
X202161Y167580D01*
X202211Y167759D01*
X202266Y167941D01*
X202267Y167954D01*
X202270Y167967D01*
X202285Y168153D01*
X202302Y168342D01*
X202301Y168355D01*
X202302Y168369D01*
X202279Y168554D01*
X202259Y168742D01*
X202255Y168755D01*
X202253Y168768D01*
X202194Y168947D01*
X202137Y169126D01*
X202131Y169138D01*
X202126Y169150D01*
X202034Y169313D01*
X201942Y169478D01*
X201934Y169488D01*
X201927Y169500D01*
X201804Y169642D01*
X201682Y169785D01*
X201671Y169794D01*
X201662Y169804D01*
X201513Y169919D01*
X201366Y170035D01*
X201354Y170041D01*
X201343Y170049D01*
X201048Y170201D01*
X198751Y171152D01*
X196543Y173360D01*
X195349Y176244D01*
X195349Y179365D01*
X196272Y181595D01*
X196276Y181608D01*
X196282Y181619D01*
X196334Y181798D01*
X196389Y181980D01*
X196390Y181993D01*
X196394Y182006D01*
X196409Y182194D01*
X196427Y182381D01*
X196425Y182394D01*
X196427Y182408D01*
X196405Y182594D01*
X196385Y182781D01*
X196381Y182794D01*
X196380Y182807D01*
X196321Y182987D01*
X196265Y183166D01*
X196259Y183177D01*
X196255Y183190D01*
X196162Y183354D01*
X196072Y183519D01*
X196063Y183529D01*
X196057Y183541D01*
X195934Y183683D01*
X195813Y183827D01*
X195802Y183835D01*
X195794Y183846D01*
X195646Y183960D01*
X195498Y184078D01*
X195486Y184084D01*
X195476Y184092D01*
X195307Y184176D01*
X195140Y184262D01*
X195127Y184266D01*
X195115Y184272D01*
X194932Y184321D01*
X194753Y184372D01*
X194739Y184373D01*
X194726Y184376D01*
X194396Y184403D01*
X105854Y184403D01*
X105827Y184401D01*
X105801Y184403D01*
X105627Y184381D01*
X105453Y184363D01*
X105428Y184356D01*
X105401Y184352D01*
X105235Y184296D01*
X105069Y184245D01*
X105045Y184232D01*
X105020Y184224D01*
X104868Y184137D01*
X104714Y184053D01*
X104694Y184036D01*
X104671Y184023D01*
X104471Y183854D01*
X101573Y182653D01*
X98452Y182653D01*
X95568Y183848D01*
X93360Y186055D01*
X92166Y188939D01*
X92166Y192061D01*
X93360Y194945D01*
X95568Y197152D01*
X98452Y198347D01*
X101573Y198347D01*
X104461Y197151D01*
X104594Y197047D01*
X104729Y196937D01*
X104753Y196924D01*
X104774Y196908D01*
X104931Y196830D01*
X105085Y196748D01*
X105110Y196740D01*
X105135Y196728D01*
X105304Y196683D01*
X105471Y196633D01*
X105497Y196631D01*
X105523Y196624D01*
X105854Y196597D01*
X129350Y196597D01*
X129359Y196598D01*
X129368Y196597D01*
X129559Y196618D01*
X129751Y196637D01*
X129759Y196639D01*
X129768Y196640D01*
X129952Y196698D01*
X130136Y196755D01*
X130143Y196759D01*
X130152Y196762D01*
X130321Y196855D01*
X130490Y196947D01*
X130496Y196952D01*
X130504Y196957D01*
X130652Y197082D01*
X130799Y197204D01*
X130804Y197211D01*
X130811Y197217D01*
X130931Y197369D01*
X131051Y197518D01*
X131055Y197526D01*
X131061Y197533D01*
X131148Y197705D01*
X131237Y197875D01*
X131239Y197884D01*
X131243Y197892D01*
X131295Y198076D01*
X131348Y198262D01*
X131349Y198271D01*
X131351Y198280D01*
X131365Y198470D01*
X131381Y198664D01*
X131380Y198673D01*
X131381Y198681D01*
X131357Y198871D01*
X131334Y199063D01*
X131331Y199072D01*
X131330Y199081D01*
X131269Y199264D01*
X131209Y199446D01*
X131205Y199454D01*
X131202Y199463D01*
X131106Y199629D01*
X131011Y199797D01*
X131005Y199804D01*
X131001Y199811D01*
X130831Y200012D01*
X129631Y202909D01*
X129631Y206031D01*
X130825Y208915D01*
X133033Y211122D01*
X135920Y212318D01*
X136088Y212339D01*
X136261Y212357D01*
X136287Y212364D01*
X136314Y212368D01*
X136479Y212423D01*
X136646Y212475D01*
X136670Y212488D01*
X136695Y212496D01*
X136847Y212583D01*
X137000Y212667D01*
X137021Y212684D01*
X137044Y212697D01*
X137297Y212912D01*
X140374Y215989D01*
X142615Y216917D01*
X200216Y216917D01*
X200242Y216919D01*
X200269Y216917D01*
X200443Y216939D01*
X200617Y216957D01*
X200642Y216964D01*
X200669Y216968D01*
X200834Y217023D01*
X201001Y217075D01*
X201025Y217088D01*
X201050Y217096D01*
X201202Y217183D01*
X201355Y217267D01*
X201376Y217284D01*
X201399Y217297D01*
X201599Y217466D01*
X204497Y218667D01*
X207618Y218667D01*
X210502Y217472D01*
X212710Y215265D01*
X213904Y212381D01*
X213904Y209259D01*
X212710Y206375D01*
X210971Y204636D01*
X210959Y204623D01*
X210946Y204611D01*
X210832Y204467D01*
X210716Y204325D01*
X210707Y204309D01*
X210696Y204295D01*
X210613Y204131D01*
X210527Y203969D01*
X210522Y203952D01*
X210514Y203936D01*
X210465Y203759D01*
X210412Y203583D01*
X210411Y203565D01*
X210406Y203548D01*
X210392Y203365D01*
X210376Y203182D01*
X210378Y203164D01*
X210376Y203147D01*
X210399Y202965D01*
X210419Y202782D01*
X210425Y202765D01*
X210427Y202747D01*
X210485Y202574D01*
X210541Y202398D01*
X210549Y202382D01*
X210555Y202366D01*
X210647Y202207D01*
X210736Y202046D01*
X210747Y202032D01*
X210756Y202017D01*
X210971Y201764D01*
X212368Y200367D01*
X212388Y200350D01*
X212406Y200329D01*
X212544Y200222D01*
X212679Y200112D01*
X212703Y200099D01*
X212724Y200083D01*
X212881Y200005D01*
X213035Y199923D01*
X213060Y199915D01*
X213085Y199903D01*
X213254Y199858D01*
X213421Y199808D01*
X213447Y199806D01*
X213473Y199799D01*
X213804Y199772D01*
X223463Y199772D01*
X225703Y198844D01*
X226682Y197865D01*
X226685Y197863D01*
X226688Y197859D01*
X226842Y197734D01*
X226993Y197610D01*
X226997Y197608D01*
X227001Y197605D01*
X227178Y197512D01*
X227349Y197422D01*
X227353Y197420D01*
X227357Y197418D01*
X227547Y197363D01*
X227735Y197307D01*
X227739Y197307D01*
X227744Y197305D01*
X227935Y197289D01*
X228136Y197271D01*
X228140Y197271D01*
X228145Y197271D01*
X228335Y197292D01*
X228536Y197314D01*
X228540Y197315D01*
X228545Y197316D01*
X228727Y197375D01*
X228920Y197435D01*
X228924Y197438D01*
X228928Y197439D01*
X229096Y197533D01*
X229272Y197630D01*
X229276Y197633D01*
X229279Y197635D01*
X229427Y197761D01*
X229579Y197891D01*
X229582Y197894D01*
X229585Y197897D01*
X229706Y198051D01*
X229829Y198207D01*
X229831Y198211D01*
X229834Y198214D01*
X229920Y198387D01*
X230011Y198566D01*
X230012Y198570D01*
X230014Y198574D01*
X230066Y198763D01*
X230119Y198953D01*
X230119Y198958D01*
X230121Y198962D01*
X230134Y199158D01*
X230149Y199355D01*
X230148Y199359D01*
X230148Y199364D01*
X230123Y199560D01*
X230098Y199754D01*
X230097Y199759D01*
X230096Y199763D01*
X229995Y200079D01*
X228691Y203227D01*
X228691Y206348D01*
X229887Y209236D01*
X229990Y209369D01*
X230101Y209504D01*
X230113Y209528D01*
X230130Y209549D01*
X230208Y209706D01*
X230290Y209860D01*
X230297Y209885D01*
X230309Y209910D01*
X230355Y210079D01*
X230404Y210246D01*
X230407Y210272D01*
X230414Y210298D01*
X230441Y210629D01*
X230441Y214121D01*
X230438Y214147D01*
X230440Y214174D01*
X230418Y214348D01*
X230401Y214521D01*
X230393Y214547D01*
X230390Y214574D01*
X230334Y214739D01*
X230283Y214906D01*
X230270Y214930D01*
X230261Y214955D01*
X230174Y215107D01*
X230091Y215260D01*
X230074Y215281D01*
X230061Y215304D01*
X229846Y215557D01*
X228194Y217209D01*
X227266Y219450D01*
X227266Y254508D01*
X227263Y254535D01*
X227265Y254562D01*
X227243Y254736D01*
X227226Y254909D01*
X227218Y254935D01*
X227215Y254961D01*
X227159Y255127D01*
X227108Y255294D01*
X227095Y255318D01*
X227086Y255343D01*
X226999Y255495D01*
X226916Y255648D01*
X226899Y255668D01*
X226886Y255692D01*
X226716Y255891D01*
X225516Y258789D01*
X225516Y261911D01*
X226710Y264795D01*
X228918Y267002D01*
X231802Y268197D01*
X234923Y268197D01*
X237807Y267002D01*
X240015Y264795D01*
X241209Y261911D01*
X241209Y258789D01*
X240013Y255902D01*
X239910Y255769D01*
X239799Y255633D01*
X239787Y255610D01*
X239770Y255588D01*
X239692Y255432D01*
X239610Y255278D01*
X239603Y255252D01*
X239591Y255228D01*
X239545Y255059D01*
X239496Y254892D01*
X239493Y254865D01*
X239486Y254839D01*
X239459Y254508D01*
X239459Y224029D01*
X239462Y224003D01*
X239460Y223976D01*
X239482Y223802D01*
X239499Y223629D01*
X239507Y223603D01*
X239510Y223576D01*
X239566Y223411D01*
X239617Y223244D01*
X239630Y223220D01*
X239639Y223195D01*
X239726Y223043D01*
X239809Y222890D01*
X239826Y222869D01*
X239839Y222846D01*
X240054Y222593D01*
X241706Y220941D01*
X242245Y219639D01*
X242247Y219635D01*
X242249Y219631D01*
X242342Y219458D01*
X242436Y219284D01*
X242438Y219281D01*
X242441Y219277D01*
X242565Y219128D01*
X242692Y218974D01*
X242695Y218971D01*
X242698Y218967D01*
X242851Y218845D01*
X243005Y218720D01*
X243009Y218718D01*
X243012Y218715D01*
X243185Y218625D01*
X243361Y218533D01*
X243365Y218532D01*
X243369Y218530D01*
X243557Y218476D01*
X243748Y218420D01*
X243752Y218419D01*
X243756Y218418D01*
X243954Y218402D01*
X244149Y218385D01*
X244153Y218386D01*
X244158Y218385D01*
X244352Y218408D01*
X244549Y218430D01*
X244553Y218432D01*
X244557Y218432D01*
X244743Y218493D01*
X244932Y218554D01*
X244936Y218556D01*
X244940Y218557D01*
X245112Y218654D01*
X245284Y218750D01*
X245287Y218753D01*
X245291Y218755D01*
X245439Y218883D01*
X245589Y219012D01*
X245592Y219015D01*
X245596Y219018D01*
X245715Y219172D01*
X245838Y219329D01*
X245840Y219333D01*
X245842Y219336D01*
X245929Y219511D01*
X246018Y219688D01*
X246020Y219693D01*
X246022Y219697D01*
X246073Y219889D01*
X246125Y220077D01*
X246125Y220081D01*
X246126Y220086D01*
X246153Y220416D01*
X246153Y223811D01*
X247348Y226695D01*
X247816Y227163D01*
X247833Y227184D01*
X247854Y227201D01*
X247961Y227339D01*
X248071Y227475D01*
X248084Y227498D01*
X248100Y227520D01*
X248178Y227676D01*
X248260Y227830D01*
X248268Y227856D01*
X248280Y227880D01*
X248325Y228049D01*
X248375Y228216D01*
X248377Y228243D01*
X248384Y228269D01*
X248411Y228600D01*
X248411Y277587D01*
X248403Y277669D01*
X248405Y277750D01*
X248383Y277868D01*
X248371Y277988D01*
X248347Y278066D01*
X248333Y278146D01*
X248289Y278258D01*
X248253Y278373D01*
X248214Y278445D01*
X248184Y278521D01*
X248119Y278621D01*
X248061Y278727D01*
X248009Y278790D01*
X247965Y278858D01*
X247859Y278970D01*
X247804Y279036D01*
X247772Y279061D01*
X247737Y279099D01*
X242572Y283734D01*
X242432Y283836D01*
X242296Y283942D01*
X242270Y283955D01*
X242248Y283972D01*
X242090Y284044D01*
X241935Y284122D01*
X241908Y284129D01*
X241882Y284141D01*
X241714Y284181D01*
X241546Y284226D01*
X241515Y284229D01*
X241491Y284235D01*
X241406Y284238D01*
X241216Y284253D01*
X240057Y284253D01*
X237173Y285448D01*
X234965Y287655D01*
X233771Y290539D01*
X233771Y293661D01*
X234907Y296403D01*
X234910Y296416D01*
X234917Y296427D01*
X234968Y296607D01*
X235023Y296788D01*
X235024Y296801D01*
X235028Y296814D01*
X235043Y297002D01*
X235061Y297189D01*
X235060Y297202D01*
X235061Y297216D01*
X235039Y297402D01*
X235019Y297589D01*
X235015Y297602D01*
X235014Y297615D01*
X234955Y297795D01*
X234900Y297974D01*
X234893Y297985D01*
X234889Y297998D01*
X234797Y298162D01*
X234706Y298327D01*
X234698Y298337D01*
X234691Y298349D01*
X234569Y298491D01*
X234447Y298635D01*
X234437Y298643D01*
X234428Y298654D01*
X234280Y298768D01*
X234132Y298886D01*
X234120Y298892D01*
X234110Y298900D01*
X233942Y298984D01*
X233774Y299070D01*
X233761Y299074D01*
X233749Y299080D01*
X233567Y299129D01*
X233387Y299180D01*
X233374Y299181D01*
X233361Y299184D01*
X233030Y299211D01*
X221138Y299211D01*
X219084Y300062D01*
X217227Y301920D01*
X217226Y301920D01*
X209845Y309301D01*
X209845Y309302D01*
X207987Y311159D01*
X207136Y313213D01*
X207136Y322263D01*
X207134Y322289D01*
X207136Y322316D01*
X207114Y322490D01*
X207096Y322664D01*
X207089Y322689D01*
X207085Y322716D01*
X207030Y322881D01*
X206978Y323048D01*
X206965Y323072D01*
X206957Y323097D01*
X206870Y323249D01*
X206786Y323402D01*
X206769Y323423D01*
X206756Y323446D01*
X206541Y323699D01*
X206073Y324168D01*
X205883Y324627D01*
X205872Y324647D01*
X205865Y324668D01*
X205777Y324824D01*
X205692Y324982D01*
X205678Y324999D01*
X205667Y325019D01*
X205550Y325155D01*
X205436Y325293D01*
X205419Y325307D01*
X205404Y325324D01*
X205263Y325433D01*
X205123Y325546D01*
X205103Y325557D01*
X205086Y325570D01*
X204925Y325650D01*
X204767Y325733D01*
X204745Y325740D01*
X204725Y325750D01*
X204552Y325796D01*
X204380Y325846D01*
X204358Y325848D01*
X204337Y325854D01*
X204006Y325881D01*
X198066Y325881D01*
X198058Y325880D01*
X198049Y325881D01*
X197855Y325860D01*
X197666Y325841D01*
X197657Y325839D01*
X197648Y325838D01*
X197464Y325779D01*
X197281Y325723D01*
X197273Y325719D01*
X197265Y325716D01*
X197096Y325623D01*
X196927Y325531D01*
X196920Y325526D01*
X196912Y325521D01*
X196765Y325397D01*
X196618Y325274D01*
X196612Y325267D01*
X196605Y325261D01*
X196485Y325109D01*
X196365Y324960D01*
X196361Y324952D01*
X196356Y324945D01*
X196268Y324772D01*
X196180Y324603D01*
X196177Y324594D01*
X196173Y324586D01*
X196121Y324400D01*
X196068Y324216D01*
X196068Y324207D01*
X196065Y324198D01*
X196051Y324005D01*
X196035Y323814D01*
X196037Y323806D01*
X196036Y323797D01*
X196060Y323604D01*
X196082Y323415D01*
X196085Y323406D01*
X196086Y323397D01*
X196147Y323215D01*
X196207Y323032D01*
X196212Y323024D01*
X196214Y323016D01*
X196311Y322849D01*
X196405Y322681D01*
X196411Y322674D01*
X196415Y322667D01*
X196630Y322414D01*
X196800Y322244D01*
X198502Y318136D01*
X198502Y313689D01*
X196800Y309581D01*
X193656Y306437D01*
X189548Y304736D01*
X185102Y304736D01*
X180994Y306437D01*
X177850Y309581D01*
X176148Y313689D01*
X176148Y318136D01*
X177850Y322244D01*
X178020Y322414D01*
X178026Y322421D01*
X178032Y322426D01*
X178153Y322576D01*
X178275Y322725D01*
X178279Y322733D01*
X178285Y322740D01*
X178374Y322911D01*
X178464Y323081D01*
X178466Y323089D01*
X178470Y323097D01*
X178524Y323283D01*
X178578Y323467D01*
X178579Y323476D01*
X178582Y323484D01*
X178597Y323676D01*
X178615Y323868D01*
X178614Y323877D01*
X178615Y323886D01*
X178592Y324075D01*
X178571Y324268D01*
X178569Y324277D01*
X178568Y324285D01*
X178508Y324467D01*
X178450Y324652D01*
X178446Y324660D01*
X178443Y324668D01*
X178348Y324837D01*
X178255Y325004D01*
X178249Y325011D01*
X178245Y325019D01*
X178119Y325165D01*
X177995Y325311D01*
X177988Y325317D01*
X177982Y325324D01*
X177830Y325441D01*
X177679Y325561D01*
X177671Y325565D01*
X177664Y325570D01*
X177491Y325656D01*
X177320Y325743D01*
X177311Y325746D01*
X177303Y325750D01*
X177117Y325800D01*
X176932Y325851D01*
X176923Y325852D01*
X176914Y325854D01*
X176584Y325881D01*
X144653Y325881D01*
X144635Y325879D01*
X144617Y325881D01*
X144435Y325860D01*
X144252Y325841D01*
X144235Y325836D01*
X144218Y325834D01*
X144043Y325777D01*
X143867Y325723D01*
X143852Y325715D01*
X143835Y325709D01*
X143675Y325619D01*
X143513Y325531D01*
X143500Y325520D01*
X143484Y325511D01*
X143345Y325391D01*
X143204Y325274D01*
X143193Y325260D01*
X143179Y325248D01*
X143067Y325103D01*
X142952Y324960D01*
X142944Y324944D01*
X142933Y324930D01*
X142851Y324765D01*
X142766Y324603D01*
X142761Y324586D01*
X142753Y324570D01*
X142706Y324391D01*
X142655Y324216D01*
X142653Y324198D01*
X142649Y324181D01*
X142622Y323850D01*
X142622Y295467D01*
X142624Y295440D01*
X142622Y295413D01*
X142644Y295240D01*
X142662Y295066D01*
X142669Y295041D01*
X142673Y295014D01*
X142728Y294848D01*
X142780Y294681D01*
X142793Y294658D01*
X142801Y294632D01*
X142888Y294481D01*
X142972Y294327D01*
X142989Y294307D01*
X143002Y294283D01*
X143217Y294030D01*
X148044Y289204D01*
X148972Y286963D01*
X148972Y280162D01*
X148974Y280135D01*
X148972Y280108D01*
X148994Y279935D01*
X149012Y279761D01*
X149019Y279735D01*
X149023Y279709D01*
X149079Y279543D01*
X149130Y279376D01*
X149143Y279352D01*
X149151Y279327D01*
X149238Y279176D01*
X149322Y279022D01*
X149339Y279001D01*
X149352Y278978D01*
X149521Y278779D01*
X150722Y275881D01*
X150722Y272759D01*
X149527Y269875D01*
X147320Y267668D01*
X144436Y266473D01*
X141314Y266473D01*
X138430Y267668D01*
X136223Y269875D01*
X135028Y272759D01*
X135028Y275881D01*
X136224Y278768D01*
X136328Y278901D01*
X136438Y279037D01*
X136451Y279060D01*
X136467Y279082D01*
X136545Y279238D01*
X136627Y279392D01*
X136635Y279418D01*
X136647Y279442D01*
X136692Y279611D01*
X136742Y279778D01*
X136744Y279805D01*
X136751Y279831D01*
X136778Y280162D01*
X136778Y282383D01*
X136776Y282410D01*
X136778Y282437D01*
X136756Y282610D01*
X136738Y282784D01*
X136731Y282809D01*
X136727Y282836D01*
X136672Y283002D01*
X136620Y283169D01*
X136607Y283192D01*
X136599Y283218D01*
X136512Y283369D01*
X136428Y283523D01*
X136411Y283543D01*
X136398Y283567D01*
X136183Y283820D01*
X131356Y288646D01*
X131036Y289421D01*
X131034Y289425D01*
X131032Y289429D01*
X130939Y289602D01*
X130845Y289776D01*
X130843Y289779D01*
X130840Y289783D01*
X130715Y289934D01*
X130589Y290086D01*
X130586Y290089D01*
X130583Y290093D01*
X130432Y290214D01*
X130276Y290340D01*
X130272Y290342D01*
X130269Y290345D01*
X130099Y290433D01*
X129920Y290527D01*
X129916Y290528D01*
X129912Y290530D01*
X129724Y290584D01*
X129533Y290640D01*
X129529Y290641D01*
X129525Y290642D01*
X129327Y290658D01*
X129132Y290675D01*
X129128Y290674D01*
X129123Y290675D01*
X128928Y290652D01*
X128732Y290630D01*
X128728Y290628D01*
X128724Y290628D01*
X128536Y290567D01*
X128349Y290506D01*
X128345Y290504D01*
X128341Y290503D01*
X128168Y290405D01*
X127997Y290310D01*
X127994Y290307D01*
X127990Y290305D01*
X127842Y290177D01*
X127692Y290048D01*
X127689Y290045D01*
X127685Y290042D01*
X127565Y289887D01*
X127443Y289731D01*
X127441Y289727D01*
X127439Y289724D01*
X127351Y289547D01*
X127263Y289372D01*
X127261Y289367D01*
X127259Y289363D01*
X127208Y289172D01*
X127156Y288983D01*
X127156Y288979D01*
X127155Y288974D01*
X127128Y288644D01*
X127128Y286514D01*
X121473Y280860D01*
X119506Y280860D01*
X119506Y290512D01*
X119506Y290513D01*
X119506Y300165D01*
X121473Y300165D01*
X126961Y294678D01*
X126968Y294672D01*
X126973Y294665D01*
X127123Y294545D01*
X127272Y294423D01*
X127280Y294419D01*
X127287Y294413D01*
X127457Y294324D01*
X127628Y294234D01*
X127637Y294232D01*
X127644Y294227D01*
X127829Y294174D01*
X128014Y294119D01*
X128023Y294119D01*
X128031Y294116D01*
X128223Y294100D01*
X128415Y294083D01*
X128424Y294084D01*
X128433Y294083D01*
X128622Y294105D01*
X128815Y294126D01*
X128824Y294129D01*
X128832Y294130D01*
X129014Y294189D01*
X129199Y294248D01*
X129207Y294252D01*
X129215Y294255D01*
X129384Y294350D01*
X129551Y294443D01*
X129558Y294448D01*
X129566Y294453D01*
X129712Y294579D01*
X129858Y294703D01*
X129864Y294710D01*
X129871Y294716D01*
X129988Y294867D01*
X130108Y295019D01*
X130112Y295027D01*
X130117Y295034D01*
X130202Y295204D01*
X130290Y295378D01*
X130293Y295387D01*
X130297Y295395D01*
X130347Y295581D01*
X130398Y295766D01*
X130399Y295775D01*
X130401Y295783D01*
X130428Y296114D01*
X130428Y308156D01*
X130427Y308164D01*
X130428Y308173D01*
X130407Y308365D01*
X130388Y308556D01*
X130386Y308565D01*
X130385Y308574D01*
X130327Y308756D01*
X130270Y308941D01*
X130266Y308949D01*
X130263Y308958D01*
X130170Y309126D01*
X130078Y309295D01*
X130073Y309302D01*
X130068Y309310D01*
X129944Y309457D01*
X129821Y309604D01*
X129814Y309610D01*
X129808Y309617D01*
X129657Y309736D01*
X129507Y309857D01*
X129499Y309861D01*
X129492Y309866D01*
X129319Y309954D01*
X129150Y310042D01*
X129141Y310045D01*
X129133Y310049D01*
X128947Y310101D01*
X128763Y310154D01*
X128754Y310154D01*
X128745Y310157D01*
X128552Y310171D01*
X128361Y310187D01*
X128353Y310186D01*
X128344Y310186D01*
X128151Y310162D01*
X127962Y310140D01*
X127953Y310137D01*
X127944Y310136D01*
X127761Y310074D01*
X127579Y310015D01*
X127571Y310010D01*
X127563Y310008D01*
X127396Y309911D01*
X127228Y309817D01*
X127221Y309811D01*
X127214Y309807D01*
X126961Y309592D01*
X123806Y306437D01*
X119698Y304736D01*
X115252Y304736D01*
X111144Y306437D01*
X108000Y309581D01*
X106298Y313689D01*
X106298Y318136D01*
X108000Y322244D01*
X108170Y322414D01*
X108176Y322421D01*
X108182Y322426D01*
X108303Y322576D01*
X108425Y322725D01*
X108429Y322733D01*
X108435Y322740D01*
X108524Y322911D01*
X108614Y323081D01*
X108616Y323089D01*
X108620Y323097D01*
X108674Y323283D01*
X108728Y323467D01*
X108729Y323476D01*
X108732Y323484D01*
X108747Y323676D01*
X108765Y323868D01*
X108764Y323877D01*
X108765Y323886D01*
X108742Y324075D01*
X108721Y324268D01*
X108719Y324277D01*
X108718Y324285D01*
X108658Y324467D01*
X108600Y324652D01*
X108596Y324660D01*
X108593Y324668D01*
X108498Y324837D01*
X108405Y325004D01*
X108399Y325011D01*
X108395Y325019D01*
X108269Y325165D01*
X108145Y325311D01*
X108138Y325317D01*
X108132Y325324D01*
X107980Y325441D01*
X107829Y325561D01*
X107821Y325565D01*
X107814Y325570D01*
X107641Y325656D01*
X107470Y325743D01*
X107461Y325746D01*
X107453Y325750D01*
X107267Y325800D01*
X107082Y325851D01*
X107073Y325852D01*
X107064Y325854D01*
X106734Y325881D01*
X86931Y325881D01*
X86914Y325879D01*
X86896Y325881D01*
X86714Y325860D01*
X86531Y325841D01*
X86514Y325836D01*
X86496Y325834D01*
X86322Y325777D01*
X86146Y325723D01*
X86130Y325715D01*
X86113Y325709D01*
X85953Y325619D01*
X85792Y325531D01*
X85778Y325520D01*
X85763Y325511D01*
X85623Y325391D01*
X85483Y325274D01*
X85471Y325260D01*
X85458Y325248D01*
X85345Y325103D01*
X85230Y324960D01*
X85222Y324944D01*
X85211Y324930D01*
X85129Y324765D01*
X85045Y324603D01*
X85040Y324586D01*
X85032Y324570D01*
X84984Y324391D01*
X84933Y324216D01*
X84932Y324198D01*
X84927Y324181D01*
X84900Y323850D01*
X84900Y179421D01*
X83817Y176807D01*
X81817Y174806D01*
X79202Y173724D01*
X76373Y173724D01*
X73758Y174806D01*
X71758Y176807D01*
X70675Y179421D01*
X70675Y323850D01*
X70673Y323868D01*
X70674Y323886D01*
X70653Y324068D01*
X70635Y324251D01*
X70630Y324268D01*
X70628Y324285D01*
X70571Y324460D01*
X70517Y324636D01*
X70508Y324651D01*
X70503Y324668D01*
X70412Y324828D01*
X70325Y324990D01*
X70314Y325003D01*
X70305Y325019D01*
X70185Y325158D01*
X70067Y325299D01*
X70053Y325310D01*
X70042Y325324D01*
X69897Y325436D01*
X69753Y325551D01*
X69738Y325559D01*
X69724Y325570D01*
X69559Y325652D01*
X69396Y325737D01*
X69379Y325742D01*
X69363Y325750D01*
X69185Y325797D01*
X69009Y325848D01*
X68991Y325850D01*
X68974Y325854D01*
X68644Y325881D01*
X12192Y325881D01*
X12174Y325879D01*
X12156Y325881D01*
X11974Y325860D01*
X11791Y325841D01*
X11774Y325836D01*
X11757Y325834D01*
X11582Y325777D01*
X11406Y325723D01*
X11391Y325715D01*
X11374Y325709D01*
X11214Y325619D01*
X11052Y325531D01*
X11039Y325520D01*
X11023Y325511D01*
X10884Y325391D01*
X10743Y325274D01*
X10732Y325260D01*
X10718Y325248D01*
X10606Y325103D01*
X10491Y324960D01*
X10483Y324944D01*
X10472Y324930D01*
X10390Y324765D01*
X10305Y324603D01*
X10300Y324586D01*
X10292Y324570D01*
X10245Y324391D01*
X10194Y324216D01*
X10192Y324198D01*
X10188Y324181D01*
X10161Y323850D01*
X10161Y50311D01*
X10169Y50229D01*
X10167Y50147D01*
X10189Y50029D01*
X10201Y49910D01*
X10225Y49831D01*
X10239Y49751D01*
X10284Y49640D01*
X10319Y49525D01*
X10358Y49453D01*
X10388Y49377D01*
X10454Y49276D01*
X10511Y49171D01*
X10563Y49108D01*
X10608Y49039D01*
X10692Y48954D01*
X10768Y48862D01*
X10832Y48810D01*
X10890Y48752D01*
X10989Y48684D01*
X11082Y48609D01*
X11155Y48572D01*
X11223Y48525D01*
X11333Y48479D01*
X11439Y48424D01*
X11518Y48401D01*
X11594Y48369D01*
X11711Y48346D01*
X11826Y48313D01*
X11908Y48306D01*
X11989Y48290D01*
X12108Y48289D01*
X12228Y48280D01*
X12309Y48289D01*
X12391Y48289D01*
X12541Y48316D01*
X12627Y48327D01*
X12666Y48339D01*
X12718Y48349D01*
X18781Y49973D01*
X25669Y49973D01*
X32323Y48190D01*
X38288Y44746D01*
X43159Y39876D01*
X46603Y33910D01*
X48386Y27257D01*
X48386Y20368D01*
X46603Y13715D01*
X46310Y13208D01*
X46250Y13074D01*
X46182Y12945D01*
X46167Y12891D01*
X46144Y12841D01*
X46112Y12698D01*
X46071Y12558D01*
X46067Y12502D01*
X46054Y12448D01*
X46050Y12302D01*
X46038Y12156D01*
X46045Y12101D01*
X46043Y12046D01*
X46068Y11902D01*
X46085Y11757D01*
X46102Y11704D01*
X46112Y11649D01*
X46165Y11513D01*
X46210Y11374D01*
X46237Y11325D01*
X46257Y11274D01*
X46336Y11151D01*
X46408Y11023D01*
X46444Y10981D01*
X46474Y10934D01*
X46575Y10829D01*
X46671Y10718D01*
X46715Y10684D01*
X46753Y10645D01*
X46873Y10561D01*
X46989Y10472D01*
X47039Y10447D01*
X47084Y10415D01*
X47218Y10358D01*
X47350Y10292D01*
X47403Y10278D01*
X47454Y10256D01*
X47597Y10226D01*
X47738Y10188D01*
X47801Y10183D01*
X47848Y10173D01*
X47932Y10172D01*
X48069Y10161D01*
X410064Y10161D01*
X410146Y10169D01*
G37*
G36*
X448076Y285308D02*
X448076Y285308D01*
X448094Y285307D01*
X448276Y285328D01*
X448459Y285346D01*
X448476Y285351D01*
X448493Y285353D01*
X448668Y285410D01*
X448844Y285464D01*
X448859Y285473D01*
X448876Y285478D01*
X449036Y285569D01*
X449198Y285656D01*
X449211Y285667D01*
X449227Y285676D01*
X449366Y285796D01*
X449507Y285914D01*
X449518Y285928D01*
X449532Y285939D01*
X449644Y286084D01*
X449759Y286228D01*
X449767Y286243D01*
X449778Y286257D01*
X449860Y286422D01*
X449945Y286585D01*
X449950Y286602D01*
X449958Y286618D01*
X450005Y286796D01*
X450056Y286972D01*
X450058Y286990D01*
X450062Y287007D01*
X450089Y287338D01*
X450089Y493196D01*
X450075Y493341D01*
X450068Y493488D01*
X450055Y493542D01*
X450049Y493597D01*
X450007Y493736D01*
X449971Y493879D01*
X449948Y493929D01*
X449931Y493982D01*
X449862Y494110D01*
X449799Y494242D01*
X449766Y494287D01*
X449739Y494336D01*
X449646Y494448D01*
X449558Y494565D01*
X449517Y494602D01*
X449482Y494645D01*
X449368Y494737D01*
X449259Y494834D01*
X449211Y494863D01*
X449168Y494897D01*
X449038Y494965D01*
X448912Y495039D01*
X448860Y495057D01*
X448811Y495083D01*
X448670Y495123D01*
X448532Y495171D01*
X448477Y495179D01*
X448424Y495194D01*
X448278Y495206D01*
X448133Y495226D01*
X448078Y495223D01*
X448022Y495227D01*
X447878Y495210D01*
X447731Y495201D01*
X447678Y495187D01*
X447623Y495180D01*
X447484Y495135D01*
X447342Y495097D01*
X447285Y495070D01*
X447240Y495055D01*
X447167Y495014D01*
X447042Y494955D01*
X446660Y494735D01*
X440007Y492952D01*
X433118Y492952D01*
X426465Y494735D01*
X420499Y498179D01*
X415629Y503049D01*
X412185Y509015D01*
X410402Y515668D01*
X410402Y522557D01*
X412185Y529210D01*
X412420Y529617D01*
X412480Y529751D01*
X412547Y529880D01*
X412563Y529934D01*
X412585Y529984D01*
X412618Y530127D01*
X412659Y530267D01*
X412663Y530323D01*
X412676Y530377D01*
X412680Y530523D01*
X412692Y530669D01*
X412685Y530724D01*
X412687Y530779D01*
X412662Y530923D01*
X412645Y531068D01*
X412627Y531121D01*
X412618Y531176D01*
X412565Y531312D01*
X412520Y531451D01*
X412493Y531500D01*
X412472Y531551D01*
X412394Y531674D01*
X412322Y531802D01*
X412286Y531844D01*
X412256Y531891D01*
X412154Y531996D01*
X412059Y532107D01*
X412015Y532140D01*
X411976Y532180D01*
X411856Y532264D01*
X411741Y532353D01*
X411691Y532378D01*
X411645Y532410D01*
X411511Y532467D01*
X411380Y532533D01*
X411326Y532547D01*
X411276Y532569D01*
X411133Y532599D01*
X410991Y532637D01*
X410928Y532642D01*
X410882Y532652D01*
X410798Y532653D01*
X410661Y532664D01*
X49714Y532664D01*
X49569Y532650D01*
X49423Y532643D01*
X49369Y532630D01*
X49314Y532624D01*
X49174Y532582D01*
X49032Y532546D01*
X48982Y532523D01*
X48929Y532506D01*
X48800Y532437D01*
X48668Y532374D01*
X48624Y532341D01*
X48575Y532314D01*
X48463Y532221D01*
X48345Y532133D01*
X48308Y532092D01*
X48266Y532057D01*
X48174Y531943D01*
X48076Y531834D01*
X48048Y531786D01*
X48013Y531743D01*
X47946Y531613D01*
X47872Y531487D01*
X47853Y531435D01*
X47828Y531386D01*
X47787Y531245D01*
X47739Y531107D01*
X47732Y531052D01*
X47716Y530999D01*
X47704Y530853D01*
X47685Y530708D01*
X47688Y530653D01*
X47683Y530597D01*
X47700Y530453D01*
X47710Y530306D01*
X47724Y530253D01*
X47730Y530198D01*
X47776Y530059D01*
X47813Y529917D01*
X47840Y529860D01*
X47855Y529815D01*
X47896Y529742D01*
X47955Y529617D01*
X48190Y529210D01*
X49973Y522557D01*
X49973Y515668D01*
X48190Y509015D01*
X44746Y503049D01*
X39876Y498179D01*
X33910Y494735D01*
X27257Y492952D01*
X20368Y492952D01*
X13715Y494735D01*
X13208Y495027D01*
X13074Y495088D01*
X12945Y495155D01*
X12891Y495170D01*
X12841Y495193D01*
X12698Y495226D01*
X12558Y495266D01*
X12502Y495271D01*
X12448Y495283D01*
X12302Y495287D01*
X12156Y495299D01*
X12101Y495293D01*
X12046Y495294D01*
X11902Y495269D01*
X11757Y495252D01*
X11704Y495235D01*
X11649Y495226D01*
X11513Y495173D01*
X11374Y495128D01*
X11325Y495100D01*
X11274Y495080D01*
X11151Y495002D01*
X11023Y494930D01*
X10981Y494893D01*
X10934Y494864D01*
X10829Y494762D01*
X10718Y494666D01*
X10684Y494623D01*
X10645Y494584D01*
X10561Y494464D01*
X10472Y494348D01*
X10447Y494299D01*
X10415Y494253D01*
X10358Y494119D01*
X10292Y493988D01*
X10278Y493934D01*
X10256Y493883D01*
X10226Y493740D01*
X10188Y493599D01*
X10183Y493536D01*
X10173Y493489D01*
X10172Y493406D01*
X10161Y493268D01*
X10161Y336550D01*
X10163Y336532D01*
X10161Y336514D01*
X10182Y336332D01*
X10201Y336149D01*
X10206Y336132D01*
X10208Y336115D01*
X10265Y335940D01*
X10319Y335764D01*
X10327Y335749D01*
X10333Y335732D01*
X10423Y335572D01*
X10511Y335410D01*
X10522Y335397D01*
X10531Y335381D01*
X10651Y335242D01*
X10768Y335101D01*
X10782Y335090D01*
X10794Y335077D01*
X10939Y334964D01*
X11082Y334849D01*
X11098Y334841D01*
X11112Y334830D01*
X11277Y334748D01*
X11439Y334663D01*
X11456Y334658D01*
X11472Y334650D01*
X11651Y334603D01*
X11826Y334552D01*
X11844Y334550D01*
X11861Y334546D01*
X12192Y334519D01*
X68644Y334519D01*
X68661Y334521D01*
X68679Y334519D01*
X68861Y334540D01*
X69044Y334559D01*
X69061Y334564D01*
X69079Y334566D01*
X69253Y334623D01*
X69429Y334677D01*
X69445Y334685D01*
X69462Y334691D01*
X69622Y334781D01*
X69783Y334869D01*
X69797Y334880D01*
X69812Y334889D01*
X69952Y335009D01*
X70092Y335126D01*
X70104Y335140D01*
X70117Y335152D01*
X70230Y335297D01*
X70345Y335440D01*
X70353Y335456D01*
X70364Y335470D01*
X70446Y335635D01*
X70530Y335797D01*
X70535Y335814D01*
X70543Y335831D01*
X70591Y336009D01*
X70642Y336184D01*
X70643Y336202D01*
X70648Y336219D01*
X70675Y336550D01*
X70675Y410990D01*
X71758Y413604D01*
X81031Y422877D01*
X81044Y422894D01*
X81061Y422908D01*
X81143Y423013D01*
X82301Y424148D01*
X82307Y424155D01*
X82316Y424162D01*
X83310Y425156D01*
X84615Y425682D01*
X84623Y425686D01*
X84634Y425689D01*
X85932Y426227D01*
X87338Y426213D01*
X87347Y426214D01*
X87359Y426213D01*
X88957Y426213D01*
X89155Y426194D01*
X89932Y426187D01*
X89973Y426190D01*
X90014Y426187D01*
X90174Y426208D01*
X90333Y426223D01*
X90372Y426234D01*
X90414Y426240D01*
X90681Y426325D01*
X90719Y426337D01*
X90723Y426339D01*
X90730Y426341D01*
X92038Y426883D01*
X95160Y426883D01*
X98044Y425689D01*
X99973Y423759D01*
X99980Y423754D01*
X99986Y423747D01*
X100135Y423626D01*
X100285Y423504D01*
X100293Y423500D01*
X100300Y423494D01*
X100470Y423406D01*
X100640Y423316D01*
X100649Y423313D01*
X100657Y423309D01*
X100841Y423256D01*
X101026Y423201D01*
X101035Y423200D01*
X101044Y423197D01*
X101235Y423182D01*
X101427Y423164D01*
X101436Y423165D01*
X101445Y423165D01*
X101634Y423187D01*
X101828Y423208D01*
X101836Y423210D01*
X101845Y423211D01*
X102027Y423271D01*
X102211Y423329D01*
X102219Y423334D01*
X102228Y423336D01*
X102396Y423431D01*
X102564Y423524D01*
X102570Y423530D01*
X102578Y423534D01*
X102724Y423660D01*
X102871Y423785D01*
X102876Y423792D01*
X102883Y423797D01*
X103000Y423949D01*
X103120Y424100D01*
X103124Y424108D01*
X103130Y424115D01*
X103215Y424288D01*
X103303Y424459D01*
X103305Y424468D01*
X103309Y424476D01*
X103359Y424662D01*
X103411Y424847D01*
X103411Y424856D01*
X103414Y424865D01*
X103441Y425196D01*
X103441Y477463D01*
X104369Y479704D01*
X142596Y517931D01*
X144837Y518859D01*
X165608Y518859D01*
X165635Y518862D01*
X165662Y518860D01*
X165835Y518882D01*
X166009Y518899D01*
X166035Y518907D01*
X166061Y518910D01*
X166227Y518966D01*
X166394Y519017D01*
X166418Y519030D01*
X166443Y519039D01*
X166594Y519126D01*
X166748Y519209D01*
X166769Y519226D01*
X166792Y519240D01*
X166991Y519409D01*
X169889Y520609D01*
X173011Y520609D01*
X175895Y519415D01*
X178102Y517207D01*
X179297Y514323D01*
X179297Y511202D01*
X178102Y508318D01*
X175895Y506110D01*
X173011Y504916D01*
X169889Y504916D01*
X167002Y506112D01*
X166869Y506215D01*
X166733Y506326D01*
X166710Y506338D01*
X166688Y506355D01*
X166532Y506433D01*
X166378Y506514D01*
X166352Y506522D01*
X166328Y506534D01*
X166159Y506580D01*
X165992Y506629D01*
X165965Y506632D01*
X165939Y506639D01*
X165608Y506666D01*
X149417Y506666D01*
X149390Y506663D01*
X149363Y506665D01*
X149190Y506643D01*
X149016Y506626D01*
X148991Y506618D01*
X148964Y506615D01*
X148798Y506559D01*
X148631Y506508D01*
X148608Y506495D01*
X148582Y506486D01*
X148431Y506399D01*
X148277Y506316D01*
X148257Y506299D01*
X148233Y506286D01*
X147980Y506071D01*
X116229Y474320D01*
X116212Y474299D01*
X116192Y474281D01*
X116085Y474143D01*
X115974Y474008D01*
X115962Y473984D01*
X115945Y473963D01*
X115867Y473806D01*
X115785Y473652D01*
X115778Y473627D01*
X115766Y473603D01*
X115720Y473433D01*
X115671Y473266D01*
X115668Y473240D01*
X115661Y473214D01*
X115634Y472883D01*
X115634Y469831D01*
X115636Y469817D01*
X115634Y469804D01*
X115655Y469618D01*
X115674Y469430D01*
X115678Y469417D01*
X115680Y469404D01*
X115737Y469224D01*
X115792Y469045D01*
X115799Y469033D01*
X115803Y469021D01*
X115894Y468856D01*
X115984Y468691D01*
X115993Y468681D01*
X115999Y468669D01*
X116122Y468525D01*
X116242Y468382D01*
X116252Y468373D01*
X116261Y468363D01*
X116409Y468247D01*
X116556Y468129D01*
X116567Y468123D01*
X116578Y468115D01*
X116747Y468030D01*
X116913Y467944D01*
X116926Y467940D01*
X116938Y467934D01*
X117120Y467884D01*
X117300Y467833D01*
X117313Y467831D01*
X117326Y467828D01*
X117513Y467815D01*
X117701Y467800D01*
X117714Y467801D01*
X117728Y467800D01*
X117913Y467825D01*
X118101Y467847D01*
X118114Y467851D01*
X118127Y467852D01*
X118443Y467954D01*
X119089Y468222D01*
X120095Y468222D01*
X120126Y468225D01*
X120158Y468223D01*
X120327Y468245D01*
X120496Y468262D01*
X120526Y468271D01*
X120557Y468275D01*
X120873Y468376D01*
X122713Y469139D01*
X142892Y469139D01*
X142914Y469141D01*
X142936Y469139D01*
X143114Y469161D01*
X143292Y469179D01*
X143314Y469185D01*
X143336Y469188D01*
X143506Y469244D01*
X143677Y469297D01*
X143697Y469307D01*
X143718Y469314D01*
X143874Y469403D01*
X144031Y469489D01*
X144048Y469503D01*
X144068Y469514D01*
X144203Y469632D01*
X144341Y469746D01*
X144355Y469764D01*
X144371Y469778D01*
X144481Y469921D01*
X144593Y470060D01*
X144603Y470080D01*
X144617Y470097D01*
X144768Y470393D01*
X145748Y472757D01*
X147955Y474965D01*
X150839Y476159D01*
X153961Y476159D01*
X156845Y474965D01*
X159052Y472757D01*
X160247Y469873D01*
X160247Y469048D01*
X160248Y469039D01*
X160247Y469030D01*
X160268Y468835D01*
X160287Y468647D01*
X160289Y468639D01*
X160290Y468630D01*
X160349Y468445D01*
X160405Y468262D01*
X160409Y468254D01*
X160412Y468246D01*
X160505Y468076D01*
X160597Y467908D01*
X160602Y467901D01*
X160607Y467893D01*
X160731Y467746D01*
X160854Y467599D01*
X160861Y467593D01*
X160867Y467586D01*
X161019Y467467D01*
X161168Y467347D01*
X161176Y467342D01*
X161183Y467337D01*
X161356Y467249D01*
X161525Y467161D01*
X161534Y467159D01*
X161542Y467154D01*
X161728Y467103D01*
X161912Y467050D01*
X161921Y467049D01*
X161930Y467046D01*
X162123Y467032D01*
X162314Y467017D01*
X162322Y467018D01*
X162331Y467017D01*
X162524Y467041D01*
X162713Y467064D01*
X162722Y467066D01*
X162731Y467068D01*
X162913Y467129D01*
X163096Y467188D01*
X163104Y467193D01*
X163112Y467196D01*
X163279Y467292D01*
X163447Y467386D01*
X163454Y467392D01*
X163461Y467397D01*
X163714Y467611D01*
X194571Y498468D01*
X196571Y500469D01*
X198812Y501397D01*
X214211Y501397D01*
X214215Y501397D01*
X214220Y501397D01*
X214413Y501417D01*
X214611Y501437D01*
X214616Y501438D01*
X214620Y501438D01*
X214806Y501496D01*
X214996Y501555D01*
X215000Y501557D01*
X215004Y501558D01*
X215176Y501652D01*
X215350Y501747D01*
X215354Y501749D01*
X215358Y501752D01*
X215509Y501879D01*
X215659Y502004D01*
X215662Y502008D01*
X215666Y502011D01*
X215788Y502164D01*
X215912Y502318D01*
X215914Y502322D01*
X215917Y502325D01*
X216007Y502501D01*
X216097Y502675D01*
X216099Y502680D01*
X216101Y502684D01*
X216154Y502872D01*
X216209Y503062D01*
X216209Y503067D01*
X216210Y503071D01*
X216225Y503259D01*
X216242Y503464D01*
X216241Y503468D01*
X216241Y503472D01*
X216218Y503665D01*
X216195Y503863D01*
X216193Y503868D01*
X216193Y503872D01*
X216133Y504053D01*
X216070Y504246D01*
X216068Y504250D01*
X216066Y504254D01*
X215969Y504425D01*
X215872Y504597D01*
X215869Y504600D01*
X215867Y504604D01*
X215737Y504753D01*
X215609Y504901D01*
X215605Y504904D01*
X215602Y504908D01*
X215446Y505028D01*
X215291Y505148D01*
X215287Y505150D01*
X215283Y505153D01*
X214988Y505305D01*
X213043Y506110D01*
X210835Y508318D01*
X209641Y511202D01*
X209641Y514323D01*
X210835Y517207D01*
X213043Y519415D01*
X215927Y520609D01*
X219048Y520609D01*
X221936Y519413D01*
X222069Y519310D01*
X222204Y519199D01*
X222228Y519187D01*
X222249Y519170D01*
X222406Y519092D01*
X222560Y519010D01*
X222585Y519003D01*
X222610Y518991D01*
X222779Y518945D01*
X222946Y518896D01*
X222972Y518893D01*
X222998Y518886D01*
X223329Y518859D01*
X229813Y518859D01*
X232054Y517931D01*
X238531Y511454D01*
X239459Y509213D01*
X239459Y497580D01*
X238531Y495339D01*
X233324Y490131D01*
X231083Y489203D01*
X203392Y489203D01*
X203365Y489201D01*
X203338Y489203D01*
X203165Y489181D01*
X202991Y489163D01*
X202966Y489156D01*
X202939Y489152D01*
X202773Y489097D01*
X202606Y489045D01*
X202583Y489032D01*
X202557Y489024D01*
X202406Y488937D01*
X202252Y488853D01*
X202232Y488836D01*
X202208Y488823D01*
X201955Y488608D01*
X152742Y439395D01*
X152725Y439374D01*
X152704Y439356D01*
X152597Y439218D01*
X152487Y439083D01*
X152474Y439059D01*
X152458Y439038D01*
X152380Y438881D01*
X152298Y438727D01*
X152290Y438702D01*
X152278Y438678D01*
X152233Y438508D01*
X152183Y438341D01*
X152181Y438315D01*
X152174Y438289D01*
X152147Y437958D01*
X152147Y351917D01*
X152149Y351890D01*
X152147Y351863D01*
X152169Y351689D01*
X152187Y351516D01*
X152194Y351490D01*
X152198Y351464D01*
X152253Y351298D01*
X152305Y351131D01*
X152318Y351107D01*
X152326Y351082D01*
X152413Y350930D01*
X152497Y350777D01*
X152514Y350757D01*
X152527Y350733D01*
X152696Y350534D01*
X153897Y347636D01*
X153897Y344514D01*
X152702Y341630D01*
X150495Y339423D01*
X148090Y338427D01*
X148086Y338425D01*
X148081Y338423D01*
X147909Y338330D01*
X147735Y338236D01*
X147731Y338234D01*
X147727Y338231D01*
X147579Y338107D01*
X147424Y337980D01*
X147422Y337977D01*
X147418Y337974D01*
X147295Y337821D01*
X147171Y337667D01*
X147169Y337663D01*
X147166Y337660D01*
X147075Y337485D01*
X146984Y337311D01*
X146982Y337307D01*
X146980Y337303D01*
X146926Y337113D01*
X146871Y336924D01*
X146870Y336920D01*
X146869Y336916D01*
X146853Y336718D01*
X146836Y336523D01*
X146836Y336519D01*
X146836Y336514D01*
X146859Y336317D01*
X146881Y336123D01*
X146882Y336119D01*
X146883Y336115D01*
X146945Y335926D01*
X147004Y335740D01*
X147006Y335736D01*
X147008Y335732D01*
X147105Y335559D01*
X147201Y335388D01*
X147203Y335385D01*
X147206Y335381D01*
X147334Y335232D01*
X147462Y335083D01*
X147466Y335080D01*
X147469Y335077D01*
X147621Y334958D01*
X147779Y334834D01*
X147784Y334832D01*
X147787Y334830D01*
X147962Y334743D01*
X148139Y334654D01*
X148143Y334652D01*
X148147Y334650D01*
X148340Y334599D01*
X148528Y334547D01*
X148532Y334547D01*
X148536Y334546D01*
X148867Y334519D01*
X190663Y334519D01*
X190671Y334520D01*
X190680Y334519D01*
X190874Y334540D01*
X191063Y334559D01*
X191072Y334561D01*
X191081Y334562D01*
X191265Y334620D01*
X191448Y334677D01*
X191456Y334681D01*
X191464Y334684D01*
X191633Y334777D01*
X191802Y334869D01*
X191809Y334874D01*
X191817Y334879D01*
X191964Y335003D01*
X192111Y335126D01*
X192117Y335133D01*
X192124Y335139D01*
X192243Y335290D01*
X192364Y335440D01*
X192368Y335448D01*
X192373Y335455D01*
X192461Y335628D01*
X192549Y335797D01*
X192552Y335806D01*
X192556Y335814D01*
X192608Y336000D01*
X192661Y336184D01*
X192661Y336193D01*
X192664Y336202D01*
X192678Y336395D01*
X192693Y336586D01*
X192692Y336594D01*
X192693Y336603D01*
X192669Y336796D01*
X192647Y336985D01*
X192644Y336994D01*
X192643Y337003D01*
X192581Y337186D01*
X192522Y337368D01*
X192517Y337376D01*
X192514Y337384D01*
X192418Y337551D01*
X192324Y337719D01*
X192318Y337726D01*
X192314Y337733D01*
X192099Y337986D01*
X185991Y344094D01*
X185991Y354406D01*
X193282Y361697D01*
X203593Y361697D01*
X210884Y354406D01*
X210884Y344094D01*
X204776Y337986D01*
X204770Y337979D01*
X204764Y337974D01*
X204643Y337824D01*
X204521Y337675D01*
X204517Y337667D01*
X204511Y337660D01*
X204423Y337490D01*
X204332Y337319D01*
X204330Y337311D01*
X204326Y337303D01*
X204273Y337118D01*
X204218Y336933D01*
X204217Y336924D01*
X204214Y336916D01*
X204199Y336724D01*
X204181Y336532D01*
X204182Y336523D01*
X204182Y336514D01*
X204204Y336325D01*
X204225Y336132D01*
X204227Y336123D01*
X204228Y336115D01*
X204288Y335933D01*
X204346Y335748D01*
X204350Y335740D01*
X204353Y335732D01*
X204448Y335563D01*
X204541Y335396D01*
X204547Y335389D01*
X204551Y335381D01*
X204677Y335235D01*
X204801Y335089D01*
X204809Y335083D01*
X204814Y335077D01*
X204966Y334959D01*
X205117Y334839D01*
X205125Y334835D01*
X205132Y334830D01*
X205305Y334744D01*
X205476Y334657D01*
X205485Y334654D01*
X205493Y334650D01*
X205679Y334600D01*
X205864Y334549D01*
X205873Y334548D01*
X205882Y334546D01*
X206212Y334519D01*
X206693Y334519D01*
X206720Y334521D01*
X206746Y334519D01*
X206920Y334541D01*
X207094Y334559D01*
X207119Y334567D01*
X207146Y334570D01*
X207311Y334626D01*
X207478Y334677D01*
X207502Y334690D01*
X207527Y334698D01*
X207679Y334785D01*
X207833Y334869D01*
X207853Y334886D01*
X207876Y334899D01*
X208129Y335114D01*
X208280Y335265D01*
X211164Y336459D01*
X214286Y336459D01*
X217170Y335265D01*
X217321Y335114D01*
X217341Y335097D01*
X217359Y335077D01*
X217497Y334969D01*
X217632Y334859D01*
X217656Y334846D01*
X217677Y334830D01*
X217834Y334752D01*
X217988Y334670D01*
X218013Y334662D01*
X218038Y334650D01*
X218207Y334605D01*
X218374Y334555D01*
X218400Y334553D01*
X218426Y334546D01*
X218757Y334519D01*
X219393Y334519D01*
X219410Y334521D01*
X219428Y334519D01*
X219610Y334540D01*
X219793Y334559D01*
X219810Y334564D01*
X219828Y334566D01*
X220002Y334623D01*
X220178Y334677D01*
X220194Y334685D01*
X220211Y334691D01*
X220371Y334781D01*
X220532Y334869D01*
X220546Y334880D01*
X220561Y334889D01*
X220701Y335009D01*
X220841Y335126D01*
X220853Y335140D01*
X220866Y335152D01*
X220979Y335297D01*
X221094Y335440D01*
X221102Y335456D01*
X221113Y335470D01*
X221195Y335635D01*
X221279Y335797D01*
X221284Y335814D01*
X221292Y335831D01*
X221340Y336009D01*
X221391Y336184D01*
X221392Y336202D01*
X221397Y336219D01*
X221424Y336550D01*
X221424Y348774D01*
X222275Y350828D01*
X230182Y358736D01*
X230188Y358743D01*
X230195Y358748D01*
X230315Y358898D01*
X230437Y359047D01*
X230441Y359055D01*
X230447Y359062D01*
X230535Y359232D01*
X230626Y359403D01*
X230628Y359412D01*
X230632Y359419D01*
X230686Y359604D01*
X230741Y359789D01*
X230741Y359798D01*
X230744Y359806D01*
X230759Y359998D01*
X230777Y360190D01*
X230776Y360199D01*
X230777Y360208D01*
X230754Y360397D01*
X230734Y360590D01*
X230731Y360599D01*
X230730Y360607D01*
X230670Y360789D01*
X230612Y360974D01*
X230608Y360982D01*
X230605Y360990D01*
X230510Y361159D01*
X230417Y361326D01*
X230411Y361333D01*
X230407Y361341D01*
X230281Y361487D01*
X230157Y361633D01*
X230150Y361639D01*
X230144Y361646D01*
X229992Y361763D01*
X229841Y361883D01*
X229833Y361887D01*
X229826Y361892D01*
X229654Y361978D01*
X229482Y362065D01*
X229473Y362068D01*
X229465Y362072D01*
X229279Y362122D01*
X229094Y362173D01*
X229085Y362174D01*
X229076Y362176D01*
X228746Y362203D01*
X218682Y362203D01*
X211391Y369494D01*
X211391Y379806D01*
X218682Y387097D01*
X228993Y387097D01*
X236284Y379806D01*
X236284Y369494D01*
X232643Y365854D01*
X232641Y365850D01*
X232637Y365847D01*
X232513Y365694D01*
X232388Y365542D01*
X232386Y365538D01*
X232383Y365535D01*
X232292Y365360D01*
X232200Y365186D01*
X232198Y365182D01*
X232196Y365178D01*
X232140Y364987D01*
X232085Y364800D01*
X232085Y364796D01*
X232083Y364792D01*
X232067Y364599D01*
X232049Y364399D01*
X232049Y364395D01*
X232049Y364391D01*
X232070Y364201D01*
X232092Y363999D01*
X232093Y363995D01*
X232094Y363991D01*
X232154Y363805D01*
X232213Y363615D01*
X232216Y363612D01*
X232217Y363607D01*
X232314Y363433D01*
X232408Y363263D01*
X232411Y363260D01*
X232413Y363256D01*
X232540Y363108D01*
X232669Y362956D01*
X232672Y362953D01*
X232675Y362950D01*
X232828Y362830D01*
X232985Y362706D01*
X232989Y362704D01*
X232992Y362702D01*
X233166Y362614D01*
X233344Y362524D01*
X233348Y362523D01*
X233352Y362521D01*
X233538Y362470D01*
X233731Y362416D01*
X233736Y362416D01*
X233740Y362415D01*
X233936Y362401D01*
X234133Y362387D01*
X234137Y362387D01*
X234142Y362387D01*
X234338Y362413D01*
X234532Y362437D01*
X234537Y362439D01*
X234541Y362439D01*
X234857Y362541D01*
X235426Y362776D01*
X238125Y362776D01*
X238152Y362779D01*
X238179Y362777D01*
X238353Y362799D01*
X238526Y362816D01*
X238552Y362824D01*
X238578Y362827D01*
X238744Y362883D01*
X238911Y362934D01*
X238935Y362947D01*
X238960Y362956D01*
X239112Y363043D01*
X239265Y363126D01*
X239285Y363143D01*
X239309Y363156D01*
X239562Y363371D01*
X240030Y363840D01*
X242914Y365034D01*
X246036Y365034D01*
X248920Y363840D01*
X251127Y361632D01*
X252322Y358748D01*
X252322Y355627D01*
X251127Y352743D01*
X248920Y350535D01*
X246036Y349341D01*
X242914Y349341D01*
X239699Y350672D01*
X239678Y350679D01*
X239658Y350689D01*
X239486Y350737D01*
X239314Y350789D01*
X239292Y350791D01*
X239270Y350797D01*
X239091Y350810D01*
X238913Y350827D01*
X238891Y350825D01*
X238869Y350826D01*
X238691Y350804D01*
X238513Y350785D01*
X238491Y350779D01*
X238469Y350776D01*
X238300Y350719D01*
X238128Y350666D01*
X238109Y350655D01*
X238088Y350648D01*
X237933Y350558D01*
X237775Y350472D01*
X237758Y350458D01*
X237739Y350447D01*
X237486Y350232D01*
X233196Y345942D01*
X233179Y345922D01*
X233159Y345904D01*
X233052Y345766D01*
X232941Y345631D01*
X232929Y345607D01*
X232912Y345586D01*
X232834Y345429D01*
X232752Y345275D01*
X232745Y345250D01*
X232733Y345226D01*
X232687Y345056D01*
X232638Y344889D01*
X232635Y344863D01*
X232628Y344837D01*
X232601Y344506D01*
X232601Y336550D01*
X232603Y336532D01*
X232602Y336514D01*
X232623Y336332D01*
X232641Y336149D01*
X232646Y336132D01*
X232648Y336115D01*
X232705Y335940D01*
X232759Y335764D01*
X232768Y335749D01*
X232773Y335732D01*
X232864Y335572D01*
X232951Y335410D01*
X232962Y335397D01*
X232971Y335381D01*
X233091Y335242D01*
X233209Y335101D01*
X233223Y335090D01*
X233234Y335077D01*
X233379Y334964D01*
X233523Y334849D01*
X233538Y334841D01*
X233552Y334830D01*
X233717Y334748D01*
X233880Y334663D01*
X233897Y334658D01*
X233913Y334650D01*
X234091Y334603D01*
X234267Y334552D01*
X234285Y334550D01*
X234302Y334546D01*
X234632Y334519D01*
X244833Y334519D01*
X244864Y334522D01*
X244895Y334520D01*
X245065Y334542D01*
X245234Y334559D01*
X245263Y334568D01*
X245294Y334572D01*
X245610Y334673D01*
X246089Y334872D01*
X249211Y334872D01*
X249690Y334673D01*
X249719Y334664D01*
X249747Y334650D01*
X249912Y334606D01*
X250075Y334557D01*
X250106Y334554D01*
X250136Y334546D01*
X250467Y334519D01*
X277622Y334519D01*
X277640Y334521D01*
X277658Y334519D01*
X277840Y334540D01*
X278023Y334559D01*
X278040Y334564D01*
X278057Y334566D01*
X278232Y334623D01*
X278408Y334677D01*
X278423Y334685D01*
X278440Y334691D01*
X278600Y334781D01*
X278762Y334869D01*
X278775Y334880D01*
X278791Y334889D01*
X278930Y335009D01*
X279071Y335126D01*
X279082Y335140D01*
X279096Y335152D01*
X279208Y335297D01*
X279323Y335440D01*
X279331Y335456D01*
X279342Y335470D01*
X279424Y335635D01*
X279509Y335797D01*
X279514Y335814D01*
X279522Y335831D01*
X279569Y336009D01*
X279620Y336184D01*
X279622Y336202D01*
X279626Y336219D01*
X279653Y336550D01*
X279653Y342525D01*
X280144Y343710D01*
X280152Y343736D01*
X280164Y343760D01*
X280210Y343929D01*
X280261Y344096D01*
X280263Y344122D01*
X280270Y344148D01*
X280282Y344323D01*
X280299Y344496D01*
X280296Y344523D01*
X280298Y344550D01*
X280275Y344722D01*
X280257Y344897D01*
X280249Y344923D01*
X280246Y344949D01*
X280144Y345265D01*
X279653Y346450D01*
X279653Y356996D01*
X279651Y357022D01*
X279653Y357049D01*
X279631Y357223D01*
X279613Y357396D01*
X279606Y357422D01*
X279602Y357449D01*
X279547Y357614D01*
X279495Y357781D01*
X279482Y357805D01*
X279474Y357830D01*
X279387Y357982D01*
X279303Y358135D01*
X279286Y358156D01*
X279273Y358179D01*
X279058Y358432D01*
X276356Y361134D01*
X276339Y361148D01*
X276324Y361165D01*
X276183Y361276D01*
X276045Y361389D01*
X276025Y361400D01*
X276007Y361413D01*
X275847Y361494D01*
X275689Y361578D01*
X275668Y361584D01*
X275648Y361594D01*
X275474Y361642D01*
X275303Y361693D01*
X275281Y361695D01*
X275259Y361701D01*
X275081Y361713D01*
X274902Y361729D01*
X274880Y361727D01*
X274858Y361728D01*
X274680Y361705D01*
X274502Y361686D01*
X274481Y361679D01*
X274459Y361676D01*
X274143Y361574D01*
X271436Y360453D01*
X268314Y360453D01*
X265430Y361648D01*
X263223Y363855D01*
X262028Y366739D01*
X262028Y369861D01*
X263223Y372745D01*
X265677Y375199D01*
X265741Y375251D01*
X265744Y375255D01*
X265747Y375258D01*
X265869Y375410D01*
X265995Y375564D01*
X265997Y375568D01*
X266000Y375572D01*
X266086Y375738D01*
X266182Y375920D01*
X266183Y375925D01*
X266185Y375929D01*
X266239Y376115D01*
X266295Y376307D01*
X266295Y376312D01*
X266297Y376316D01*
X266313Y376511D01*
X266330Y376708D01*
X266329Y376713D01*
X266330Y376718D01*
X266307Y376912D01*
X266285Y377108D01*
X266283Y377113D01*
X266283Y377117D01*
X266221Y377305D01*
X266162Y377491D01*
X266159Y377496D01*
X266158Y377500D01*
X266060Y377673D01*
X265965Y377843D01*
X265962Y377847D01*
X265960Y377851D01*
X265830Y378001D01*
X265704Y378149D01*
X265700Y378152D01*
X265697Y378156D01*
X265541Y378276D01*
X265387Y378397D01*
X265382Y378399D01*
X265379Y378402D01*
X265201Y378490D01*
X265027Y378578D01*
X265022Y378579D01*
X265018Y378582D01*
X264826Y378633D01*
X264639Y378685D01*
X264634Y378685D01*
X264629Y378686D01*
X264299Y378713D01*
X256915Y378713D01*
X254674Y379641D01*
X244069Y390246D01*
X243141Y392487D01*
X243141Y395796D01*
X243138Y395822D01*
X243140Y395849D01*
X243118Y396023D01*
X243101Y396197D01*
X243093Y396222D01*
X243090Y396249D01*
X243034Y396414D01*
X242983Y396581D01*
X242970Y396605D01*
X242961Y396630D01*
X242874Y396782D01*
X242791Y396935D01*
X242774Y396956D01*
X242761Y396979D01*
X242591Y397179D01*
X241391Y400077D01*
X241391Y403198D01*
X242585Y406082D01*
X244793Y408290D01*
X247677Y409484D01*
X250798Y409484D01*
X253682Y408290D01*
X255890Y406082D01*
X256409Y404828D01*
X256416Y404816D01*
X256420Y404803D01*
X256510Y404639D01*
X256599Y404473D01*
X256608Y404463D01*
X256614Y404451D01*
X256736Y404308D01*
X256856Y404163D01*
X256866Y404154D01*
X256875Y404144D01*
X257022Y404028D01*
X257168Y403909D01*
X257180Y403903D01*
X257191Y403895D01*
X257358Y403809D01*
X257525Y403722D01*
X257538Y403718D01*
X257550Y403712D01*
X257731Y403662D01*
X257911Y403609D01*
X257925Y403608D01*
X257938Y403604D01*
X258126Y403590D01*
X258312Y403574D01*
X258326Y403576D01*
X258339Y403575D01*
X258526Y403598D01*
X258713Y403619D01*
X258725Y403623D01*
X258739Y403625D01*
X258917Y403685D01*
X259096Y403743D01*
X259108Y403749D01*
X259120Y403753D01*
X259283Y403847D01*
X259447Y403939D01*
X259458Y403948D01*
X259469Y403954D01*
X259722Y404169D01*
X260668Y405115D01*
X263552Y406309D01*
X264214Y406309D01*
X264241Y406312D01*
X264267Y406310D01*
X264441Y406332D01*
X264615Y406349D01*
X264640Y406357D01*
X264667Y406360D01*
X264833Y406416D01*
X265000Y406467D01*
X265023Y406480D01*
X265049Y406489D01*
X265200Y406576D01*
X265354Y406659D01*
X265374Y406676D01*
X265397Y406689D01*
X265650Y406904D01*
X266074Y407328D01*
X266102Y407339D01*
X268128Y408179D01*
X284048Y408179D01*
X284070Y408181D01*
X284092Y408179D01*
X284270Y408201D01*
X284448Y408219D01*
X284470Y408225D01*
X284492Y408228D01*
X284662Y408284D01*
X284833Y408337D01*
X284853Y408347D01*
X284874Y408354D01*
X285030Y408443D01*
X285187Y408529D01*
X285204Y408543D01*
X285224Y408554D01*
X285359Y408672D01*
X285497Y408786D01*
X285511Y408804D01*
X285527Y408818D01*
X285637Y408960D01*
X285749Y409100D01*
X285759Y409120D01*
X285773Y409138D01*
X285924Y409433D01*
X287035Y412115D01*
X289243Y414322D01*
X292127Y415517D01*
X295248Y415517D01*
X298132Y414322D01*
X300340Y412115D01*
X300584Y411524D01*
X300593Y411508D01*
X300598Y411491D01*
X300688Y411331D01*
X300775Y411169D01*
X300786Y411155D01*
X300795Y411140D01*
X300914Y411000D01*
X301031Y410859D01*
X301045Y410847D01*
X301056Y410834D01*
X301201Y410721D01*
X301344Y410605D01*
X301359Y410597D01*
X301373Y410586D01*
X301537Y410503D01*
X301700Y410418D01*
X301717Y410413D01*
X301733Y410405D01*
X301910Y410356D01*
X302086Y410305D01*
X302104Y410303D01*
X302122Y410299D01*
X302305Y410286D01*
X302488Y410270D01*
X302505Y410272D01*
X302523Y410271D01*
X302706Y410295D01*
X302888Y410315D01*
X302905Y410321D01*
X302922Y410323D01*
X303238Y410425D01*
X305175Y411227D01*
X331338Y411227D01*
X333579Y410299D01*
X340683Y403195D01*
X340815Y403087D01*
X340943Y402975D01*
X340973Y402957D01*
X340994Y402940D01*
X341070Y402900D01*
X341070Y402899D01*
X341735Y402148D01*
X341774Y402112D01*
X341820Y402058D01*
X342536Y401342D01*
X342602Y401209D01*
X342623Y401181D01*
X342636Y401157D01*
X342690Y401090D01*
X342801Y400943D01*
X367939Y372526D01*
X367978Y372490D01*
X368024Y372435D01*
X368740Y371720D01*
X368806Y371586D01*
X368827Y371559D01*
X368840Y371535D01*
X368871Y371497D01*
X368880Y371481D01*
X368897Y371461D01*
X369221Y370520D01*
X369243Y370472D01*
X369265Y370404D01*
X369653Y369468D01*
X369663Y369320D01*
X369671Y369286D01*
X369674Y369259D01*
X369699Y369177D01*
X369638Y368176D01*
X369640Y368123D01*
X369634Y368052D01*
X369634Y351917D01*
X369637Y351890D01*
X369635Y351863D01*
X369657Y351689D01*
X369674Y351516D01*
X369682Y351490D01*
X369685Y351464D01*
X369741Y351298D01*
X369792Y351131D01*
X369805Y351107D01*
X369814Y351082D01*
X369901Y350930D01*
X369984Y350777D01*
X370001Y350757D01*
X370014Y350733D01*
X370184Y350534D01*
X371384Y347636D01*
X371384Y344514D01*
X370190Y341630D01*
X367982Y339423D01*
X365098Y338228D01*
X361977Y338228D01*
X359093Y339423D01*
X356885Y341630D01*
X355691Y344514D01*
X355691Y347636D01*
X356887Y350523D01*
X356990Y350656D01*
X357101Y350792D01*
X357113Y350815D01*
X357130Y350837D01*
X357208Y350993D01*
X357290Y351147D01*
X357297Y351173D01*
X357309Y351197D01*
X357355Y351366D01*
X357404Y351533D01*
X357407Y351560D01*
X357414Y351586D01*
X357441Y351917D01*
X357441Y365221D01*
X357424Y365386D01*
X357414Y365552D01*
X357404Y365586D01*
X357401Y365622D01*
X357352Y365780D01*
X357309Y365941D01*
X357293Y365972D01*
X357283Y366006D01*
X357204Y366153D01*
X357130Y366301D01*
X357106Y366333D01*
X357091Y366360D01*
X357035Y366427D01*
X356931Y366567D01*
X332932Y393696D01*
X332893Y393732D01*
X332847Y393787D01*
X328195Y398438D01*
X328174Y398455D01*
X328157Y398476D01*
X328019Y398582D01*
X327884Y398693D01*
X327860Y398706D01*
X327839Y398722D01*
X327683Y398800D01*
X327528Y398882D01*
X327502Y398890D01*
X327478Y398902D01*
X327309Y398947D01*
X327142Y398997D01*
X327115Y398999D01*
X327089Y399006D01*
X326759Y399033D01*
X323405Y399033D01*
X323396Y399032D01*
X323387Y399033D01*
X323195Y399012D01*
X323004Y398993D01*
X322996Y398991D01*
X322987Y398990D01*
X322804Y398932D01*
X322619Y398875D01*
X322612Y398871D01*
X322603Y398868D01*
X322434Y398775D01*
X322265Y398683D01*
X322259Y398678D01*
X322251Y398673D01*
X322103Y398548D01*
X321956Y398426D01*
X321951Y398419D01*
X321944Y398413D01*
X321824Y398261D01*
X321704Y398112D01*
X321700Y398104D01*
X321694Y398097D01*
X321606Y397924D01*
X321518Y397755D01*
X321516Y397746D01*
X321512Y397738D01*
X321460Y397553D01*
X321407Y397368D01*
X321406Y397359D01*
X321404Y397350D01*
X321390Y397157D01*
X321374Y396966D01*
X321375Y396958D01*
X321374Y396949D01*
X321399Y396757D01*
X321421Y396567D01*
X321424Y396558D01*
X321425Y396549D01*
X321486Y396367D01*
X321546Y396184D01*
X321550Y396176D01*
X321553Y396168D01*
X321649Y396000D01*
X321744Y395833D01*
X321750Y395826D01*
X321754Y395819D01*
X321969Y395566D01*
X322565Y394970D01*
X323761Y392082D01*
X323782Y391915D01*
X323799Y391741D01*
X323807Y391716D01*
X323810Y391689D01*
X323866Y391523D01*
X323917Y391356D01*
X323930Y391333D01*
X323939Y391307D01*
X324026Y391156D01*
X324109Y391002D01*
X324126Y390982D01*
X324139Y390958D01*
X324354Y390705D01*
X336844Y378216D01*
X337772Y375975D01*
X337772Y326983D01*
X337774Y326966D01*
X337772Y326948D01*
X337793Y326766D01*
X337812Y326583D01*
X337817Y326566D01*
X337819Y326548D01*
X337876Y326374D01*
X337930Y326198D01*
X337938Y326182D01*
X337944Y326165D01*
X338034Y326005D01*
X338122Y325844D01*
X338133Y325830D01*
X338142Y325815D01*
X338262Y325675D01*
X338379Y325535D01*
X338393Y325523D01*
X338405Y325510D01*
X338550Y325397D01*
X338693Y325282D01*
X338709Y325274D01*
X338723Y325263D01*
X338888Y325181D01*
X339050Y325097D01*
X339067Y325092D01*
X339083Y325084D01*
X339262Y325036D01*
X339326Y325017D01*
X340977Y324333D01*
X342121Y323190D01*
X342740Y321696D01*
X342740Y310079D01*
X342121Y308585D01*
X341360Y307824D01*
X341348Y307810D01*
X341335Y307798D01*
X341221Y307655D01*
X341105Y307512D01*
X341096Y307497D01*
X341085Y307483D01*
X341002Y307319D01*
X340916Y307157D01*
X340911Y307140D01*
X340903Y307124D01*
X340854Y306947D01*
X340801Y306771D01*
X340800Y306753D01*
X340795Y306736D01*
X340781Y306553D01*
X340765Y306370D01*
X340767Y306352D01*
X340765Y306334D01*
X340788Y306152D01*
X340808Y305970D01*
X340814Y305952D01*
X340816Y305935D01*
X340874Y305761D01*
X340930Y305586D01*
X340938Y305570D01*
X340944Y305553D01*
X341036Y305394D01*
X341125Y305233D01*
X341136Y305220D01*
X341145Y305204D01*
X341360Y304951D01*
X342121Y304190D01*
X342740Y302696D01*
X342740Y296144D01*
X342742Y296119D01*
X342740Y296093D01*
X342762Y295918D01*
X342780Y295744D01*
X342787Y295719D01*
X342790Y295694D01*
X342846Y295527D01*
X342898Y295359D01*
X342910Y295336D01*
X342918Y295312D01*
X343006Y295159D01*
X343090Y295005D01*
X343106Y294985D01*
X343119Y294963D01*
X343235Y294830D01*
X343347Y294696D01*
X343367Y294680D01*
X343384Y294660D01*
X343644Y294454D01*
X344948Y293585D01*
X344973Y293572D01*
X344995Y293555D01*
X345151Y293477D01*
X345304Y293396D01*
X345330Y293388D01*
X345356Y293375D01*
X345524Y293330D01*
X345690Y293281D01*
X345717Y293278D01*
X345744Y293271D01*
X346075Y293244D01*
X390546Y293244D01*
X390610Y293250D01*
X390674Y293248D01*
X390810Y293270D01*
X390946Y293284D01*
X391008Y293303D01*
X391071Y293313D01*
X391200Y293362D01*
X391331Y293402D01*
X391388Y293432D01*
X391448Y293455D01*
X391565Y293528D01*
X391685Y293594D01*
X391735Y293635D01*
X391789Y293669D01*
X391929Y293797D01*
X391995Y293851D01*
X392011Y293871D01*
X392034Y293893D01*
X396176Y298353D01*
X396291Y298505D01*
X396412Y298663D01*
X396416Y298669D01*
X396419Y298674D01*
X396424Y298683D01*
X397220Y299480D01*
X397241Y299505D01*
X397272Y299534D01*
X398051Y300372D01*
X398107Y300405D01*
X398112Y300409D01*
X398117Y300412D01*
X398125Y300419D01*
X399165Y300850D01*
X399195Y300866D01*
X399234Y300880D01*
X400275Y301357D01*
X400338Y301365D01*
X400345Y301367D01*
X400351Y301368D01*
X400361Y301372D01*
X401487Y301372D01*
X401520Y301375D01*
X401562Y301373D01*
X402706Y301416D01*
X402768Y301399D01*
X402775Y301398D01*
X402780Y301397D01*
X402822Y301394D01*
X403098Y301372D01*
X403416Y301372D01*
X403442Y301374D01*
X403469Y301372D01*
X403643Y301394D01*
X403817Y301412D01*
X403842Y301419D01*
X403869Y301423D01*
X404034Y301478D01*
X404201Y301530D01*
X404225Y301543D01*
X404250Y301551D01*
X404402Y301638D01*
X404555Y301722D01*
X404576Y301739D01*
X404599Y301752D01*
X404799Y301921D01*
X407697Y303122D01*
X410818Y303122D01*
X413702Y301927D01*
X415910Y299720D01*
X417104Y296836D01*
X417104Y295275D01*
X417106Y295257D01*
X417105Y295239D01*
X417126Y295057D01*
X417144Y294874D01*
X417149Y294857D01*
X417151Y294840D01*
X417208Y294665D01*
X417262Y294489D01*
X417271Y294474D01*
X417276Y294457D01*
X417367Y294297D01*
X417454Y294135D01*
X417465Y294122D01*
X417474Y294106D01*
X417594Y293967D01*
X417712Y293826D01*
X417726Y293815D01*
X417737Y293802D01*
X417882Y293689D01*
X418026Y293574D01*
X418041Y293566D01*
X418055Y293555D01*
X418220Y293473D01*
X418383Y293388D01*
X418400Y293383D01*
X418416Y293375D01*
X418594Y293328D01*
X418770Y293277D01*
X418788Y293275D01*
X418805Y293271D01*
X419135Y293244D01*
X430959Y293244D01*
X438301Y285901D01*
X438322Y285884D01*
X438339Y285864D01*
X438477Y285757D01*
X438613Y285646D01*
X438636Y285634D01*
X438657Y285617D01*
X438814Y285539D01*
X438968Y285458D01*
X438994Y285450D01*
X439018Y285438D01*
X439187Y285392D01*
X439354Y285343D01*
X439381Y285340D01*
X439407Y285333D01*
X439738Y285306D01*
X448058Y285306D01*
X448076Y285308D01*
G37*
%LPC*%
G36*
X215179Y18955D02*
X215179Y18955D01*
X210914Y20722D01*
X207649Y23986D01*
X205778Y28504D01*
X205755Y28547D01*
X205738Y28594D01*
X205713Y28636D01*
X205703Y28662D01*
X205652Y28740D01*
X205588Y28859D01*
X205557Y28897D01*
X205531Y28939D01*
X205496Y28977D01*
X205483Y28999D01*
X205420Y29062D01*
X205332Y29169D01*
X205293Y29200D01*
X205260Y29237D01*
X205217Y29269D01*
X205200Y29286D01*
X205130Y29333D01*
X205019Y29423D01*
X204975Y29446D01*
X204935Y29475D01*
X204885Y29499D01*
X204866Y29511D01*
X204791Y29543D01*
X204663Y29610D01*
X204615Y29624D01*
X204570Y29645D01*
X204515Y29658D01*
X204495Y29666D01*
X204416Y29682D01*
X204276Y29723D01*
X204227Y29727D01*
X204179Y29739D01*
X204121Y29741D01*
X204100Y29745D01*
X204020Y29745D01*
X203875Y29758D01*
X203826Y29752D01*
X203776Y29754D01*
X203720Y29745D01*
X203698Y29745D01*
X203617Y29729D01*
X203475Y29712D01*
X203428Y29697D01*
X203379Y29689D01*
X203326Y29670D01*
X203303Y29665D01*
X203226Y29632D01*
X203092Y29589D01*
X203048Y29565D01*
X203002Y29548D01*
X202956Y29519D01*
X202932Y29509D01*
X202860Y29460D01*
X202740Y29393D01*
X202703Y29361D01*
X202661Y29335D01*
X202622Y29299D01*
X202599Y29283D01*
X202535Y29217D01*
X202434Y29131D01*
X202404Y29092D01*
X202368Y29058D01*
X202339Y29018D01*
X202317Y28995D01*
X202264Y28914D01*
X202186Y28814D01*
X202164Y28770D01*
X202135Y28729D01*
X202116Y28687D01*
X202097Y28658D01*
X202048Y28539D01*
X202005Y28454D01*
X201992Y28407D01*
X201972Y28361D01*
X201970Y28354D01*
X201969Y28351D01*
X201430Y26690D01*
X200709Y25276D01*
X199777Y23993D01*
X198655Y22871D01*
X197371Y21938D01*
X195957Y21218D01*
X194587Y20773D01*
X194587Y37632D01*
X194585Y37650D01*
X194586Y37667D01*
X194565Y37849D01*
X194547Y38032D01*
X194542Y38049D01*
X194540Y38067D01*
X194483Y38242D01*
X194429Y38417D01*
X194420Y38433D01*
X194415Y38450D01*
X194324Y38610D01*
X194237Y38771D01*
X194226Y38785D01*
X194217Y38801D01*
X194097Y38940D01*
X193979Y39081D01*
X193965Y39092D01*
X193954Y39105D01*
X193809Y39218D01*
X193665Y39333D01*
X193650Y39341D01*
X193636Y39352D01*
X193471Y39434D01*
X193443Y39448D01*
X193388Y39546D01*
X193301Y39708D01*
X193289Y39721D01*
X193281Y39737D01*
X193160Y39876D01*
X193043Y40017D01*
X193029Y40028D01*
X193017Y40042D01*
X192872Y40154D01*
X192729Y40269D01*
X192713Y40277D01*
X192699Y40288D01*
X192534Y40370D01*
X192372Y40455D01*
X192355Y40460D01*
X192339Y40468D01*
X192161Y40515D01*
X191985Y40566D01*
X191967Y40568D01*
X191950Y40572D01*
X191619Y40599D01*
X182007Y40599D01*
X182007Y46433D01*
X182255Y48001D01*
X182745Y49510D01*
X183466Y50923D01*
X183939Y51575D01*
X183965Y51619D01*
X183997Y51659D01*
X184066Y51792D01*
X184142Y51922D01*
X184159Y51971D01*
X184182Y52016D01*
X184224Y52160D01*
X184273Y52303D01*
X184279Y52354D01*
X184294Y52403D01*
X184306Y52553D01*
X184326Y52702D01*
X184322Y52753D01*
X184326Y52804D01*
X184309Y52953D01*
X184299Y53104D01*
X184285Y53153D01*
X184279Y53204D01*
X184233Y53347D01*
X184193Y53492D01*
X184170Y53538D01*
X184155Y53587D01*
X184081Y53718D01*
X184013Y53852D01*
X183982Y53893D01*
X183957Y53937D01*
X183858Y54051D01*
X183766Y54170D01*
X183727Y54203D01*
X183694Y54242D01*
X183575Y54334D01*
X183461Y54432D01*
X183416Y54457D01*
X183375Y54489D01*
X183241Y54556D01*
X183109Y54630D01*
X183061Y54645D01*
X183015Y54668D01*
X182869Y54707D01*
X182726Y54754D01*
X182676Y54759D01*
X182626Y54773D01*
X182396Y54792D01*
X182326Y54800D01*
X182313Y54798D01*
X182295Y54800D01*
X181148Y54800D01*
X178533Y55883D01*
X159070Y75346D01*
X157987Y77960D01*
X157987Y109667D01*
X157985Y109684D01*
X157987Y109702D01*
X157966Y109884D01*
X157947Y110067D01*
X157942Y110084D01*
X157940Y110102D01*
X157883Y110276D01*
X157829Y110452D01*
X157821Y110468D01*
X157815Y110485D01*
X157725Y110645D01*
X157637Y110806D01*
X157626Y110820D01*
X157617Y110835D01*
X157497Y110975D01*
X157380Y111115D01*
X157366Y111127D01*
X157354Y111140D01*
X157209Y111253D01*
X157066Y111368D01*
X157050Y111376D01*
X157036Y111387D01*
X156871Y111469D01*
X156709Y111553D01*
X156692Y111558D01*
X156676Y111566D01*
X156497Y111614D01*
X156322Y111665D01*
X156304Y111666D01*
X156287Y111671D01*
X155956Y111698D01*
X155204Y111698D01*
X153710Y112317D01*
X152503Y113524D01*
X152496Y113529D01*
X152490Y113536D01*
X152340Y113657D01*
X152191Y113779D01*
X152183Y113783D01*
X152176Y113789D01*
X152006Y113877D01*
X151836Y113968D01*
X151827Y113970D01*
X151819Y113974D01*
X151635Y114027D01*
X151450Y114082D01*
X151441Y114083D01*
X151432Y114086D01*
X151241Y114101D01*
X151049Y114119D01*
X151040Y114118D01*
X151031Y114118D01*
X150842Y114096D01*
X150648Y114075D01*
X150640Y114073D01*
X150631Y114072D01*
X150449Y114012D01*
X150265Y113954D01*
X150257Y113949D01*
X150248Y113947D01*
X150081Y113852D01*
X149912Y113759D01*
X149905Y113753D01*
X149898Y113749D01*
X149753Y113624D01*
X149605Y113498D01*
X149600Y113491D01*
X149593Y113486D01*
X149476Y113335D01*
X149356Y113183D01*
X149352Y113175D01*
X149346Y113168D01*
X149261Y112997D01*
X149173Y112824D01*
X149171Y112815D01*
X149167Y112807D01*
X149117Y112621D01*
X149065Y112436D01*
X149065Y112427D01*
X149062Y112418D01*
X149035Y112088D01*
X149035Y109981D01*
X140144Y109981D01*
X140144Y118873D01*
X140802Y118873D01*
X140811Y118874D01*
X140820Y118873D01*
X141013Y118894D01*
X141203Y118913D01*
X141211Y118915D01*
X141220Y118916D01*
X141405Y118975D01*
X141588Y119031D01*
X141595Y119035D01*
X141604Y119038D01*
X141772Y119131D01*
X141942Y119223D01*
X141948Y119228D01*
X141956Y119233D01*
X142103Y119357D01*
X142251Y119480D01*
X142256Y119487D01*
X142263Y119493D01*
X142383Y119645D01*
X142503Y119794D01*
X142507Y119802D01*
X142513Y119809D01*
X142601Y119982D01*
X142689Y120151D01*
X142691Y120160D01*
X142695Y120168D01*
X142747Y120354D01*
X142800Y120538D01*
X142801Y120547D01*
X142803Y120556D01*
X142817Y120749D01*
X142833Y120940D01*
X142832Y120948D01*
X142833Y120957D01*
X142808Y121150D01*
X142786Y121339D01*
X142783Y121348D01*
X142782Y121357D01*
X142721Y121539D01*
X142661Y121722D01*
X142657Y121730D01*
X142654Y121738D01*
X142558Y121905D01*
X142463Y122073D01*
X142457Y122080D01*
X142453Y122087D01*
X142238Y122340D01*
X139925Y124653D01*
X137639Y126940D01*
X136556Y129554D01*
X136556Y138294D01*
X136553Y138320D01*
X136555Y138347D01*
X136533Y138521D01*
X136516Y138694D01*
X136508Y138720D01*
X136505Y138746D01*
X136449Y138912D01*
X136398Y139079D01*
X136385Y139103D01*
X136377Y139128D01*
X136289Y139280D01*
X136206Y139433D01*
X136189Y139454D01*
X136176Y139477D01*
X135961Y139730D01*
X130999Y144692D01*
X130978Y144709D01*
X130961Y144730D01*
X130823Y144837D01*
X130687Y144947D01*
X130664Y144960D01*
X130642Y144976D01*
X130486Y145054D01*
X130332Y145136D01*
X130306Y145144D01*
X130282Y145156D01*
X130113Y145201D01*
X129946Y145251D01*
X129919Y145253D01*
X129893Y145260D01*
X129562Y145287D01*
X123281Y145287D01*
X123273Y145286D01*
X123264Y145287D01*
X123072Y145266D01*
X122881Y145247D01*
X122872Y145245D01*
X122863Y145244D01*
X122681Y145186D01*
X122496Y145129D01*
X122488Y145125D01*
X122480Y145122D01*
X122311Y145029D01*
X122142Y144937D01*
X122135Y144932D01*
X122127Y144927D01*
X121980Y144803D01*
X121833Y144680D01*
X121827Y144673D01*
X121820Y144667D01*
X121701Y144516D01*
X121580Y144366D01*
X121576Y144358D01*
X121571Y144351D01*
X121483Y144178D01*
X121395Y144009D01*
X121392Y144000D01*
X121388Y143992D01*
X121336Y143803D01*
X121283Y143622D01*
X121283Y143613D01*
X121280Y143604D01*
X121266Y143411D01*
X121250Y143220D01*
X121252Y143212D01*
X121251Y143203D01*
X121275Y143010D01*
X121297Y142821D01*
X121300Y142812D01*
X121301Y142803D01*
X121363Y142620D01*
X121422Y142438D01*
X121427Y142430D01*
X121429Y142422D01*
X121526Y142255D01*
X121620Y142087D01*
X121626Y142080D01*
X121630Y142073D01*
X121845Y141820D01*
X125159Y138506D01*
X125159Y128194D01*
X117868Y120903D01*
X107557Y120903D01*
X100266Y128194D01*
X100266Y138506D01*
X103580Y141820D01*
X103586Y141827D01*
X103592Y141832D01*
X103713Y141982D01*
X103835Y142131D01*
X103839Y142139D01*
X103845Y142146D01*
X103933Y142316D01*
X104024Y142487D01*
X104026Y142495D01*
X104030Y142503D01*
X104083Y142688D01*
X104138Y142873D01*
X104139Y142882D01*
X104142Y142890D01*
X104157Y143081D01*
X104175Y143274D01*
X104174Y143283D01*
X104175Y143292D01*
X104152Y143481D01*
X104131Y143674D01*
X104129Y143683D01*
X104128Y143691D01*
X104068Y143873D01*
X104010Y144058D01*
X104006Y144066D01*
X104003Y144074D01*
X103908Y144243D01*
X103815Y144410D01*
X103809Y144417D01*
X103805Y144425D01*
X103679Y144571D01*
X103555Y144717D01*
X103548Y144723D01*
X103542Y144730D01*
X103390Y144847D01*
X103239Y144967D01*
X103231Y144971D01*
X103224Y144976D01*
X103051Y145062D01*
X102880Y145149D01*
X102871Y145152D01*
X102863Y145156D01*
X102677Y145206D01*
X102492Y145257D01*
X102483Y145258D01*
X102474Y145260D01*
X102144Y145287D01*
X79988Y145287D01*
X79961Y145285D01*
X79934Y145287D01*
X79760Y145265D01*
X79587Y145247D01*
X79561Y145240D01*
X79535Y145236D01*
X79369Y145181D01*
X79202Y145129D01*
X79178Y145116D01*
X79153Y145108D01*
X79001Y145021D01*
X78848Y144937D01*
X78828Y144920D01*
X78804Y144907D01*
X78551Y144692D01*
X69620Y135761D01*
X69603Y135741D01*
X69583Y135723D01*
X69476Y135585D01*
X69365Y135450D01*
X69353Y135426D01*
X69336Y135405D01*
X69258Y135248D01*
X69176Y135094D01*
X69169Y135069D01*
X69157Y135044D01*
X69111Y134875D01*
X69062Y134708D01*
X69059Y134682D01*
X69052Y134656D01*
X69025Y134325D01*
X69025Y111687D01*
X69028Y111656D01*
X69026Y111625D01*
X69048Y111455D01*
X69065Y111286D01*
X69074Y111257D01*
X69078Y111225D01*
X69180Y110910D01*
X69759Y109511D01*
X69759Y106389D01*
X68565Y103505D01*
X66357Y101298D01*
X63473Y100103D01*
X60352Y100103D01*
X57468Y101298D01*
X55260Y103505D01*
X54066Y106389D01*
X54066Y109511D01*
X54645Y110910D01*
X54654Y110939D01*
X54668Y110967D01*
X54712Y111132D01*
X54762Y111295D01*
X54765Y111326D01*
X54773Y111356D01*
X54800Y111687D01*
X54800Y120886D01*
X54798Y120899D01*
X54800Y120912D01*
X54779Y121099D01*
X54760Y121286D01*
X54756Y121299D01*
X54754Y121312D01*
X54697Y121492D01*
X54642Y121671D01*
X54635Y121683D01*
X54631Y121696D01*
X54539Y121860D01*
X54450Y122025D01*
X54441Y122035D01*
X54435Y122047D01*
X54313Y122190D01*
X54192Y122334D01*
X54182Y122343D01*
X54173Y122353D01*
X54025Y122469D01*
X53878Y122587D01*
X53867Y122593D01*
X53856Y122601D01*
X53687Y122686D01*
X53521Y122772D01*
X53508Y122776D01*
X53496Y122782D01*
X53315Y122832D01*
X53134Y122884D01*
X53121Y122885D01*
X53108Y122888D01*
X52920Y122901D01*
X52733Y122917D01*
X52720Y122915D01*
X52706Y122916D01*
X52519Y122891D01*
X52333Y122870D01*
X52320Y122866D01*
X52307Y122864D01*
X51991Y122762D01*
X49536Y121745D01*
X29839Y121745D01*
X25574Y123512D01*
X22309Y126776D01*
X20543Y131042D01*
X20543Y135658D01*
X22309Y139924D01*
X25574Y143188D01*
X30091Y145059D01*
X30133Y145082D01*
X30178Y145098D01*
X30222Y145124D01*
X30249Y145135D01*
X30327Y145186D01*
X30446Y145249D01*
X30483Y145280D01*
X30524Y145304D01*
X30563Y145340D01*
X30586Y145355D01*
X30649Y145417D01*
X30757Y145506D01*
X30787Y145543D01*
X30822Y145575D01*
X30855Y145620D01*
X30873Y145637D01*
X30921Y145708D01*
X31010Y145818D01*
X31032Y145861D01*
X31061Y145899D01*
X31085Y145951D01*
X31099Y145971D01*
X31130Y146047D01*
X31197Y146175D01*
X31211Y146221D01*
X31231Y146264D01*
X31245Y146321D01*
X31254Y146342D01*
X31270Y146422D01*
X31310Y146561D01*
X31315Y146609D01*
X31326Y146655D01*
X31328Y146714D01*
X31333Y146737D01*
X31333Y146818D01*
X31345Y146962D01*
X31340Y147010D01*
X31342Y147058D01*
X31332Y147116D01*
X31332Y147140D01*
X31316Y147220D01*
X31300Y147363D01*
X31285Y147408D01*
X31278Y147455D01*
X31257Y147509D01*
X31252Y147535D01*
X31220Y147612D01*
X31177Y147746D01*
X31153Y147788D01*
X31137Y147832D01*
X31107Y147880D01*
X31096Y147906D01*
X31047Y147978D01*
X30980Y148097D01*
X30949Y148134D01*
X30924Y148174D01*
X30887Y148214D01*
X30870Y148239D01*
X30804Y148303D01*
X30719Y148403D01*
X30681Y148433D01*
X30648Y148467D01*
X30606Y148497D01*
X30583Y148521D01*
X30501Y148574D01*
X30402Y148651D01*
X30359Y148673D01*
X30320Y148701D01*
X30276Y148720D01*
X30245Y148740D01*
X30126Y148790D01*
X30042Y148832D01*
X29996Y148845D01*
X29952Y148864D01*
X29943Y148867D01*
X29939Y148868D01*
X28278Y149408D01*
X26864Y150128D01*
X25580Y151061D01*
X24458Y152183D01*
X23526Y153466D01*
X22805Y154880D01*
X22360Y156251D01*
X39219Y156251D01*
X39237Y156252D01*
X39255Y156251D01*
X39437Y156272D01*
X39620Y156291D01*
X39637Y156296D01*
X39655Y156298D01*
X39695Y156311D01*
X39790Y156284D01*
X39808Y156282D01*
X39825Y156278D01*
X40156Y156251D01*
X57015Y156251D01*
X56570Y154880D01*
X55849Y153466D01*
X54917Y152183D01*
X53795Y151061D01*
X52511Y150128D01*
X51097Y149408D01*
X49436Y148868D01*
X49400Y148852D01*
X49356Y148841D01*
X49313Y148820D01*
X49267Y148806D01*
X49161Y148747D01*
X49067Y148706D01*
X49038Y148686D01*
X48994Y148664D01*
X48956Y148635D01*
X48914Y148612D01*
X48817Y148530D01*
X48738Y148475D01*
X48715Y148451D01*
X48674Y148420D01*
X48643Y148384D01*
X48606Y148353D01*
X48523Y148249D01*
X48460Y148183D01*
X48445Y148158D01*
X48408Y148117D01*
X48385Y148076D01*
X48355Y148038D01*
X48292Y147916D01*
X48246Y147843D01*
X48236Y147817D01*
X48208Y147768D01*
X48193Y147723D01*
X48171Y147680D01*
X48133Y147545D01*
X48103Y147466D01*
X48099Y147441D01*
X48080Y147386D01*
X48074Y147339D01*
X48061Y147293D01*
X48050Y147150D01*
X48037Y147069D01*
X48038Y147045D01*
X48030Y146987D01*
X48034Y146939D01*
X48030Y146891D01*
X48048Y146748D01*
X48050Y146667D01*
X48056Y146644D01*
X48060Y146585D01*
X48073Y146539D01*
X48079Y146492D01*
X48124Y146354D01*
X48143Y146275D01*
X48153Y146254D01*
X48169Y146197D01*
X48190Y146155D01*
X48205Y146110D01*
X48277Y145984D01*
X48311Y145909D01*
X48326Y145890D01*
X48351Y145839D01*
X48381Y145801D01*
X48405Y145760D01*
X48498Y145653D01*
X48548Y145584D01*
X48567Y145566D01*
X48601Y145523D01*
X48638Y145492D01*
X48669Y145456D01*
X48779Y145372D01*
X48845Y145311D01*
X48869Y145297D01*
X48909Y145263D01*
X48951Y145240D01*
X48988Y145211D01*
X49137Y145134D01*
X49189Y145103D01*
X49218Y145093D01*
X49261Y145069D01*
X49272Y145065D01*
X49284Y145059D01*
X53801Y143188D01*
X53929Y143060D01*
X53943Y143049D01*
X53954Y143035D01*
X54098Y142922D01*
X54240Y142805D01*
X54256Y142797D01*
X54270Y142786D01*
X54434Y142702D01*
X54596Y142617D01*
X54613Y142612D01*
X54629Y142603D01*
X54807Y142554D01*
X54982Y142502D01*
X55000Y142500D01*
X55017Y142495D01*
X55200Y142482D01*
X55383Y142465D01*
X55401Y142467D01*
X55418Y142466D01*
X55601Y142489D01*
X55783Y142509D01*
X55800Y142514D01*
X55818Y142516D01*
X55993Y142575D01*
X56167Y142630D01*
X56182Y142639D01*
X56200Y142645D01*
X56359Y142737D01*
X56519Y142825D01*
X56533Y142837D01*
X56548Y142846D01*
X56801Y143060D01*
X69884Y156143D01*
X72171Y158430D01*
X74785Y159513D01*
X134765Y159513D01*
X137379Y158430D01*
X149876Y145933D01*
X149883Y145925D01*
X150010Y145771D01*
X150014Y145768D01*
X150017Y145764D01*
X150168Y145642D01*
X150322Y145517D01*
X150327Y145515D01*
X150331Y145512D01*
X150504Y145421D01*
X150679Y145330D01*
X150683Y145329D01*
X150688Y145326D01*
X150876Y145272D01*
X151065Y145217D01*
X151070Y145216D01*
X151075Y145215D01*
X151271Y145199D01*
X151466Y145182D01*
X151471Y145182D01*
X151476Y145182D01*
X151671Y145205D01*
X151866Y145227D01*
X151871Y145228D01*
X151876Y145229D01*
X152064Y145290D01*
X152249Y145350D01*
X152254Y145352D01*
X152259Y145354D01*
X152430Y145450D01*
X152601Y145546D01*
X152605Y145549D01*
X152609Y145552D01*
X152757Y145679D01*
X152907Y145807D01*
X152910Y145811D01*
X152914Y145815D01*
X153033Y145969D01*
X153155Y146124D01*
X153158Y146129D01*
X153161Y146133D01*
X153248Y146308D01*
X153336Y146484D01*
X153338Y146489D01*
X153340Y146493D01*
X153392Y146685D01*
X153443Y146872D01*
X153443Y146877D01*
X153445Y146882D01*
X153472Y147213D01*
X153472Y148097D01*
X153645Y148743D01*
X153979Y149323D01*
X154452Y149796D01*
X155032Y150130D01*
X155678Y150303D01*
X160263Y150303D01*
X160263Y142481D01*
X160265Y142463D01*
X160264Y142445D01*
X160285Y142263D01*
X160303Y142080D01*
X160308Y142063D01*
X160310Y142045D01*
X160367Y141871D01*
X160421Y141695D01*
X160430Y141679D01*
X160435Y141663D01*
X160526Y141502D01*
X160613Y141341D01*
X160624Y141327D01*
X160633Y141312D01*
X160753Y141173D01*
X160871Y141032D01*
X160885Y141021D01*
X160896Y141007D01*
X161041Y140895D01*
X161184Y140780D01*
X161200Y140771D01*
X161214Y140760D01*
X161379Y140678D01*
X161542Y140594D01*
X161559Y140589D01*
X161575Y140581D01*
X161753Y140533D01*
X161929Y140483D01*
X161946Y140481D01*
X161964Y140477D01*
X162294Y140449D01*
X162699Y140449D01*
X162699Y140044D01*
X162701Y140027D01*
X162700Y140009D01*
X162721Y139827D01*
X162739Y139644D01*
X162745Y139627D01*
X162747Y139609D01*
X162804Y139434D01*
X162857Y139259D01*
X162866Y139243D01*
X162872Y139226D01*
X162962Y139066D01*
X163049Y138905D01*
X163061Y138891D01*
X163069Y138876D01*
X163190Y138736D01*
X163307Y138596D01*
X163321Y138584D01*
X163333Y138571D01*
X163478Y138458D01*
X163621Y138343D01*
X163637Y138335D01*
X163651Y138324D01*
X163816Y138242D01*
X163978Y138158D01*
X163995Y138153D01*
X164011Y138145D01*
X164189Y138097D01*
X164365Y138046D01*
X164383Y138045D01*
X164400Y138040D01*
X164731Y138013D01*
X173553Y138013D01*
X173553Y134428D01*
X173337Y133622D01*
X173323Y133533D01*
X173298Y133445D01*
X173290Y133334D01*
X173272Y133225D01*
X173275Y133134D01*
X173269Y133043D01*
X173283Y132933D01*
X173287Y132823D01*
X173308Y132734D01*
X173319Y132644D01*
X173355Y132539D01*
X173380Y132431D01*
X173418Y132349D01*
X173447Y132262D01*
X173503Y132166D01*
X173549Y132066D01*
X173603Y131992D01*
X173648Y131913D01*
X173738Y131808D01*
X173787Y131741D01*
X173822Y131708D01*
X173863Y131660D01*
X174458Y131065D01*
X174639Y130629D01*
X174649Y130610D01*
X174656Y130588D01*
X174745Y130432D01*
X174829Y130274D01*
X174843Y130257D01*
X174854Y130238D01*
X174971Y130102D01*
X175085Y129964D01*
X175103Y129950D01*
X175117Y129933D01*
X175259Y129823D01*
X175398Y129710D01*
X175418Y129700D01*
X175436Y129686D01*
X175596Y129606D01*
X175755Y129523D01*
X175776Y129517D01*
X175796Y129507D01*
X175969Y129460D01*
X176141Y129410D01*
X176163Y129408D01*
X176185Y129402D01*
X176516Y129375D01*
X180906Y129375D01*
X181029Y129338D01*
X181060Y129335D01*
X181090Y129327D01*
X181421Y129300D01*
X188256Y129300D01*
X189750Y128681D01*
X190714Y127717D01*
X190833Y127619D01*
X190949Y127515D01*
X190989Y127492D01*
X191025Y127462D01*
X191162Y127390D01*
X191296Y127311D01*
X191340Y127295D01*
X191381Y127274D01*
X191529Y127229D01*
X191676Y127178D01*
X191722Y127172D01*
X191767Y127159D01*
X191921Y127145D01*
X192075Y127124D01*
X192121Y127127D01*
X192168Y127122D01*
X192322Y127139D01*
X192477Y127149D01*
X192522Y127161D01*
X192568Y127166D01*
X192716Y127213D01*
X192866Y127253D01*
X192913Y127275D01*
X192952Y127287D01*
X193028Y127329D01*
X193166Y127394D01*
X193457Y127563D01*
X194103Y127736D01*
X196406Y127736D01*
X196406Y115695D01*
X196406Y103654D01*
X196388Y103652D01*
X196370Y103654D01*
X196188Y103633D01*
X196005Y103614D01*
X195988Y103609D01*
X195970Y103607D01*
X195796Y103550D01*
X195620Y103496D01*
X195604Y103488D01*
X195587Y103482D01*
X195427Y103392D01*
X195266Y103304D01*
X195252Y103293D01*
X195237Y103284D01*
X195097Y103164D01*
X194957Y103047D01*
X194946Y103033D01*
X194932Y103021D01*
X194820Y102876D01*
X194704Y102733D01*
X194696Y102717D01*
X194685Y102703D01*
X194603Y102538D01*
X194519Y102376D01*
X194514Y102359D01*
X194506Y102343D01*
X194458Y102164D01*
X194407Y101989D01*
X194406Y101971D01*
X194401Y101954D01*
X194374Y101623D01*
X194374Y93088D01*
X185737Y93088D01*
X185737Y100455D01*
X185987Y102034D01*
X186481Y103555D01*
X186818Y104217D01*
X186852Y104304D01*
X186895Y104386D01*
X186925Y104491D01*
X186965Y104592D01*
X186981Y104684D01*
X187006Y104773D01*
X187015Y104882D01*
X187034Y104988D01*
X187032Y105082D01*
X187039Y105175D01*
X187027Y105282D01*
X187024Y105391D01*
X187003Y105482D01*
X186992Y105574D01*
X186959Y105678D01*
X186935Y105783D01*
X186897Y105868D01*
X186868Y105957D01*
X186814Y106052D01*
X186770Y106151D01*
X186716Y106227D01*
X186670Y106308D01*
X186599Y106390D01*
X186536Y106478D01*
X186467Y106542D01*
X186407Y106613D01*
X186321Y106679D01*
X186241Y106753D01*
X186162Y106802D01*
X186088Y106859D01*
X185991Y106908D01*
X185899Y106965D01*
X185811Y106997D01*
X185728Y107039D01*
X185623Y107067D01*
X185521Y107104D01*
X185429Y107119D01*
X185339Y107143D01*
X185206Y107154D01*
X185124Y107167D01*
X185074Y107165D01*
X185008Y107170D01*
X178639Y107170D01*
X177145Y107789D01*
X175920Y109014D01*
X175800Y109158D01*
X175675Y109310D01*
X175671Y109313D01*
X175668Y109317D01*
X175516Y109439D01*
X175362Y109564D01*
X175358Y109566D01*
X175354Y109569D01*
X175181Y109659D01*
X175006Y109751D01*
X175001Y109752D01*
X174997Y109755D01*
X174808Y109809D01*
X174619Y109864D01*
X174614Y109865D01*
X174610Y109866D01*
X174414Y109882D01*
X174218Y109899D01*
X174213Y109898D01*
X174208Y109899D01*
X174014Y109876D01*
X173818Y109854D01*
X173813Y109853D01*
X173809Y109852D01*
X173620Y109790D01*
X173435Y109731D01*
X173431Y109729D01*
X173426Y109727D01*
X173252Y109629D01*
X173083Y109535D01*
X173079Y109532D01*
X173075Y109529D01*
X172924Y109399D01*
X172777Y109273D01*
X172774Y109269D01*
X172770Y109266D01*
X172651Y109112D01*
X172529Y108956D01*
X172527Y108952D01*
X172524Y108948D01*
X172436Y108771D01*
X172348Y108597D01*
X172347Y108592D01*
X172344Y108587D01*
X172293Y108395D01*
X172241Y108208D01*
X172241Y108203D01*
X172240Y108199D01*
X172213Y107868D01*
X172213Y83163D01*
X172215Y83136D01*
X172213Y83109D01*
X172235Y82935D01*
X172253Y82762D01*
X172260Y82736D01*
X172264Y82710D01*
X172319Y82544D01*
X172371Y82377D01*
X172384Y82353D01*
X172392Y82328D01*
X172480Y82176D01*
X172563Y82023D01*
X172580Y82003D01*
X172593Y81979D01*
X172808Y81726D01*
X184216Y70318D01*
X184248Y70291D01*
X184277Y70260D01*
X184404Y70164D01*
X184527Y70063D01*
X184565Y70043D01*
X184598Y70018D01*
X184742Y69949D01*
X184883Y69875D01*
X184923Y69863D01*
X184962Y69844D01*
X185116Y69805D01*
X185269Y69760D01*
X185311Y69756D01*
X185352Y69746D01*
X185511Y69738D01*
X185670Y69723D01*
X185712Y69728D01*
X185754Y69726D01*
X185911Y69750D01*
X186070Y69767D01*
X186111Y69780D01*
X186152Y69786D01*
X186302Y69840D01*
X186454Y69888D01*
X186491Y69909D01*
X186531Y69923D01*
X186667Y70006D01*
X186806Y70083D01*
X186838Y70110D01*
X186875Y70133D01*
X186992Y70241D01*
X187113Y70344D01*
X187139Y70377D01*
X187171Y70406D01*
X187264Y70535D01*
X187363Y70660D01*
X187382Y70697D01*
X187407Y70732D01*
X187473Y70876D01*
X187545Y71018D01*
X187557Y71059D01*
X187574Y71098D01*
X187610Y71253D01*
X187653Y71406D01*
X187656Y71449D01*
X187666Y71490D01*
X187671Y71649D01*
X187683Y71808D01*
X187677Y71850D01*
X187679Y71892D01*
X187652Y72049D01*
X187632Y72207D01*
X187619Y72247D01*
X187612Y72289D01*
X187555Y72438D01*
X187504Y72589D01*
X187483Y72626D01*
X187468Y72665D01*
X187325Y72899D01*
X187303Y72938D01*
X187299Y72943D01*
X187295Y72949D01*
X187207Y73070D01*
X186481Y74495D01*
X185987Y76016D01*
X185737Y77595D01*
X185737Y84962D01*
X194374Y84962D01*
X194374Y71056D01*
X194376Y71039D01*
X194375Y71021D01*
X194396Y70839D01*
X194414Y70656D01*
X194419Y70639D01*
X194422Y70621D01*
X194478Y70447D01*
X194532Y70271D01*
X194541Y70255D01*
X194546Y70238D01*
X194637Y70078D01*
X194724Y69917D01*
X194735Y69903D01*
X194744Y69888D01*
X194865Y69748D01*
X194982Y69608D01*
X194996Y69596D01*
X195007Y69583D01*
X195152Y69470D01*
X195296Y69355D01*
X195311Y69347D01*
X195326Y69336D01*
X195490Y69254D01*
X195653Y69170D01*
X195670Y69165D01*
X195686Y69157D01*
X195864Y69109D01*
X196040Y69058D01*
X196058Y69057D01*
X196075Y69052D01*
X196406Y69025D01*
X200469Y69025D01*
X200487Y69027D01*
X200505Y69026D01*
X200687Y69047D01*
X200870Y69065D01*
X200887Y69070D01*
X200905Y69072D01*
X201079Y69129D01*
X201255Y69183D01*
X201271Y69192D01*
X201288Y69197D01*
X201448Y69288D01*
X201609Y69375D01*
X201623Y69386D01*
X201638Y69395D01*
X201777Y69515D01*
X201918Y69633D01*
X201929Y69647D01*
X201943Y69658D01*
X202055Y69803D01*
X202171Y69947D01*
X202179Y69962D01*
X202190Y69976D01*
X202272Y70141D01*
X202356Y70304D01*
X202361Y70321D01*
X202369Y70337D01*
X202417Y70515D01*
X202467Y70691D01*
X202469Y70709D01*
X202474Y70726D01*
X202501Y71056D01*
X202501Y84962D01*
X211138Y84962D01*
X211138Y77595D01*
X210888Y76016D01*
X210394Y74495D01*
X209668Y73070D01*
X209073Y72250D01*
X209055Y72221D01*
X209045Y72208D01*
X209039Y72197D01*
X209015Y72166D01*
X208945Y72033D01*
X208869Y71903D01*
X208853Y71854D01*
X208829Y71809D01*
X208788Y71664D01*
X208739Y71522D01*
X208732Y71471D01*
X208718Y71422D01*
X208705Y71272D01*
X208686Y71123D01*
X208689Y71072D01*
X208685Y71021D01*
X208702Y70872D01*
X208712Y70721D01*
X208726Y70672D01*
X208732Y70621D01*
X208778Y70478D01*
X208818Y70333D01*
X208841Y70287D01*
X208857Y70238D01*
X208931Y70107D01*
X208998Y69973D01*
X209029Y69932D01*
X209055Y69888D01*
X209153Y69774D01*
X209245Y69655D01*
X209284Y69622D01*
X209318Y69583D01*
X209437Y69491D01*
X209551Y69393D01*
X209595Y69367D01*
X209636Y69336D01*
X209771Y69269D01*
X209902Y69195D01*
X209950Y69180D01*
X209996Y69157D01*
X210142Y69118D01*
X210285Y69071D01*
X210336Y69066D01*
X210385Y69052D01*
X210616Y69033D01*
X210685Y69025D01*
X210699Y69027D01*
X210716Y69025D01*
X352164Y69025D01*
X352324Y69041D01*
X352484Y69051D01*
X352524Y69061D01*
X352565Y69065D01*
X352719Y69112D01*
X352874Y69153D01*
X352910Y69171D01*
X352950Y69183D01*
X353091Y69260D01*
X353235Y69330D01*
X353272Y69358D01*
X353304Y69375D01*
X353371Y69431D01*
X353502Y69528D01*
X360494Y75646D01*
X360558Y75714D01*
X360630Y75776D01*
X360695Y75861D01*
X360769Y75939D01*
X360818Y76020D01*
X360876Y76094D01*
X360924Y76190D01*
X360981Y76282D01*
X361014Y76370D01*
X361056Y76455D01*
X361084Y76559D01*
X361121Y76659D01*
X361136Y76752D01*
X361160Y76844D01*
X361171Y76976D01*
X361184Y77057D01*
X361182Y77107D01*
X361187Y77174D01*
X361187Y128254D01*
X361170Y128427D01*
X361157Y128602D01*
X361150Y128628D01*
X361147Y128654D01*
X361096Y128821D01*
X361049Y128990D01*
X361037Y129014D01*
X361029Y129039D01*
X360946Y129193D01*
X360867Y129349D01*
X360849Y129372D01*
X360837Y129393D01*
X360784Y129457D01*
X360666Y129612D01*
X351250Y140074D01*
X351188Y140131D01*
X351132Y140195D01*
X351039Y140266D01*
X350953Y140345D01*
X350880Y140389D01*
X350813Y140440D01*
X350681Y140508D01*
X350608Y140552D01*
X350567Y140566D01*
X350518Y140592D01*
X349568Y140985D01*
X347360Y143193D01*
X346166Y146077D01*
X346166Y149198D01*
X347360Y152082D01*
X349568Y154290D01*
X352452Y155484D01*
X355573Y155484D01*
X358457Y154290D01*
X360665Y152082D01*
X361455Y150175D01*
X361539Y150017D01*
X361621Y149857D01*
X361636Y149837D01*
X361645Y149820D01*
X361696Y149758D01*
X361822Y149593D01*
X373426Y136699D01*
X373460Y136668D01*
X373500Y136622D01*
X374366Y135755D01*
X374436Y135617D01*
X374451Y135598D01*
X374461Y135580D01*
X374512Y135519D01*
X374519Y135508D01*
X374925Y134362D01*
X374945Y134320D01*
X374963Y134262D01*
X375432Y133130D01*
X375444Y132976D01*
X375451Y132952D01*
X375453Y132932D01*
X375476Y132856D01*
X375479Y132843D01*
X375416Y131629D01*
X375418Y131583D01*
X375413Y131522D01*
X375413Y74529D01*
X375429Y74365D01*
X375440Y74201D01*
X375449Y74161D01*
X375453Y74129D01*
X375478Y74045D01*
X375493Y73987D01*
X375417Y72856D01*
X375419Y72798D01*
X375413Y72720D01*
X375413Y71580D01*
X375399Y71535D01*
X375346Y71379D01*
X375340Y71338D01*
X375331Y71308D01*
X375322Y71221D01*
X375313Y71162D01*
X374811Y70145D01*
X374791Y70091D01*
X374755Y70022D01*
X374318Y68968D01*
X374288Y68931D01*
X374180Y68808D01*
X374159Y68773D01*
X374138Y68748D01*
X374097Y68671D01*
X374067Y68620D01*
X373213Y67873D01*
X373174Y67831D01*
X373114Y67780D01*
X372307Y66973D01*
X372266Y66952D01*
X372118Y66879D01*
X372085Y66854D01*
X372057Y66839D01*
X371990Y66784D01*
X371852Y66681D01*
X360513Y56760D01*
X360474Y56718D01*
X360414Y56668D01*
X359607Y55861D01*
X359566Y55839D01*
X359418Y55766D01*
X359385Y55742D01*
X359357Y55727D01*
X359290Y55671D01*
X359242Y55636D01*
X358167Y55272D01*
X358115Y55249D01*
X358041Y55225D01*
X356986Y54788D01*
X356940Y54783D01*
X356776Y54773D01*
X356736Y54763D01*
X356704Y54760D01*
X356620Y54734D01*
X356562Y54720D01*
X356458Y54727D01*
X356377Y54724D01*
X356296Y54731D01*
X356176Y54718D01*
X356055Y54714D01*
X355976Y54695D01*
X355896Y54686D01*
X355781Y54649D01*
X355663Y54621D01*
X355590Y54588D01*
X355513Y54563D01*
X355407Y54504D01*
X355297Y54454D01*
X355232Y54406D01*
X355161Y54366D01*
X355070Y54288D01*
X354972Y54217D01*
X354917Y54157D01*
X354855Y54105D01*
X354781Y54010D01*
X354699Y53921D01*
X354657Y53851D01*
X354607Y53788D01*
X354553Y53680D01*
X354490Y53577D01*
X354463Y53500D01*
X354426Y53428D01*
X354394Y53312D01*
X354353Y53198D01*
X354341Y53118D01*
X354320Y53040D01*
X354312Y52919D01*
X354294Y52800D01*
X354298Y52719D01*
X354292Y52638D01*
X354308Y52518D01*
X354314Y52398D01*
X354334Y52319D01*
X354344Y52239D01*
X354392Y52091D01*
X354413Y52007D01*
X354430Y51972D01*
X354446Y51923D01*
X356092Y47948D01*
X356092Y28252D01*
X354326Y23986D01*
X351061Y20722D01*
X349702Y20159D01*
X346796Y18955D01*
X342179Y18955D01*
X337914Y20722D01*
X334650Y23986D01*
X333664Y26365D01*
X333660Y26373D01*
X333657Y26382D01*
X333566Y26549D01*
X333474Y26720D01*
X333468Y26727D01*
X333464Y26735D01*
X333340Y26882D01*
X333218Y27031D01*
X333211Y27036D01*
X333205Y27043D01*
X333055Y27163D01*
X332905Y27284D01*
X332897Y27288D01*
X332890Y27294D01*
X332719Y27382D01*
X332548Y27471D01*
X332540Y27474D01*
X332532Y27478D01*
X332348Y27530D01*
X332162Y27584D01*
X332153Y27585D01*
X332144Y27588D01*
X331954Y27602D01*
X331761Y27619D01*
X331752Y27618D01*
X331743Y27619D01*
X331554Y27596D01*
X331361Y27574D01*
X331352Y27571D01*
X331343Y27570D01*
X331163Y27510D01*
X330977Y27451D01*
X330970Y27446D01*
X330961Y27444D01*
X330795Y27349D01*
X330626Y27254D01*
X330619Y27249D01*
X330611Y27244D01*
X330466Y27118D01*
X330320Y26993D01*
X330315Y26986D01*
X330308Y26980D01*
X330191Y26827D01*
X330072Y26676D01*
X330068Y26668D01*
X330062Y26660D01*
X329911Y26365D01*
X328926Y23986D01*
X325661Y20722D01*
X324302Y20159D01*
X321396Y18955D01*
X316779Y18955D01*
X312514Y20722D01*
X309250Y23986D01*
X308264Y26365D01*
X308260Y26373D01*
X308257Y26382D01*
X308166Y26549D01*
X308074Y26720D01*
X308068Y26727D01*
X308064Y26735D01*
X307940Y26882D01*
X307818Y27031D01*
X307811Y27036D01*
X307805Y27043D01*
X307655Y27163D01*
X307505Y27284D01*
X307497Y27288D01*
X307490Y27294D01*
X307319Y27382D01*
X307148Y27471D01*
X307140Y27474D01*
X307132Y27478D01*
X306948Y27530D01*
X306762Y27584D01*
X306753Y27585D01*
X306744Y27588D01*
X306554Y27602D01*
X306361Y27619D01*
X306352Y27618D01*
X306343Y27619D01*
X306154Y27596D01*
X305961Y27574D01*
X305952Y27571D01*
X305943Y27570D01*
X305763Y27510D01*
X305577Y27451D01*
X305570Y27446D01*
X305561Y27444D01*
X305395Y27349D01*
X305226Y27254D01*
X305219Y27249D01*
X305211Y27244D01*
X305066Y27118D01*
X304920Y26993D01*
X304915Y26986D01*
X304908Y26980D01*
X304791Y26827D01*
X304672Y26676D01*
X304668Y26668D01*
X304662Y26660D01*
X304511Y26365D01*
X303526Y23986D01*
X300261Y20722D01*
X298902Y20159D01*
X295996Y18955D01*
X291379Y18955D01*
X287114Y20722D01*
X283850Y23986D01*
X282864Y26365D01*
X282860Y26373D01*
X282857Y26382D01*
X282766Y26549D01*
X282674Y26720D01*
X282668Y26727D01*
X282664Y26735D01*
X282540Y26882D01*
X282418Y27031D01*
X282411Y27036D01*
X282405Y27043D01*
X282255Y27163D01*
X282105Y27284D01*
X282097Y27288D01*
X282090Y27294D01*
X281919Y27382D01*
X281748Y27471D01*
X281740Y27474D01*
X281732Y27478D01*
X281548Y27530D01*
X281362Y27584D01*
X281353Y27585D01*
X281344Y27588D01*
X281154Y27602D01*
X280961Y27619D01*
X280952Y27618D01*
X280943Y27619D01*
X280754Y27596D01*
X280561Y27574D01*
X280552Y27571D01*
X280543Y27570D01*
X280363Y27510D01*
X280177Y27451D01*
X280170Y27446D01*
X280161Y27444D01*
X279995Y27349D01*
X279826Y27254D01*
X279819Y27249D01*
X279811Y27244D01*
X279666Y27118D01*
X279520Y26993D01*
X279515Y26986D01*
X279508Y26980D01*
X279391Y26827D01*
X279272Y26676D01*
X279268Y26668D01*
X279262Y26660D01*
X279111Y26365D01*
X278126Y23986D01*
X274861Y20722D01*
X273502Y20159D01*
X270596Y18955D01*
X265979Y18955D01*
X261714Y20722D01*
X258450Y23986D01*
X257464Y26365D01*
X257460Y26373D01*
X257457Y26382D01*
X257366Y26549D01*
X257274Y26720D01*
X257268Y26727D01*
X257264Y26735D01*
X257140Y26882D01*
X257018Y27031D01*
X257011Y27036D01*
X257005Y27043D01*
X256855Y27163D01*
X256705Y27284D01*
X256697Y27288D01*
X256690Y27294D01*
X256519Y27382D01*
X256348Y27471D01*
X256340Y27474D01*
X256332Y27478D01*
X256148Y27530D01*
X255962Y27584D01*
X255953Y27585D01*
X255944Y27588D01*
X255754Y27602D01*
X255561Y27619D01*
X255552Y27618D01*
X255543Y27619D01*
X255354Y27596D01*
X255161Y27574D01*
X255152Y27571D01*
X255143Y27570D01*
X254963Y27510D01*
X254777Y27451D01*
X254770Y27446D01*
X254761Y27444D01*
X254595Y27349D01*
X254426Y27254D01*
X254419Y27249D01*
X254411Y27244D01*
X254266Y27118D01*
X254120Y26993D01*
X254115Y26986D01*
X254108Y26980D01*
X253991Y26827D01*
X253872Y26676D01*
X253868Y26668D01*
X253862Y26660D01*
X253711Y26365D01*
X252726Y23986D01*
X249461Y20722D01*
X248102Y20159D01*
X245196Y18955D01*
X240579Y18955D01*
X236314Y20722D01*
X233050Y23986D01*
X232064Y26365D01*
X232060Y26373D01*
X232057Y26382D01*
X231966Y26549D01*
X231874Y26720D01*
X231868Y26727D01*
X231864Y26735D01*
X231740Y26882D01*
X231618Y27031D01*
X231611Y27036D01*
X231605Y27043D01*
X231455Y27163D01*
X231305Y27284D01*
X231297Y27288D01*
X231290Y27294D01*
X231119Y27382D01*
X230948Y27471D01*
X230940Y27474D01*
X230932Y27478D01*
X230748Y27530D01*
X230562Y27584D01*
X230553Y27585D01*
X230544Y27588D01*
X230354Y27602D01*
X230161Y27619D01*
X230152Y27618D01*
X230143Y27619D01*
X229954Y27596D01*
X229761Y27574D01*
X229752Y27571D01*
X229743Y27570D01*
X229563Y27510D01*
X229377Y27451D01*
X229370Y27446D01*
X229361Y27444D01*
X229195Y27349D01*
X229026Y27254D01*
X229019Y27249D01*
X229011Y27244D01*
X228866Y27118D01*
X228720Y26993D01*
X228715Y26986D01*
X228708Y26980D01*
X228591Y26827D01*
X228472Y26676D01*
X228468Y26668D01*
X228462Y26660D01*
X228311Y26365D01*
X227326Y23986D01*
X224061Y20722D01*
X222702Y20159D01*
X219796Y18955D01*
X215179Y18955D01*
G37*
%LPD*%
%LPC*%
G36*
X39585Y192966D02*
X39585Y192966D01*
X39567Y192968D01*
X39550Y192972D01*
X39219Y192999D01*
X22360Y192999D01*
X22805Y194370D01*
X23526Y195784D01*
X24458Y197067D01*
X25580Y198189D01*
X26864Y199122D01*
X28278Y199842D01*
X29939Y200382D01*
X29974Y200397D01*
X30016Y200408D01*
X30061Y200430D01*
X30108Y200444D01*
X30214Y200503D01*
X30308Y200544D01*
X30336Y200563D01*
X30378Y200584D01*
X30418Y200614D01*
X30461Y200638D01*
X30558Y200720D01*
X30637Y200775D01*
X30658Y200797D01*
X30699Y200828D01*
X30731Y200865D01*
X30769Y200897D01*
X30852Y201001D01*
X30915Y201067D01*
X30930Y201090D01*
X30965Y201130D01*
X30989Y201173D01*
X31020Y201212D01*
X31083Y201334D01*
X31129Y201407D01*
X31138Y201431D01*
X31166Y201479D01*
X31181Y201526D01*
X31204Y201570D01*
X31242Y201706D01*
X31272Y201784D01*
X31276Y201807D01*
X31294Y201860D01*
X31300Y201910D01*
X31314Y201957D01*
X31325Y202101D01*
X31338Y202181D01*
X31337Y202203D01*
X31345Y202260D01*
X31341Y202309D01*
X31345Y202359D01*
X31327Y202503D01*
X31325Y202583D01*
X31320Y202604D01*
X31315Y202661D01*
X31302Y202709D01*
X31296Y202758D01*
X31251Y202896D01*
X31232Y202975D01*
X31223Y202995D01*
X31208Y203049D01*
X31185Y203094D01*
X31170Y203140D01*
X31098Y203266D01*
X31064Y203341D01*
X31050Y203359D01*
X31025Y203408D01*
X30995Y203447D01*
X30970Y203490D01*
X30877Y203598D01*
X30827Y203666D01*
X30809Y203683D01*
X30776Y203724D01*
X30738Y203756D01*
X30706Y203794D01*
X30596Y203878D01*
X30530Y203939D01*
X30508Y203952D01*
X30469Y203985D01*
X30426Y204009D01*
X30387Y204039D01*
X30238Y204116D01*
X30186Y204147D01*
X30159Y204157D01*
X30117Y204180D01*
X30105Y204184D01*
X30091Y204191D01*
X25574Y206062D01*
X22309Y209326D01*
X20543Y213592D01*
X20543Y218208D01*
X22309Y222474D01*
X25574Y225738D01*
X27953Y226723D01*
X27961Y226728D01*
X27969Y226730D01*
X28139Y226823D01*
X28308Y226914D01*
X28314Y226919D01*
X28322Y226924D01*
X28471Y227048D01*
X28618Y227170D01*
X28624Y227177D01*
X28631Y227183D01*
X28750Y227333D01*
X28872Y227483D01*
X28876Y227491D01*
X28881Y227498D01*
X28968Y227667D01*
X29059Y227839D01*
X29061Y227848D01*
X29065Y227856D01*
X29117Y228038D01*
X29172Y228226D01*
X29173Y228235D01*
X29175Y228243D01*
X29190Y228434D01*
X29207Y228627D01*
X29206Y228636D01*
X29206Y228644D01*
X29183Y228835D01*
X29161Y229027D01*
X29159Y229035D01*
X29158Y229044D01*
X29098Y229225D01*
X29038Y229410D01*
X29034Y229418D01*
X29031Y229426D01*
X28936Y229594D01*
X28842Y229762D01*
X28836Y229768D01*
X28832Y229776D01*
X28704Y229922D01*
X28580Y230067D01*
X28573Y230073D01*
X28567Y230080D01*
X28415Y230197D01*
X28263Y230316D01*
X28255Y230320D01*
X28248Y230325D01*
X27953Y230477D01*
X25574Y231462D01*
X22309Y234726D01*
X20543Y238992D01*
X20543Y243608D01*
X22309Y247874D01*
X25574Y251138D01*
X27953Y252123D01*
X27961Y252128D01*
X27969Y252130D01*
X28139Y252223D01*
X28308Y252314D01*
X28314Y252319D01*
X28322Y252324D01*
X28471Y252448D01*
X28618Y252570D01*
X28624Y252577D01*
X28631Y252583D01*
X28750Y252733D01*
X28872Y252883D01*
X28876Y252891D01*
X28881Y252898D01*
X28968Y253067D01*
X29059Y253239D01*
X29061Y253248D01*
X29065Y253256D01*
X29117Y253438D01*
X29172Y253626D01*
X29173Y253635D01*
X29175Y253643D01*
X29190Y253834D01*
X29207Y254027D01*
X29206Y254036D01*
X29206Y254044D01*
X29183Y254235D01*
X29161Y254427D01*
X29159Y254435D01*
X29158Y254444D01*
X29097Y254626D01*
X29038Y254810D01*
X29034Y254818D01*
X29031Y254826D01*
X28936Y254994D01*
X28842Y255162D01*
X28836Y255168D01*
X28832Y255176D01*
X28704Y255322D01*
X28580Y255467D01*
X28573Y255473D01*
X28567Y255480D01*
X28415Y255597D01*
X28263Y255716D01*
X28255Y255720D01*
X28248Y255725D01*
X27953Y255877D01*
X25574Y256862D01*
X22309Y260126D01*
X20543Y264392D01*
X20543Y269008D01*
X22309Y273274D01*
X25574Y276538D01*
X29839Y278305D01*
X49536Y278305D01*
X53801Y276538D01*
X57066Y273274D01*
X58832Y269008D01*
X58832Y264392D01*
X57066Y260126D01*
X53801Y256862D01*
X51422Y255877D01*
X51414Y255872D01*
X51406Y255870D01*
X51238Y255778D01*
X51067Y255686D01*
X51060Y255681D01*
X51053Y255676D01*
X50906Y255553D01*
X50757Y255430D01*
X50751Y255423D01*
X50745Y255417D01*
X50625Y255267D01*
X50503Y255117D01*
X50499Y255109D01*
X50494Y255103D01*
X50406Y254932D01*
X50316Y254761D01*
X50314Y254752D01*
X50310Y254744D01*
X50257Y254560D01*
X50203Y254374D01*
X50202Y254366D01*
X50200Y254357D01*
X50185Y254166D01*
X50168Y253973D01*
X50169Y253964D01*
X50169Y253956D01*
X50192Y253766D01*
X50214Y253573D01*
X50216Y253565D01*
X50217Y253556D01*
X50278Y253374D01*
X50337Y253190D01*
X50341Y253182D01*
X50344Y253174D01*
X50440Y253006D01*
X50533Y252838D01*
X50539Y252832D01*
X50543Y252824D01*
X50670Y252679D01*
X50795Y252533D01*
X50802Y252527D01*
X50808Y252520D01*
X50961Y252403D01*
X51112Y252284D01*
X51120Y252280D01*
X51127Y252275D01*
X51422Y252123D01*
X53801Y251138D01*
X57066Y247874D01*
X58832Y243608D01*
X58832Y238992D01*
X57066Y234726D01*
X53801Y231462D01*
X53673Y231409D01*
X51422Y230477D01*
X51414Y230472D01*
X51406Y230470D01*
X51238Y230378D01*
X51067Y230286D01*
X51060Y230281D01*
X51053Y230276D01*
X50906Y230153D01*
X50757Y230030D01*
X50751Y230023D01*
X50745Y230017D01*
X50625Y229867D01*
X50503Y229717D01*
X50499Y229709D01*
X50494Y229703D01*
X50406Y229532D01*
X50316Y229361D01*
X50314Y229352D01*
X50310Y229344D01*
X50257Y229160D01*
X50203Y228974D01*
X50202Y228966D01*
X50200Y228957D01*
X50185Y228766D01*
X50168Y228573D01*
X50169Y228564D01*
X50169Y228556D01*
X50192Y228366D01*
X50214Y228173D01*
X50216Y228165D01*
X50217Y228156D01*
X50278Y227974D01*
X50337Y227790D01*
X50341Y227782D01*
X50344Y227774D01*
X50440Y227606D01*
X50533Y227438D01*
X50539Y227432D01*
X50543Y227424D01*
X50670Y227279D01*
X50795Y227133D01*
X50802Y227127D01*
X50808Y227120D01*
X50961Y227003D01*
X51112Y226884D01*
X51120Y226880D01*
X51127Y226875D01*
X51422Y226723D01*
X53801Y225738D01*
X57066Y222474D01*
X58832Y218208D01*
X58832Y213592D01*
X57066Y209326D01*
X53801Y206062D01*
X51244Y205003D01*
X49284Y204191D01*
X49240Y204167D01*
X49193Y204151D01*
X49152Y204126D01*
X49126Y204115D01*
X49048Y204064D01*
X48929Y204001D01*
X48891Y203969D01*
X48848Y203944D01*
X48810Y203909D01*
X48789Y203895D01*
X48726Y203833D01*
X48618Y203744D01*
X48587Y203706D01*
X48551Y203672D01*
X48519Y203629D01*
X48502Y203613D01*
X48454Y203542D01*
X48365Y203432D01*
X48342Y203388D01*
X48312Y203348D01*
X48289Y203297D01*
X48276Y203279D01*
X48245Y203203D01*
X48178Y203075D01*
X48164Y203028D01*
X48143Y202983D01*
X48130Y202927D01*
X48121Y202908D01*
X48105Y202828D01*
X48064Y202689D01*
X48060Y202639D01*
X48049Y202591D01*
X48046Y202534D01*
X48042Y202513D01*
X48042Y202432D01*
X48030Y202288D01*
X48035Y202238D01*
X48034Y202189D01*
X48043Y202133D01*
X48043Y202110D01*
X48059Y202030D01*
X48075Y201887D01*
X48090Y201840D01*
X48098Y201791D01*
X48118Y201739D01*
X48123Y201715D01*
X48155Y201638D01*
X48198Y201504D01*
X48222Y201461D01*
X48240Y201415D01*
X48269Y201368D01*
X48279Y201344D01*
X48328Y201272D01*
X48395Y201153D01*
X48427Y201115D01*
X48453Y201073D01*
X48489Y201035D01*
X48505Y201011D01*
X48571Y200947D01*
X48656Y200847D01*
X48695Y200816D01*
X48729Y200780D01*
X48770Y200752D01*
X48792Y200729D01*
X48874Y200677D01*
X48973Y200599D01*
X49018Y200576D01*
X49058Y200548D01*
X49101Y200529D01*
X49130Y200510D01*
X49249Y200460D01*
X49333Y200418D01*
X49381Y200405D01*
X49426Y200385D01*
X49434Y200383D01*
X49436Y200382D01*
X51097Y199842D01*
X52511Y199122D01*
X53795Y198189D01*
X54917Y197067D01*
X55849Y195784D01*
X56570Y194370D01*
X57015Y192999D01*
X40156Y192999D01*
X40138Y192997D01*
X40120Y192999D01*
X39938Y192978D01*
X39755Y192959D01*
X39738Y192954D01*
X39720Y192952D01*
X39680Y192939D01*
X39585Y192966D01*
G37*
%LPD*%
%LPC*%
G36*
X62779Y18955D02*
X62779Y18955D01*
X58514Y20722D01*
X55249Y23986D01*
X53483Y28252D01*
X53483Y47948D01*
X55249Y52214D01*
X58514Y55478D01*
X62779Y57245D01*
X67396Y57245D01*
X71661Y55478D01*
X74926Y52214D01*
X75911Y49835D01*
X75915Y49827D01*
X75918Y49818D01*
X76011Y49648D01*
X76101Y49480D01*
X76107Y49473D01*
X76111Y49465D01*
X76236Y49317D01*
X76358Y49169D01*
X76364Y49164D01*
X76370Y49157D01*
X76520Y49037D01*
X76670Y48916D01*
X76678Y48912D01*
X76685Y48906D01*
X76854Y48819D01*
X77027Y48729D01*
X77035Y48726D01*
X77043Y48722D01*
X77226Y48670D01*
X77413Y48616D01*
X77422Y48615D01*
X77431Y48612D01*
X77622Y48598D01*
X77814Y48581D01*
X77823Y48582D01*
X77832Y48581D01*
X78023Y48605D01*
X78214Y48626D01*
X78223Y48629D01*
X78232Y48630D01*
X78413Y48690D01*
X78598Y48749D01*
X78605Y48754D01*
X78614Y48756D01*
X78781Y48852D01*
X78949Y48946D01*
X78956Y48951D01*
X78964Y48956D01*
X79110Y49083D01*
X79255Y49207D01*
X79260Y49215D01*
X79267Y49220D01*
X79384Y49373D01*
X79503Y49525D01*
X79507Y49533D01*
X79513Y49540D01*
X79664Y49835D01*
X80649Y52214D01*
X83914Y55478D01*
X88179Y57245D01*
X92796Y57245D01*
X97061Y55478D01*
X100326Y52214D01*
X101311Y49835D01*
X101315Y49827D01*
X101318Y49818D01*
X101411Y49648D01*
X101501Y49480D01*
X101507Y49473D01*
X101511Y49465D01*
X101636Y49317D01*
X101758Y49169D01*
X101764Y49164D01*
X101770Y49157D01*
X101920Y49037D01*
X102070Y48916D01*
X102078Y48912D01*
X102085Y48906D01*
X102254Y48819D01*
X102427Y48729D01*
X102435Y48726D01*
X102443Y48722D01*
X102626Y48670D01*
X102813Y48616D01*
X102822Y48615D01*
X102831Y48612D01*
X103022Y48598D01*
X103214Y48581D01*
X103223Y48582D01*
X103232Y48581D01*
X103423Y48605D01*
X103614Y48626D01*
X103623Y48629D01*
X103632Y48630D01*
X103813Y48690D01*
X103998Y48749D01*
X104005Y48754D01*
X104014Y48756D01*
X104181Y48852D01*
X104349Y48946D01*
X104356Y48951D01*
X104364Y48956D01*
X104510Y49083D01*
X104655Y49207D01*
X104660Y49215D01*
X104667Y49220D01*
X104784Y49373D01*
X104903Y49525D01*
X104907Y49533D01*
X104913Y49540D01*
X105064Y49835D01*
X106049Y52214D01*
X109314Y55478D01*
X113579Y57245D01*
X118196Y57245D01*
X122461Y55478D01*
X125726Y52214D01*
X127597Y47696D01*
X127619Y47654D01*
X127635Y47609D01*
X127661Y47566D01*
X127672Y47538D01*
X127723Y47460D01*
X127787Y47341D01*
X127817Y47304D01*
X127842Y47263D01*
X127878Y47224D01*
X127892Y47201D01*
X127955Y47138D01*
X128043Y47031D01*
X128080Y47001D01*
X128113Y46965D01*
X128157Y46932D01*
X128175Y46914D01*
X128245Y46867D01*
X128356Y46777D01*
X128398Y46755D01*
X128437Y46727D01*
X128489Y46702D01*
X128509Y46689D01*
X128585Y46657D01*
X128712Y46590D01*
X128758Y46577D01*
X128802Y46557D01*
X128858Y46543D01*
X128880Y46534D01*
X128959Y46518D01*
X129099Y46477D01*
X129147Y46473D01*
X129193Y46462D01*
X129252Y46459D01*
X129275Y46455D01*
X129356Y46455D01*
X129500Y46442D01*
X129547Y46448D01*
X129595Y46446D01*
X129653Y46455D01*
X129677Y46455D01*
X129758Y46472D01*
X129900Y46488D01*
X129945Y46502D01*
X129993Y46510D01*
X130047Y46530D01*
X130072Y46535D01*
X130150Y46568D01*
X130283Y46611D01*
X130325Y46634D01*
X130370Y46651D01*
X130418Y46680D01*
X130443Y46691D01*
X130516Y46740D01*
X130635Y46807D01*
X130671Y46838D01*
X130712Y46863D01*
X130751Y46900D01*
X130776Y46917D01*
X130841Y46983D01*
X130941Y47069D01*
X130970Y47107D01*
X131005Y47139D01*
X131035Y47181D01*
X131058Y47205D01*
X131111Y47287D01*
X131189Y47386D01*
X131210Y47429D01*
X131238Y47468D01*
X131258Y47512D01*
X131278Y47542D01*
X131327Y47662D01*
X131370Y47746D01*
X131382Y47792D01*
X131402Y47835D01*
X131404Y47845D01*
X131406Y47849D01*
X131945Y49510D01*
X132666Y50924D01*
X133598Y52207D01*
X134720Y53329D01*
X136004Y54262D01*
X137418Y54982D01*
X138788Y55427D01*
X138788Y38568D01*
X138789Y38564D01*
X138789Y38563D01*
X138790Y38550D01*
X138789Y38533D01*
X138810Y38350D01*
X138828Y38168D01*
X138833Y38151D01*
X138835Y38133D01*
X138849Y38092D01*
X138821Y37998D01*
X138820Y37980D01*
X138815Y37963D01*
X138788Y37632D01*
X138788Y20773D01*
X137418Y21218D01*
X136004Y21938D01*
X134720Y22871D01*
X133598Y23993D01*
X132666Y25276D01*
X131945Y26690D01*
X131406Y28351D01*
X131390Y28388D01*
X131378Y28432D01*
X131357Y28475D01*
X131343Y28520D01*
X131285Y28627D01*
X131244Y28720D01*
X131223Y28750D01*
X131202Y28794D01*
X131173Y28832D01*
X131150Y28873D01*
X131068Y28971D01*
X131013Y29050D01*
X130989Y29072D01*
X130957Y29114D01*
X130921Y29145D01*
X130891Y29182D01*
X130787Y29264D01*
X130721Y29327D01*
X130696Y29343D01*
X130655Y29379D01*
X130613Y29403D01*
X130576Y29433D01*
X130454Y29495D01*
X130380Y29542D01*
X130355Y29551D01*
X130305Y29580D01*
X130260Y29595D01*
X130218Y29616D01*
X130082Y29655D01*
X130004Y29685D01*
X129979Y29689D01*
X129924Y29707D01*
X129876Y29713D01*
X129830Y29726D01*
X129687Y29737D01*
X129607Y29751D01*
X129583Y29750D01*
X129524Y29757D01*
X129476Y29754D01*
X129429Y29757D01*
X129285Y29740D01*
X129204Y29737D01*
X129181Y29732D01*
X129123Y29727D01*
X129076Y29714D01*
X129029Y29709D01*
X128892Y29663D01*
X128812Y29644D01*
X128791Y29635D01*
X128735Y29619D01*
X128692Y29597D01*
X128647Y29582D01*
X128522Y29511D01*
X128447Y29476D01*
X128427Y29462D01*
X128376Y29436D01*
X128339Y29406D01*
X128297Y29383D01*
X128190Y29290D01*
X128121Y29239D01*
X128104Y29220D01*
X128061Y29186D01*
X128030Y29150D01*
X127994Y29118D01*
X127909Y29009D01*
X127849Y28943D01*
X127835Y28919D01*
X127800Y28879D01*
X127777Y28837D01*
X127748Y28799D01*
X127672Y28650D01*
X127640Y28598D01*
X127630Y28570D01*
X127606Y28526D01*
X127603Y28516D01*
X127597Y28504D01*
X125726Y23986D01*
X122461Y20722D01*
X121102Y20159D01*
X118196Y18955D01*
X113579Y18955D01*
X109314Y20722D01*
X106049Y23986D01*
X105064Y26365D01*
X105060Y26373D01*
X105057Y26382D01*
X104965Y26550D01*
X104874Y26720D01*
X104868Y26727D01*
X104864Y26735D01*
X104741Y26881D01*
X104618Y27031D01*
X104611Y27036D01*
X104605Y27043D01*
X104455Y27163D01*
X104305Y27284D01*
X104297Y27288D01*
X104290Y27294D01*
X104119Y27382D01*
X103948Y27471D01*
X103940Y27474D01*
X103932Y27478D01*
X103748Y27530D01*
X103562Y27584D01*
X103553Y27585D01*
X103544Y27588D01*
X103353Y27602D01*
X103161Y27619D01*
X103152Y27618D01*
X103143Y27619D01*
X102954Y27596D01*
X102761Y27574D01*
X102752Y27571D01*
X102743Y27570D01*
X102562Y27510D01*
X102377Y27451D01*
X102370Y27446D01*
X102361Y27444D01*
X102193Y27348D01*
X102026Y27254D01*
X102019Y27249D01*
X102011Y27244D01*
X101866Y27118D01*
X101720Y26993D01*
X101715Y26985D01*
X101708Y26980D01*
X101590Y26826D01*
X101472Y26676D01*
X101468Y26668D01*
X101462Y26660D01*
X101311Y26365D01*
X100326Y23986D01*
X97061Y20722D01*
X95702Y20159D01*
X92796Y18955D01*
X88179Y18955D01*
X83914Y20722D01*
X80649Y23986D01*
X79664Y26365D01*
X79660Y26373D01*
X79657Y26382D01*
X79565Y26550D01*
X79474Y26720D01*
X79468Y26727D01*
X79464Y26735D01*
X79341Y26881D01*
X79218Y27031D01*
X79211Y27036D01*
X79205Y27043D01*
X79055Y27163D01*
X78905Y27284D01*
X78897Y27288D01*
X78890Y27294D01*
X78719Y27382D01*
X78548Y27471D01*
X78540Y27474D01*
X78532Y27478D01*
X78348Y27530D01*
X78162Y27584D01*
X78153Y27585D01*
X78144Y27588D01*
X77953Y27602D01*
X77761Y27619D01*
X77752Y27618D01*
X77743Y27619D01*
X77554Y27596D01*
X77361Y27574D01*
X77352Y27571D01*
X77343Y27570D01*
X77162Y27510D01*
X76977Y27451D01*
X76970Y27446D01*
X76961Y27444D01*
X76793Y27348D01*
X76626Y27254D01*
X76619Y27249D01*
X76611Y27244D01*
X76466Y27118D01*
X76320Y26993D01*
X76315Y26985D01*
X76308Y26980D01*
X76190Y26826D01*
X76072Y26676D01*
X76068Y26668D01*
X76062Y26660D01*
X75911Y26365D01*
X74926Y23986D01*
X71661Y20722D01*
X70302Y20159D01*
X67396Y18955D01*
X62779Y18955D01*
G37*
%LPD*%
%LPC*%
G36*
X390658Y71373D02*
X390658Y71373D01*
X384111Y77920D01*
X384111Y87180D01*
X390745Y93814D01*
X390756Y93827D01*
X390770Y93839D01*
X390884Y93983D01*
X391000Y94125D01*
X391008Y94141D01*
X391019Y94155D01*
X391103Y94319D01*
X391189Y94481D01*
X391194Y94498D01*
X391202Y94514D01*
X391251Y94691D01*
X391303Y94867D01*
X391305Y94885D01*
X391310Y94902D01*
X391323Y95085D01*
X391340Y95268D01*
X391338Y95286D01*
X391339Y95303D01*
X391316Y95485D01*
X391296Y95668D01*
X391291Y95685D01*
X391289Y95703D01*
X391230Y95876D01*
X391175Y96052D01*
X391166Y96068D01*
X391161Y96084D01*
X391069Y96244D01*
X390980Y96404D01*
X390969Y96418D01*
X390960Y96433D01*
X390745Y96686D01*
X384111Y103320D01*
X384111Y112580D01*
X390658Y119127D01*
X399917Y119127D01*
X406551Y112493D01*
X406565Y112481D01*
X406577Y112468D01*
X406721Y112354D01*
X406863Y112238D01*
X406878Y112229D01*
X406892Y112218D01*
X407057Y112135D01*
X407218Y112049D01*
X407235Y112044D01*
X407251Y112036D01*
X407429Y111986D01*
X407604Y111934D01*
X407622Y111932D01*
X407639Y111928D01*
X407822Y111914D01*
X408005Y111898D01*
X408023Y111900D01*
X408041Y111898D01*
X408223Y111921D01*
X408406Y111941D01*
X408423Y111947D01*
X408440Y111949D01*
X408614Y112007D01*
X408789Y112063D01*
X408805Y112071D01*
X408822Y112077D01*
X408981Y112169D01*
X409142Y112257D01*
X409155Y112269D01*
X409171Y112278D01*
X409424Y112493D01*
X416145Y119214D01*
X416156Y119227D01*
X416170Y119239D01*
X416284Y119383D01*
X416400Y119525D01*
X416408Y119541D01*
X416419Y119555D01*
X416503Y119719D01*
X416589Y119881D01*
X416594Y119898D01*
X416602Y119914D01*
X416651Y120091D01*
X416703Y120267D01*
X416705Y120285D01*
X416710Y120302D01*
X416723Y120485D01*
X416740Y120668D01*
X416738Y120686D01*
X416739Y120703D01*
X416716Y120885D01*
X416696Y121068D01*
X416691Y121085D01*
X416689Y121103D01*
X416630Y121276D01*
X416575Y121452D01*
X416566Y121468D01*
X416561Y121484D01*
X416469Y121644D01*
X416380Y121804D01*
X416369Y121818D01*
X416360Y121833D01*
X416145Y122086D01*
X409511Y128720D01*
X409511Y137980D01*
X416058Y144527D01*
X425317Y144527D01*
X431864Y137980D01*
X431864Y128720D01*
X425230Y122086D01*
X425219Y122072D01*
X425205Y122061D01*
X425092Y121917D01*
X424975Y121775D01*
X424967Y121759D01*
X424956Y121745D01*
X424872Y121581D01*
X424786Y121419D01*
X424781Y121402D01*
X424773Y121386D01*
X424724Y121209D01*
X424672Y121033D01*
X424670Y121015D01*
X424665Y120998D01*
X424652Y120815D01*
X424635Y120632D01*
X424637Y120614D01*
X424636Y120597D01*
X424659Y120415D01*
X424679Y120232D01*
X424684Y120215D01*
X424686Y120197D01*
X424745Y120022D01*
X424800Y119848D01*
X424809Y119832D01*
X424814Y119816D01*
X424906Y119656D01*
X424995Y119496D01*
X425006Y119482D01*
X425015Y119467D01*
X425230Y119214D01*
X431864Y112580D01*
X431864Y103320D01*
X425230Y96686D01*
X425219Y96672D01*
X425205Y96661D01*
X425092Y96517D01*
X424975Y96375D01*
X424967Y96359D01*
X424956Y96345D01*
X424872Y96181D01*
X424786Y96019D01*
X424781Y96002D01*
X424773Y95986D01*
X424724Y95809D01*
X424672Y95633D01*
X424670Y95615D01*
X424665Y95598D01*
X424652Y95415D01*
X424635Y95232D01*
X424637Y95214D01*
X424636Y95197D01*
X424659Y95015D01*
X424679Y94832D01*
X424684Y94815D01*
X424686Y94797D01*
X424745Y94623D01*
X424800Y94448D01*
X424809Y94432D01*
X424814Y94416D01*
X424906Y94256D01*
X424995Y94096D01*
X425006Y94082D01*
X425015Y94067D01*
X425230Y93814D01*
X431864Y87180D01*
X431864Y77920D01*
X425317Y71373D01*
X416058Y71373D01*
X409424Y78007D01*
X409410Y78019D01*
X409398Y78032D01*
X409254Y78146D01*
X409112Y78262D01*
X409097Y78271D01*
X409083Y78282D01*
X408918Y78365D01*
X408757Y78451D01*
X408740Y78456D01*
X408724Y78464D01*
X408546Y78514D01*
X408371Y78566D01*
X408353Y78568D01*
X408336Y78572D01*
X408153Y78586D01*
X407970Y78602D01*
X407952Y78600D01*
X407934Y78602D01*
X407752Y78579D01*
X407569Y78559D01*
X407552Y78553D01*
X407535Y78551D01*
X407361Y78493D01*
X407186Y78437D01*
X407170Y78429D01*
X407153Y78423D01*
X406994Y78331D01*
X406833Y78243D01*
X406820Y78231D01*
X406804Y78222D01*
X406551Y78007D01*
X399917Y71373D01*
X390658Y71373D01*
G37*
%LPD*%
%LPC*%
G36*
X428548Y305815D02*
X428548Y305815D01*
X421703Y312660D01*
X421703Y322487D01*
X421702Y322496D01*
X421703Y322505D01*
X421682Y322696D01*
X421663Y322887D01*
X421660Y322896D01*
X421659Y322905D01*
X421602Y323087D01*
X421545Y323272D01*
X421540Y323280D01*
X421538Y323289D01*
X421445Y323457D01*
X421353Y323626D01*
X421347Y323633D01*
X421343Y323641D01*
X421218Y323788D01*
X421095Y323936D01*
X421088Y323941D01*
X421082Y323948D01*
X420932Y324067D01*
X420781Y324188D01*
X420774Y324192D01*
X420767Y324198D01*
X420594Y324285D01*
X420424Y324373D01*
X420416Y324376D01*
X420408Y324380D01*
X420221Y324432D01*
X420037Y324485D01*
X420028Y324486D01*
X420020Y324488D01*
X419827Y324502D01*
X419636Y324518D01*
X419627Y324517D01*
X419618Y324517D01*
X419426Y324493D01*
X419236Y324471D01*
X419228Y324468D01*
X419219Y324467D01*
X419036Y324405D01*
X418853Y324346D01*
X418845Y324341D01*
X418837Y324339D01*
X418670Y324243D01*
X418503Y324148D01*
X418496Y324142D01*
X418488Y324138D01*
X418235Y323923D01*
X412827Y318515D01*
X403148Y318515D01*
X396303Y325360D01*
X396303Y335040D01*
X402727Y341464D01*
X402738Y341478D01*
X402751Y341489D01*
X402865Y341633D01*
X402982Y341775D01*
X402990Y341791D01*
X403001Y341805D01*
X403085Y341969D01*
X403170Y342131D01*
X403175Y342148D01*
X403183Y342164D01*
X403233Y342341D01*
X403285Y342517D01*
X403287Y342535D01*
X403291Y342552D01*
X403305Y342735D01*
X403321Y342918D01*
X403319Y342936D01*
X403321Y342953D01*
X403298Y343135D01*
X403278Y343318D01*
X403273Y343335D01*
X403270Y343353D01*
X403212Y343527D01*
X403156Y343702D01*
X403148Y343718D01*
X403142Y343734D01*
X403050Y343894D01*
X402962Y344054D01*
X402950Y344068D01*
X402941Y344083D01*
X402727Y344336D01*
X396303Y350760D01*
X396303Y360440D01*
X403148Y367285D01*
X412827Y367285D01*
X419672Y360440D01*
X419672Y350613D01*
X419673Y350604D01*
X419672Y350595D01*
X419693Y350404D01*
X419712Y350213D01*
X419715Y350204D01*
X419716Y350195D01*
X419773Y350013D01*
X419830Y349828D01*
X419835Y349820D01*
X419837Y349811D01*
X419930Y349643D01*
X420022Y349474D01*
X420028Y349467D01*
X420032Y349459D01*
X420157Y349312D01*
X420280Y349164D01*
X420287Y349159D01*
X420293Y349152D01*
X420443Y349033D01*
X420594Y348912D01*
X420601Y348908D01*
X420608Y348902D01*
X420781Y348815D01*
X420951Y348727D01*
X420959Y348724D01*
X420967Y348720D01*
X421154Y348668D01*
X421338Y348615D01*
X421347Y348614D01*
X421355Y348612D01*
X421548Y348598D01*
X421739Y348582D01*
X421748Y348583D01*
X421757Y348583D01*
X421949Y348607D01*
X422139Y348629D01*
X422147Y348632D01*
X422156Y348633D01*
X422339Y348695D01*
X422522Y348754D01*
X422530Y348759D01*
X422538Y348761D01*
X422705Y348857D01*
X422872Y348952D01*
X422879Y348958D01*
X422887Y348962D01*
X423140Y349177D01*
X428548Y354585D01*
X438227Y354585D01*
X445072Y347740D01*
X445072Y338060D01*
X438648Y331636D01*
X438637Y331622D01*
X438624Y331611D01*
X438510Y331467D01*
X438393Y331325D01*
X438385Y331309D01*
X438374Y331295D01*
X438290Y331131D01*
X438205Y330969D01*
X438200Y330952D01*
X438192Y330936D01*
X438142Y330759D01*
X438090Y330583D01*
X438088Y330565D01*
X438084Y330548D01*
X438070Y330365D01*
X438054Y330182D01*
X438056Y330164D01*
X438054Y330147D01*
X438077Y329965D01*
X438097Y329782D01*
X438102Y329765D01*
X438105Y329747D01*
X438163Y329573D01*
X438219Y329398D01*
X438227Y329382D01*
X438233Y329366D01*
X438325Y329206D01*
X438413Y329046D01*
X438425Y329032D01*
X438434Y329017D01*
X438648Y328764D01*
X445072Y322340D01*
X445072Y312660D01*
X438227Y305815D01*
X428548Y305815D01*
G37*
%LPD*%
G36*
X318670Y313543D02*
X318670Y313543D01*
X318725Y313541D01*
X318869Y313566D01*
X319014Y313583D01*
X319067Y313601D01*
X319122Y313610D01*
X319258Y313663D01*
X319397Y313708D01*
X319445Y313736D01*
X319497Y313756D01*
X319620Y313834D01*
X319748Y313906D01*
X319790Y313942D01*
X319836Y313972D01*
X319942Y314074D01*
X320053Y314169D01*
X320086Y314213D01*
X320126Y314252D01*
X320210Y314372D01*
X320299Y314487D01*
X320324Y314537D01*
X320356Y314583D01*
X320413Y314717D01*
X320479Y314848D01*
X320493Y314902D01*
X320515Y314952D01*
X320545Y315095D01*
X320583Y315237D01*
X320588Y315300D01*
X320598Y315346D01*
X320599Y315430D01*
X320610Y315567D01*
X320610Y321696D01*
X321229Y323190D01*
X322373Y324333D01*
X323980Y324999D01*
X323982Y324999D01*
X324157Y325056D01*
X324333Y325110D01*
X324348Y325119D01*
X324365Y325124D01*
X324525Y325215D01*
X324687Y325302D01*
X324700Y325313D01*
X324716Y325322D01*
X324855Y325442D01*
X324996Y325560D01*
X325007Y325574D01*
X325021Y325585D01*
X325133Y325730D01*
X325248Y325874D01*
X325256Y325889D01*
X325267Y325903D01*
X325349Y326068D01*
X325434Y326231D01*
X325439Y326248D01*
X325447Y326264D01*
X325494Y326442D01*
X325545Y326618D01*
X325547Y326636D01*
X325551Y326653D01*
X325578Y326983D01*
X325578Y371396D01*
X325576Y371422D01*
X325578Y371449D01*
X325556Y371623D01*
X325538Y371796D01*
X325531Y371822D01*
X325527Y371849D01*
X325472Y372014D01*
X325420Y372181D01*
X325407Y372205D01*
X325399Y372230D01*
X325312Y372382D01*
X325228Y372535D01*
X325211Y372556D01*
X325198Y372579D01*
X324983Y372832D01*
X315732Y382083D01*
X315711Y382100D01*
X315694Y382121D01*
X315556Y382228D01*
X315421Y382338D01*
X315397Y382351D01*
X315376Y382367D01*
X315219Y382445D01*
X315065Y382527D01*
X315039Y382535D01*
X315015Y382547D01*
X314846Y382592D01*
X314679Y382642D01*
X314652Y382644D01*
X314626Y382651D01*
X314365Y382673D01*
X311468Y383873D01*
X309260Y386080D01*
X308066Y388964D01*
X308066Y392086D01*
X308472Y393065D01*
X308473Y393070D01*
X308475Y393074D01*
X308530Y393259D01*
X308588Y393451D01*
X308588Y393455D01*
X308590Y393460D01*
X308608Y393657D01*
X308626Y393852D01*
X308626Y393856D01*
X308626Y393860D01*
X308605Y394056D01*
X308584Y394252D01*
X308583Y394256D01*
X308583Y394261D01*
X308524Y394447D01*
X308465Y394636D01*
X308462Y394640D01*
X308461Y394645D01*
X308368Y394814D01*
X308271Y394990D01*
X308268Y394993D01*
X308266Y394997D01*
X308141Y395145D01*
X308012Y395298D01*
X308009Y395301D01*
X308006Y395304D01*
X307852Y395425D01*
X307697Y395549D01*
X307693Y395551D01*
X307690Y395554D01*
X307514Y395643D01*
X307339Y395733D01*
X307335Y395734D01*
X307331Y395736D01*
X307139Y395789D01*
X306952Y395842D01*
X306947Y395843D01*
X306943Y395844D01*
X306742Y395859D01*
X306550Y395873D01*
X306546Y395873D01*
X306542Y395873D01*
X306344Y395848D01*
X306151Y395825D01*
X306147Y395823D01*
X306142Y395823D01*
X305957Y395761D01*
X305769Y395698D01*
X305765Y395696D01*
X305760Y395695D01*
X305590Y395596D01*
X305419Y395499D01*
X305416Y395496D01*
X305412Y395494D01*
X305159Y395279D01*
X291522Y381642D01*
X289521Y379641D01*
X287280Y378713D01*
X275451Y378713D01*
X275447Y378713D01*
X275442Y378713D01*
X275246Y378693D01*
X275051Y378673D01*
X275046Y378672D01*
X275041Y378671D01*
X274854Y378613D01*
X274666Y378555D01*
X274662Y378553D01*
X274657Y378551D01*
X274486Y378458D01*
X274312Y378363D01*
X274308Y378360D01*
X274304Y378358D01*
X274152Y378230D01*
X274003Y378106D01*
X274000Y378102D01*
X273996Y378099D01*
X273871Y377942D01*
X273750Y377792D01*
X273748Y377788D01*
X273745Y377784D01*
X273654Y377606D01*
X273565Y377435D01*
X273563Y377430D01*
X273561Y377426D01*
X273508Y377237D01*
X273453Y377048D01*
X273453Y377043D01*
X273452Y377038D01*
X273437Y376844D01*
X273420Y376646D01*
X273421Y376642D01*
X273421Y376637D01*
X273445Y376440D01*
X273467Y376247D01*
X273469Y376242D01*
X273469Y376237D01*
X273531Y376053D01*
X273592Y375864D01*
X273595Y375860D01*
X273596Y375855D01*
X273692Y375687D01*
X273790Y375513D01*
X273793Y375509D01*
X273796Y375505D01*
X273924Y375358D01*
X274053Y375209D01*
X274057Y375206D01*
X274060Y375202D01*
X274102Y375169D01*
X274280Y374992D01*
X274301Y374975D01*
X274318Y374954D01*
X274456Y374847D01*
X274592Y374737D01*
X274615Y374724D01*
X274637Y374708D01*
X274793Y374630D01*
X274947Y374548D01*
X274973Y374540D01*
X274997Y374528D01*
X275166Y374483D01*
X275333Y374433D01*
X275360Y374431D01*
X275386Y374424D01*
X275717Y374397D01*
X279025Y374397D01*
X281266Y373469D01*
X283267Y371468D01*
X288918Y365817D01*
X290919Y363816D01*
X291847Y361575D01*
X291847Y357058D01*
X291849Y357041D01*
X291847Y357023D01*
X291868Y356841D01*
X291887Y356658D01*
X291892Y356641D01*
X291894Y356623D01*
X291951Y356449D01*
X292005Y356273D01*
X292013Y356257D01*
X292019Y356240D01*
X292109Y356080D01*
X292197Y355919D01*
X292208Y355905D01*
X292217Y355890D01*
X292337Y355750D01*
X292454Y355610D01*
X292468Y355598D01*
X292480Y355585D01*
X292625Y355472D01*
X292768Y355357D01*
X292784Y355349D01*
X292798Y355338D01*
X292963Y355256D01*
X293125Y355172D01*
X293142Y355167D01*
X293158Y355159D01*
X293337Y355111D01*
X293512Y355060D01*
X293530Y355059D01*
X293547Y355054D01*
X293878Y355027D01*
X306759Y355027D01*
X308252Y354408D01*
X309396Y353265D01*
X310015Y351771D01*
X310015Y337154D01*
X309396Y335660D01*
X308801Y335065D01*
X308743Y334994D01*
X308678Y334931D01*
X308616Y334839D01*
X308546Y334753D01*
X308503Y334673D01*
X308452Y334597D01*
X308409Y334496D01*
X308357Y334398D01*
X308331Y334310D01*
X308296Y334226D01*
X308274Y334118D01*
X308242Y334012D01*
X308234Y333921D01*
X308216Y333832D01*
X308216Y333721D01*
X308206Y333611D01*
X308216Y333520D01*
X308215Y333429D01*
X308240Y333294D01*
X308249Y333210D01*
X308264Y333165D01*
X308275Y333103D01*
X308491Y332297D01*
X308491Y328712D01*
X299668Y328712D01*
X299650Y328710D01*
X299633Y328711D01*
X299450Y328690D01*
X299268Y328672D01*
X299251Y328667D01*
X299233Y328665D01*
X299058Y328608D01*
X298883Y328554D01*
X298867Y328545D01*
X298850Y328540D01*
X298690Y328449D01*
X298529Y328362D01*
X298515Y328351D01*
X298499Y328342D01*
X298360Y328222D01*
X298219Y328104D01*
X298208Y328090D01*
X298195Y328079D01*
X298082Y327934D01*
X297967Y327790D01*
X297959Y327775D01*
X297948Y327761D01*
X297866Y327596D01*
X297782Y327433D01*
X297777Y327416D01*
X297769Y327400D01*
X297721Y327222D01*
X297670Y327046D01*
X297669Y327028D01*
X297664Y327011D01*
X297637Y326681D01*
X297637Y326213D01*
X297639Y326187D01*
X297638Y326162D01*
X297659Y325987D01*
X297677Y325812D01*
X297684Y325788D01*
X297688Y325762D01*
X297743Y325596D01*
X297795Y325427D01*
X297807Y325405D01*
X297815Y325381D01*
X297903Y325228D01*
X297987Y325073D01*
X298003Y325054D01*
X298016Y325031D01*
X298132Y324898D01*
X298245Y324764D01*
X298264Y324748D01*
X298281Y324729D01*
X298541Y324523D01*
X301494Y322554D01*
X301519Y322541D01*
X301541Y322524D01*
X301697Y322447D01*
X301850Y322365D01*
X301876Y322357D01*
X301901Y322345D01*
X302069Y322300D01*
X302235Y322250D01*
X302263Y322248D01*
X302290Y322240D01*
X302621Y322213D01*
X308491Y322213D01*
X308491Y318977D01*
X308493Y318952D01*
X308491Y318926D01*
X308513Y318751D01*
X308531Y318576D01*
X308538Y318552D01*
X308541Y318527D01*
X308597Y318360D01*
X308649Y318191D01*
X308661Y318169D01*
X308669Y318145D01*
X308757Y317992D01*
X308841Y317837D01*
X308857Y317818D01*
X308870Y317796D01*
X308986Y317663D01*
X309098Y317528D01*
X309118Y317512D01*
X309135Y317493D01*
X309395Y317287D01*
X313922Y314269D01*
X313946Y314256D01*
X313968Y314239D01*
X314124Y314162D01*
X314277Y314080D01*
X314304Y314072D01*
X314329Y314060D01*
X314497Y314015D01*
X314663Y313965D01*
X314691Y313963D01*
X314718Y313955D01*
X315048Y313928D01*
X317010Y313928D01*
X317713Y313740D01*
X317826Y313681D01*
X317880Y313666D01*
X317930Y313643D01*
X318073Y313610D01*
X318213Y313569D01*
X318269Y313565D01*
X318322Y313553D01*
X318469Y313549D01*
X318615Y313537D01*
X318670Y313543D01*
G37*
%LPC*%
G36*
X29839Y356695D02*
X29839Y356695D01*
X25574Y358462D01*
X22309Y361726D01*
X20543Y365992D01*
X20543Y370608D01*
X22309Y374874D01*
X25574Y378138D01*
X27953Y379123D01*
X27961Y379128D01*
X27969Y379130D01*
X28139Y379223D01*
X28308Y379314D01*
X28314Y379319D01*
X28322Y379324D01*
X28471Y379448D01*
X28618Y379570D01*
X28624Y379577D01*
X28631Y379583D01*
X28750Y379733D01*
X28872Y379883D01*
X28876Y379891D01*
X28881Y379898D01*
X28968Y380067D01*
X29059Y380239D01*
X29061Y380248D01*
X29065Y380256D01*
X29117Y380438D01*
X29172Y380626D01*
X29173Y380635D01*
X29175Y380643D01*
X29190Y380834D01*
X29207Y381027D01*
X29206Y381036D01*
X29206Y381044D01*
X29183Y381235D01*
X29161Y381427D01*
X29159Y381435D01*
X29158Y381444D01*
X29097Y381626D01*
X29038Y381810D01*
X29034Y381818D01*
X29031Y381826D01*
X28936Y381994D01*
X28842Y382162D01*
X28836Y382168D01*
X28832Y382176D01*
X28704Y382322D01*
X28580Y382467D01*
X28573Y382473D01*
X28567Y382480D01*
X28415Y382597D01*
X28263Y382716D01*
X28255Y382720D01*
X28248Y382725D01*
X27953Y382877D01*
X25574Y383862D01*
X22309Y387126D01*
X20543Y391392D01*
X20543Y396008D01*
X22309Y400274D01*
X25574Y403538D01*
X29839Y405305D01*
X49536Y405305D01*
X53801Y403538D01*
X57066Y400274D01*
X58832Y396008D01*
X58832Y391392D01*
X57066Y387126D01*
X53801Y383862D01*
X51422Y382877D01*
X51414Y382872D01*
X51406Y382870D01*
X51238Y382778D01*
X51067Y382686D01*
X51060Y382681D01*
X51053Y382676D01*
X50906Y382553D01*
X50757Y382430D01*
X50751Y382423D01*
X50745Y382417D01*
X50625Y382267D01*
X50503Y382117D01*
X50499Y382109D01*
X50494Y382103D01*
X50406Y381932D01*
X50316Y381761D01*
X50314Y381752D01*
X50310Y381744D01*
X50257Y381560D01*
X50203Y381374D01*
X50202Y381366D01*
X50200Y381357D01*
X50185Y381166D01*
X50168Y380973D01*
X50169Y380964D01*
X50169Y380956D01*
X50192Y380766D01*
X50214Y380573D01*
X50216Y380565D01*
X50217Y380556D01*
X50278Y380374D01*
X50337Y380190D01*
X50341Y380182D01*
X50344Y380174D01*
X50440Y380006D01*
X50533Y379838D01*
X50539Y379832D01*
X50543Y379824D01*
X50670Y379679D01*
X50795Y379533D01*
X50802Y379527D01*
X50808Y379520D01*
X50961Y379403D01*
X51112Y379284D01*
X51120Y379280D01*
X51127Y379275D01*
X51422Y379123D01*
X53801Y378138D01*
X57066Y374874D01*
X58832Y370608D01*
X58832Y365992D01*
X57066Y361726D01*
X53801Y358462D01*
X49536Y356695D01*
X29839Y356695D01*
G37*
%LPD*%
%LPC*%
G36*
X410839Y429720D02*
X410839Y429720D01*
X406574Y431487D01*
X403309Y434751D01*
X401543Y439017D01*
X401543Y443633D01*
X403309Y447899D01*
X406574Y451163D01*
X408659Y452027D01*
X408953Y452148D01*
X408961Y452153D01*
X408969Y452155D01*
X409139Y452248D01*
X409308Y452339D01*
X409315Y452344D01*
X409322Y452349D01*
X409470Y452472D01*
X409618Y452595D01*
X409624Y452602D01*
X409631Y452608D01*
X409751Y452759D01*
X409872Y452908D01*
X409876Y452915D01*
X409882Y452923D01*
X409971Y453096D01*
X410059Y453264D01*
X410061Y453273D01*
X410065Y453281D01*
X410118Y453465D01*
X410172Y453651D01*
X410173Y453660D01*
X410175Y453668D01*
X410190Y453859D01*
X410207Y454052D01*
X410206Y454061D01*
X410206Y454069D01*
X410183Y454261D01*
X410161Y454452D01*
X410159Y454460D01*
X410158Y454469D01*
X410097Y454652D01*
X410038Y454835D01*
X410034Y454843D01*
X410031Y454851D01*
X409936Y455018D01*
X409842Y455187D01*
X409836Y455193D01*
X409832Y455201D01*
X409706Y455345D01*
X409580Y455492D01*
X409573Y455498D01*
X409567Y455505D01*
X409415Y455622D01*
X409263Y455741D01*
X409255Y455745D01*
X409248Y455750D01*
X408953Y455902D01*
X406574Y456887D01*
X403309Y460151D01*
X401543Y464417D01*
X401543Y469033D01*
X403309Y473299D01*
X406574Y476563D01*
X410839Y478330D01*
X430536Y478330D01*
X434801Y476563D01*
X438066Y473299D01*
X439832Y469033D01*
X439832Y464417D01*
X438066Y460151D01*
X434801Y456887D01*
X432422Y455902D01*
X432414Y455897D01*
X432406Y455895D01*
X432238Y455803D01*
X432067Y455711D01*
X432060Y455706D01*
X432053Y455701D01*
X431905Y455578D01*
X431757Y455455D01*
X431751Y455448D01*
X431744Y455442D01*
X431625Y455292D01*
X431503Y455142D01*
X431499Y455134D01*
X431494Y455128D01*
X431406Y454957D01*
X431316Y454786D01*
X431314Y454777D01*
X431310Y454769D01*
X431258Y454586D01*
X431203Y454400D01*
X431202Y454390D01*
X431200Y454382D01*
X431185Y454191D01*
X431168Y453998D01*
X431169Y453989D01*
X431169Y453981D01*
X431192Y453791D01*
X431214Y453598D01*
X431216Y453590D01*
X431217Y453581D01*
X431277Y453401D01*
X431337Y453215D01*
X431341Y453207D01*
X431344Y453199D01*
X431439Y453033D01*
X431533Y452864D01*
X431539Y452857D01*
X431543Y452849D01*
X431670Y452704D01*
X431795Y452558D01*
X431802Y452552D01*
X431808Y452545D01*
X431960Y452428D01*
X432112Y452309D01*
X432120Y452305D01*
X432127Y452300D01*
X432422Y452148D01*
X434801Y451163D01*
X438066Y447899D01*
X439832Y443633D01*
X439832Y439017D01*
X438066Y434751D01*
X434801Y431487D01*
X430536Y429720D01*
X410839Y429720D01*
G37*
%LPD*%
%LPC*%
G36*
X310429Y484093D02*
X310429Y484093D01*
X306164Y485859D01*
X302899Y489124D01*
X301028Y493641D01*
X301005Y493685D01*
X300988Y493732D01*
X300963Y493773D01*
X300953Y493799D01*
X300902Y493877D01*
X300838Y493996D01*
X300807Y494034D01*
X300781Y494077D01*
X300746Y494115D01*
X300733Y494136D01*
X300670Y494199D01*
X300582Y494307D01*
X300543Y494338D01*
X300510Y494374D01*
X300467Y494406D01*
X300450Y494423D01*
X300380Y494471D01*
X300269Y494560D01*
X300225Y494583D01*
X300185Y494613D01*
X300135Y494636D01*
X300116Y494649D01*
X300041Y494680D01*
X299913Y494747D01*
X299865Y494761D01*
X299820Y494782D01*
X299765Y494795D01*
X299745Y494804D01*
X299666Y494820D01*
X299526Y494861D01*
X299477Y494865D01*
X299429Y494876D01*
X299371Y494879D01*
X299350Y494883D01*
X299270Y494883D01*
X299125Y494895D01*
X299076Y494890D01*
X299026Y494891D01*
X298970Y494882D01*
X298948Y494882D01*
X298867Y494866D01*
X298725Y494850D01*
X298678Y494835D01*
X298629Y494827D01*
X298576Y494807D01*
X298553Y494802D01*
X298476Y494770D01*
X298342Y494727D01*
X298298Y494703D01*
X298252Y494685D01*
X298206Y494656D01*
X298182Y494646D01*
X298110Y494597D01*
X297990Y494530D01*
X297953Y494498D01*
X297911Y494472D01*
X297872Y494436D01*
X297849Y494420D01*
X297785Y494354D01*
X297684Y494269D01*
X297654Y494230D01*
X297618Y494196D01*
X297589Y494155D01*
X297567Y494133D01*
X297514Y494051D01*
X297436Y493952D01*
X297414Y493907D01*
X297385Y493867D01*
X297366Y493824D01*
X297347Y493795D01*
X297298Y493676D01*
X297255Y493592D01*
X297242Y493544D01*
X297222Y493499D01*
X297220Y493491D01*
X297219Y493489D01*
X296680Y491828D01*
X295959Y490414D01*
X295027Y489130D01*
X293905Y488008D01*
X292621Y487076D01*
X291207Y486355D01*
X289837Y485910D01*
X289837Y502769D01*
X289835Y502787D01*
X289836Y502805D01*
X289815Y502986D01*
X289797Y503170D01*
X289792Y503187D01*
X289790Y503205D01*
X289776Y503245D01*
X289804Y503340D01*
X289805Y503358D01*
X289810Y503375D01*
X289837Y503706D01*
X289837Y520565D01*
X291207Y520120D01*
X292621Y519399D01*
X293905Y518467D01*
X295027Y517345D01*
X295959Y516061D01*
X296680Y514647D01*
X297219Y512986D01*
X297235Y512951D01*
X297246Y512909D01*
X297267Y512864D01*
X297282Y512817D01*
X297340Y512711D01*
X297381Y512617D01*
X297401Y512589D01*
X297421Y512547D01*
X297452Y512507D01*
X297475Y512464D01*
X297557Y512367D01*
X297612Y512288D01*
X297635Y512267D01*
X297665Y512226D01*
X297703Y512194D01*
X297734Y512156D01*
X297838Y512073D01*
X297904Y512010D01*
X297928Y511995D01*
X297968Y511960D01*
X298010Y511936D01*
X298049Y511905D01*
X298172Y511842D01*
X298245Y511796D01*
X298269Y511787D01*
X298316Y511759D01*
X298363Y511744D01*
X298407Y511721D01*
X298543Y511683D01*
X298621Y511653D01*
X298645Y511649D01*
X298698Y511631D01*
X298747Y511625D01*
X298795Y511611D01*
X298938Y511600D01*
X299018Y511587D01*
X299041Y511588D01*
X299097Y511580D01*
X299147Y511584D01*
X299196Y511580D01*
X299340Y511598D01*
X299421Y511600D01*
X299442Y511605D01*
X299499Y511610D01*
X299547Y511623D01*
X299596Y511629D01*
X299734Y511674D01*
X299813Y511693D01*
X299832Y511702D01*
X299887Y511717D01*
X299931Y511740D01*
X299978Y511755D01*
X300103Y511827D01*
X300178Y511861D01*
X300197Y511875D01*
X300246Y511900D01*
X300285Y511930D01*
X300328Y511955D01*
X300435Y512048D01*
X300504Y512098D01*
X300520Y512116D01*
X300562Y512149D01*
X300594Y512187D01*
X300631Y512219D01*
X300716Y512329D01*
X300776Y512395D01*
X300790Y512417D01*
X300823Y512456D01*
X300847Y512499D01*
X300877Y512538D01*
X300953Y512687D01*
X300985Y512739D01*
X300994Y512766D01*
X301018Y512808D01*
X301021Y512820D01*
X301028Y512834D01*
X302899Y517351D01*
X306164Y520616D01*
X307308Y521089D01*
X310429Y522382D01*
X315046Y522382D01*
X319311Y520616D01*
X322576Y517351D01*
X324342Y513086D01*
X324342Y493389D01*
X322576Y489124D01*
X319311Y485859D01*
X315046Y484093D01*
X310429Y484093D01*
G37*
%LPD*%
%LPC*%
G36*
X365992Y484093D02*
X365992Y484093D01*
X361726Y485859D01*
X358462Y489124D01*
X356591Y493641D01*
X356567Y493685D01*
X356551Y493732D01*
X356526Y493773D01*
X356515Y493799D01*
X356464Y493877D01*
X356401Y493996D01*
X356369Y494034D01*
X356344Y494077D01*
X356309Y494115D01*
X356295Y494136D01*
X356233Y494199D01*
X356144Y494307D01*
X356106Y494338D01*
X356072Y494374D01*
X356029Y494406D01*
X356013Y494423D01*
X355942Y494471D01*
X355832Y494560D01*
X355788Y494583D01*
X355748Y494613D01*
X355697Y494636D01*
X355679Y494649D01*
X355603Y494680D01*
X355475Y494747D01*
X355428Y494761D01*
X355383Y494782D01*
X355327Y494795D01*
X355308Y494804D01*
X355228Y494820D01*
X355089Y494861D01*
X355039Y494865D01*
X354991Y494876D01*
X354934Y494879D01*
X354913Y494883D01*
X354832Y494883D01*
X354688Y494895D01*
X354638Y494890D01*
X354589Y494891D01*
X354533Y494882D01*
X354510Y494882D01*
X354430Y494866D01*
X354287Y494850D01*
X354240Y494835D01*
X354191Y494827D01*
X354139Y494807D01*
X354115Y494802D01*
X354038Y494770D01*
X353904Y494727D01*
X353861Y494703D01*
X353815Y494685D01*
X353768Y494656D01*
X353744Y494646D01*
X353672Y494597D01*
X353553Y494530D01*
X353515Y494498D01*
X353473Y494472D01*
X353435Y494436D01*
X353411Y494420D01*
X353347Y494354D01*
X353247Y494269D01*
X353216Y494230D01*
X353180Y494196D01*
X353152Y494155D01*
X353129Y494133D01*
X353077Y494051D01*
X352999Y493952D01*
X352976Y493907D01*
X352948Y493867D01*
X352929Y493824D01*
X352910Y493795D01*
X352860Y493676D01*
X352818Y493592D01*
X352805Y493544D01*
X352785Y493499D01*
X352783Y493491D01*
X352782Y493489D01*
X352242Y491828D01*
X351522Y490414D01*
X350589Y489130D01*
X349467Y488008D01*
X348184Y487076D01*
X346770Y486355D01*
X345399Y485910D01*
X345399Y502769D01*
X345397Y502787D01*
X345399Y502805D01*
X345378Y502986D01*
X345359Y503170D01*
X345354Y503187D01*
X345352Y503205D01*
X345339Y503245D01*
X345366Y503340D01*
X345368Y503358D01*
X345372Y503375D01*
X345399Y503706D01*
X345399Y520565D01*
X346770Y520120D01*
X348184Y519399D01*
X349467Y518467D01*
X350589Y517345D01*
X351522Y516061D01*
X352242Y514647D01*
X352782Y512986D01*
X352797Y512951D01*
X352808Y512909D01*
X352830Y512864D01*
X352844Y512817D01*
X352903Y512711D01*
X352944Y512617D01*
X352963Y512589D01*
X352984Y512547D01*
X353014Y512507D01*
X353038Y512464D01*
X353120Y512367D01*
X353175Y512288D01*
X353197Y512267D01*
X353228Y512226D01*
X353265Y512194D01*
X353297Y512156D01*
X353401Y512073D01*
X353467Y512010D01*
X353490Y511995D01*
X353530Y511960D01*
X353573Y511936D01*
X353612Y511905D01*
X353734Y511842D01*
X353807Y511796D01*
X353831Y511787D01*
X353879Y511759D01*
X353926Y511744D01*
X353970Y511721D01*
X354106Y511683D01*
X354184Y511653D01*
X354207Y511649D01*
X354260Y511631D01*
X354310Y511625D01*
X354357Y511611D01*
X354501Y511600D01*
X354581Y511587D01*
X354603Y511588D01*
X354660Y511580D01*
X354709Y511584D01*
X354759Y511580D01*
X354903Y511598D01*
X354983Y511600D01*
X355004Y511605D01*
X355061Y511610D01*
X355109Y511623D01*
X355158Y511629D01*
X355296Y511674D01*
X355375Y511693D01*
X355395Y511702D01*
X355449Y511717D01*
X355494Y511740D01*
X355540Y511755D01*
X355666Y511827D01*
X355741Y511861D01*
X355759Y511875D01*
X355808Y511900D01*
X355847Y511930D01*
X355890Y511955D01*
X355998Y512048D01*
X356066Y512098D01*
X356083Y512116D01*
X356124Y512149D01*
X356156Y512187D01*
X356194Y512219D01*
X356278Y512329D01*
X356339Y512395D01*
X356352Y512417D01*
X356385Y512456D01*
X356409Y512499D01*
X356439Y512538D01*
X356516Y512687D01*
X356547Y512739D01*
X356557Y512766D01*
X356580Y512808D01*
X356584Y512820D01*
X356591Y512834D01*
X358462Y517351D01*
X361726Y520616D01*
X362870Y521089D01*
X365992Y522382D01*
X370608Y522382D01*
X374874Y520616D01*
X378138Y517351D01*
X379905Y513086D01*
X379905Y493389D01*
X378138Y489124D01*
X374874Y485859D01*
X370608Y484093D01*
X365992Y484093D01*
G37*
%LPD*%
%LPC*%
G36*
X29839Y439245D02*
X29839Y439245D01*
X25574Y441012D01*
X22309Y444276D01*
X20543Y448542D01*
X20543Y453158D01*
X22309Y457424D01*
X25574Y460688D01*
X30091Y462559D01*
X30133Y462582D01*
X30178Y462598D01*
X30222Y462624D01*
X30249Y462635D01*
X30327Y462686D01*
X30446Y462749D01*
X30483Y462780D01*
X30524Y462804D01*
X30563Y462840D01*
X30586Y462855D01*
X30649Y462917D01*
X30757Y463006D01*
X30787Y463043D01*
X30822Y463075D01*
X30855Y463120D01*
X30873Y463137D01*
X30921Y463208D01*
X31010Y463318D01*
X31032Y463361D01*
X31061Y463399D01*
X31085Y463451D01*
X31099Y463471D01*
X31130Y463547D01*
X31197Y463675D01*
X31211Y463721D01*
X31231Y463764D01*
X31245Y463821D01*
X31254Y463842D01*
X31270Y463922D01*
X31310Y464061D01*
X31315Y464109D01*
X31326Y464155D01*
X31328Y464214D01*
X31333Y464237D01*
X31333Y464318D01*
X31345Y464462D01*
X31340Y464510D01*
X31342Y464558D01*
X31332Y464616D01*
X31332Y464640D01*
X31316Y464720D01*
X31300Y464863D01*
X31285Y464908D01*
X31278Y464955D01*
X31257Y465009D01*
X31252Y465035D01*
X31220Y465112D01*
X31177Y465246D01*
X31153Y465288D01*
X31137Y465332D01*
X31107Y465380D01*
X31096Y465406D01*
X31047Y465478D01*
X30980Y465597D01*
X30949Y465634D01*
X30924Y465674D01*
X30887Y465714D01*
X30870Y465739D01*
X30804Y465803D01*
X30719Y465903D01*
X30681Y465933D01*
X30648Y465967D01*
X30606Y465997D01*
X30583Y466021D01*
X30501Y466074D01*
X30402Y466151D01*
X30359Y466173D01*
X30320Y466201D01*
X30276Y466220D01*
X30245Y466240D01*
X30126Y466290D01*
X30042Y466332D01*
X29996Y466345D01*
X29952Y466364D01*
X29943Y466367D01*
X29939Y466368D01*
X28278Y466908D01*
X26864Y467628D01*
X25580Y468561D01*
X24458Y469683D01*
X23526Y470966D01*
X22805Y472380D01*
X22360Y473751D01*
X39219Y473751D01*
X39237Y473752D01*
X39255Y473751D01*
X39437Y473772D01*
X39620Y473791D01*
X39637Y473796D01*
X39655Y473798D01*
X39695Y473811D01*
X39790Y473784D01*
X39808Y473782D01*
X39825Y473778D01*
X40156Y473751D01*
X57015Y473751D01*
X56570Y472380D01*
X55849Y470966D01*
X54917Y469683D01*
X53795Y468561D01*
X52511Y467628D01*
X51097Y466908D01*
X49436Y466368D01*
X49400Y466352D01*
X49356Y466341D01*
X49313Y466320D01*
X49267Y466306D01*
X49161Y466247D01*
X49067Y466206D01*
X49038Y466186D01*
X48994Y466164D01*
X48956Y466135D01*
X48914Y466112D01*
X48817Y466030D01*
X48738Y465975D01*
X48715Y465951D01*
X48674Y465920D01*
X48643Y465884D01*
X48606Y465853D01*
X48523Y465749D01*
X48460Y465683D01*
X48445Y465658D01*
X48408Y465617D01*
X48385Y465576D01*
X48355Y465538D01*
X48292Y465416D01*
X48246Y465343D01*
X48236Y465317D01*
X48208Y465268D01*
X48193Y465223D01*
X48171Y465180D01*
X48133Y465045D01*
X48103Y464966D01*
X48099Y464941D01*
X48080Y464886D01*
X48074Y464839D01*
X48061Y464793D01*
X48050Y464650D01*
X48037Y464569D01*
X48038Y464545D01*
X48030Y464487D01*
X48034Y464439D01*
X48030Y464391D01*
X48048Y464248D01*
X48050Y464167D01*
X48056Y464144D01*
X48060Y464085D01*
X48073Y464039D01*
X48079Y463992D01*
X48124Y463854D01*
X48143Y463775D01*
X48153Y463754D01*
X48169Y463697D01*
X48190Y463655D01*
X48205Y463610D01*
X48277Y463484D01*
X48311Y463409D01*
X48326Y463390D01*
X48351Y463339D01*
X48381Y463301D01*
X48405Y463260D01*
X48498Y463153D01*
X48548Y463084D01*
X48567Y463066D01*
X48601Y463023D01*
X48638Y462992D01*
X48669Y462956D01*
X48779Y462872D01*
X48845Y462811D01*
X48869Y462797D01*
X48909Y462763D01*
X48951Y462740D01*
X48988Y462711D01*
X49137Y462634D01*
X49189Y462603D01*
X49218Y462593D01*
X49261Y462569D01*
X49272Y462565D01*
X49284Y462559D01*
X53801Y460688D01*
X57066Y457424D01*
X58832Y453158D01*
X58832Y448542D01*
X57066Y444276D01*
X53801Y441012D01*
X49536Y439245D01*
X29839Y439245D01*
G37*
%LPD*%
%LPC*%
G36*
X410839Y375745D02*
X410839Y375745D01*
X406574Y377512D01*
X403309Y380776D01*
X401543Y385042D01*
X401543Y389658D01*
X403309Y393924D01*
X406574Y397188D01*
X411091Y399059D01*
X411135Y399083D01*
X411182Y399099D01*
X411223Y399124D01*
X411249Y399135D01*
X411327Y399186D01*
X411446Y399249D01*
X411484Y399281D01*
X411527Y399306D01*
X411565Y399341D01*
X411586Y399355D01*
X411649Y399417D01*
X411757Y399506D01*
X411788Y399544D01*
X411824Y399578D01*
X411856Y399621D01*
X411873Y399637D01*
X411921Y399708D01*
X412010Y399818D01*
X412033Y399862D01*
X412063Y399902D01*
X412086Y399953D01*
X412099Y399971D01*
X412130Y400047D01*
X412197Y400175D01*
X412211Y400222D01*
X412232Y400267D01*
X412245Y400323D01*
X412254Y400342D01*
X412270Y400422D01*
X412311Y400561D01*
X412315Y400611D01*
X412326Y400659D01*
X412329Y400716D01*
X412333Y400737D01*
X412333Y400818D01*
X412345Y400962D01*
X412340Y401012D01*
X412341Y401061D01*
X412332Y401117D01*
X412332Y401140D01*
X412316Y401220D01*
X412300Y401363D01*
X412285Y401410D01*
X412277Y401459D01*
X412257Y401511D01*
X412252Y401535D01*
X412220Y401612D01*
X412177Y401746D01*
X412153Y401789D01*
X412135Y401835D01*
X412106Y401882D01*
X412096Y401906D01*
X412047Y401978D01*
X411980Y402097D01*
X411948Y402135D01*
X411922Y402177D01*
X411886Y402215D01*
X411870Y402239D01*
X411804Y402303D01*
X411719Y402403D01*
X411680Y402434D01*
X411646Y402470D01*
X411605Y402498D01*
X411583Y402521D01*
X411501Y402573D01*
X411402Y402651D01*
X411357Y402674D01*
X411317Y402702D01*
X411274Y402721D01*
X411245Y402740D01*
X411126Y402790D01*
X411042Y402832D01*
X410994Y402845D01*
X410949Y402865D01*
X410941Y402867D01*
X410939Y402868D01*
X409278Y403408D01*
X407864Y404128D01*
X406580Y405061D01*
X405458Y406183D01*
X404526Y407466D01*
X403805Y408880D01*
X403360Y410251D01*
X420219Y410251D01*
X420237Y410252D01*
X420255Y410251D01*
X420437Y410272D01*
X420620Y410291D01*
X420637Y410296D01*
X420655Y410298D01*
X420695Y410311D01*
X420790Y410284D01*
X420808Y410282D01*
X420825Y410278D01*
X421156Y410251D01*
X438015Y410251D01*
X437570Y408880D01*
X436849Y407466D01*
X435917Y406183D01*
X434795Y405061D01*
X433511Y404128D01*
X432097Y403408D01*
X430436Y402868D01*
X430401Y402853D01*
X430359Y402842D01*
X430314Y402820D01*
X430267Y402806D01*
X430161Y402747D01*
X430067Y402706D01*
X430039Y402687D01*
X429997Y402666D01*
X429957Y402636D01*
X429914Y402612D01*
X429817Y402530D01*
X429738Y402475D01*
X429717Y402453D01*
X429676Y402422D01*
X429644Y402385D01*
X429606Y402353D01*
X429523Y402249D01*
X429460Y402183D01*
X429445Y402160D01*
X429410Y402120D01*
X429386Y402077D01*
X429355Y402038D01*
X429292Y401916D01*
X429246Y401843D01*
X429237Y401819D01*
X429209Y401771D01*
X429194Y401724D01*
X429171Y401680D01*
X429133Y401544D01*
X429103Y401466D01*
X429099Y401443D01*
X429081Y401390D01*
X429075Y401340D01*
X429061Y401293D01*
X429050Y401149D01*
X429037Y401069D01*
X429038Y401047D01*
X429030Y400990D01*
X429034Y400941D01*
X429030Y400891D01*
X429048Y400747D01*
X429050Y400667D01*
X429055Y400646D01*
X429060Y400589D01*
X429073Y400541D01*
X429079Y400492D01*
X429124Y400354D01*
X429143Y400275D01*
X429152Y400255D01*
X429167Y400201D01*
X429190Y400156D01*
X429205Y400110D01*
X429277Y399984D01*
X429311Y399909D01*
X429325Y399891D01*
X429350Y399842D01*
X429380Y399803D01*
X429405Y399760D01*
X429498Y399652D01*
X429548Y399584D01*
X429566Y399567D01*
X429599Y399526D01*
X429637Y399494D01*
X429669Y399456D01*
X429779Y399372D01*
X429845Y399311D01*
X429867Y399298D01*
X429906Y399265D01*
X429949Y399241D01*
X429988Y399211D01*
X430137Y399134D01*
X430189Y399103D01*
X430216Y399093D01*
X430258Y399070D01*
X430270Y399066D01*
X430284Y399059D01*
X434801Y397188D01*
X438066Y393924D01*
X439832Y389658D01*
X439832Y385042D01*
X438066Y380776D01*
X434801Y377512D01*
X430536Y375745D01*
X410839Y375745D01*
G37*
%LPD*%
%LPC*%
G36*
X287047Y425223D02*
X287047Y425223D01*
X284163Y426418D01*
X281955Y428625D01*
X280761Y431509D01*
X280761Y434631D01*
X281957Y437518D01*
X282060Y437651D01*
X282171Y437787D01*
X282183Y437810D01*
X282200Y437832D01*
X282278Y437988D01*
X282360Y438142D01*
X282367Y438168D01*
X282379Y438192D01*
X282425Y438361D01*
X282474Y438528D01*
X282477Y438555D01*
X282484Y438581D01*
X282511Y438912D01*
X282511Y439363D01*
X283439Y441604D01*
X288964Y447129D01*
X290982Y447964D01*
X291205Y448057D01*
X317753Y448057D01*
X317766Y448058D01*
X317779Y448057D01*
X317966Y448078D01*
X318153Y448097D01*
X318166Y448101D01*
X318180Y448102D01*
X318358Y448160D01*
X318538Y448215D01*
X318550Y448221D01*
X318563Y448225D01*
X318727Y448317D01*
X318892Y448407D01*
X318903Y448415D01*
X318914Y448422D01*
X319058Y448545D01*
X319202Y448664D01*
X319210Y448675D01*
X319220Y448683D01*
X319337Y448832D01*
X319454Y448978D01*
X319460Y448990D01*
X319468Y449000D01*
X319553Y449170D01*
X319639Y449335D01*
X319643Y449348D01*
X319649Y449360D01*
X319699Y449542D01*
X319751Y449722D01*
X319752Y449736D01*
X319755Y449749D01*
X319768Y449935D01*
X319784Y450124D01*
X319782Y450137D01*
X319783Y450150D01*
X319759Y450336D01*
X319737Y450523D01*
X319733Y450536D01*
X319731Y450549D01*
X319629Y450865D01*
X319491Y451199D01*
X319491Y454320D01*
X320686Y457204D01*
X322893Y459412D01*
X325777Y460606D01*
X328899Y460606D01*
X331783Y459412D01*
X333990Y457204D01*
X335185Y454320D01*
X335185Y451199D01*
X333989Y448311D01*
X333885Y448178D01*
X333775Y448043D01*
X333762Y448019D01*
X333746Y447998D01*
X333668Y447841D01*
X333586Y447687D01*
X333578Y447661D01*
X333566Y447637D01*
X333521Y447468D01*
X333471Y447301D01*
X333469Y447274D01*
X333462Y447249D01*
X333435Y446918D01*
X333435Y446458D01*
X332507Y444217D01*
X325081Y436791D01*
X322840Y435863D01*
X298485Y435863D01*
X298468Y435861D01*
X298450Y435863D01*
X298268Y435842D01*
X298085Y435823D01*
X298068Y435818D01*
X298050Y435816D01*
X297876Y435759D01*
X297700Y435705D01*
X297684Y435697D01*
X297667Y435691D01*
X297507Y435601D01*
X297346Y435513D01*
X297332Y435502D01*
X297317Y435493D01*
X297177Y435373D01*
X297037Y435256D01*
X297025Y435242D01*
X297012Y435230D01*
X296899Y435085D01*
X296784Y434942D01*
X296776Y434926D01*
X296765Y434912D01*
X296683Y434747D01*
X296599Y434585D01*
X296594Y434568D01*
X296586Y434552D01*
X296538Y434373D01*
X296487Y434198D01*
X296486Y434180D01*
X296481Y434163D01*
X296454Y433832D01*
X296454Y431509D01*
X295260Y428625D01*
X293052Y426418D01*
X290168Y425223D01*
X287047Y425223D01*
G37*
%LPD*%
%LPC*%
G36*
X356552Y417448D02*
X356552Y417448D01*
X352444Y419150D01*
X349300Y422294D01*
X347598Y426402D01*
X347598Y430848D01*
X349300Y434956D01*
X352444Y438100D01*
X354472Y438940D01*
X354476Y438943D01*
X354481Y438944D01*
X354652Y439037D01*
X354827Y439131D01*
X354831Y439133D01*
X354835Y439136D01*
X354985Y439261D01*
X355138Y439387D01*
X355140Y439390D01*
X355144Y439393D01*
X355267Y439546D01*
X355391Y439700D01*
X355393Y439704D01*
X355396Y439707D01*
X355486Y439880D01*
X355578Y440056D01*
X355580Y440060D01*
X355582Y440064D01*
X355636Y440252D01*
X355691Y440443D01*
X355692Y440447D01*
X355693Y440451D01*
X355709Y440649D01*
X355726Y440844D01*
X355726Y440848D01*
X355726Y440853D01*
X355703Y441047D01*
X355681Y441244D01*
X355680Y441248D01*
X355679Y441252D01*
X355619Y441438D01*
X355558Y441627D01*
X355556Y441631D01*
X355554Y441635D01*
X355458Y441807D01*
X355361Y441979D01*
X355359Y441982D01*
X355356Y441986D01*
X355228Y442134D01*
X355100Y442284D01*
X355096Y442287D01*
X355093Y442291D01*
X354939Y442411D01*
X354783Y442533D01*
X354779Y442535D01*
X354775Y442537D01*
X354597Y442626D01*
X354423Y442713D01*
X354419Y442715D01*
X354415Y442717D01*
X354227Y442767D01*
X347598Y449395D01*
X347598Y458655D01*
X354145Y465202D01*
X363405Y465202D01*
X369952Y458655D01*
X369952Y449395D01*
X363325Y442769D01*
X363258Y442748D01*
X363069Y442690D01*
X363065Y442688D01*
X363061Y442687D01*
X362887Y442591D01*
X362715Y442498D01*
X362712Y442496D01*
X362708Y442493D01*
X362555Y442365D01*
X362406Y442241D01*
X362403Y442237D01*
X362400Y442234D01*
X362275Y442078D01*
X362154Y441927D01*
X362152Y441923D01*
X362149Y441920D01*
X362056Y441739D01*
X361968Y441570D01*
X361967Y441565D01*
X361965Y441561D01*
X361911Y441371D01*
X361857Y441183D01*
X361857Y441178D01*
X361855Y441174D01*
X361840Y440982D01*
X361824Y440781D01*
X361825Y440777D01*
X361824Y440773D01*
X361848Y440579D01*
X361871Y440382D01*
X361872Y440377D01*
X361873Y440373D01*
X361934Y440188D01*
X361996Y439999D01*
X361998Y439995D01*
X361999Y439991D01*
X362096Y439822D01*
X362194Y439648D01*
X362197Y439645D01*
X362199Y439641D01*
X362327Y439494D01*
X362457Y439344D01*
X362460Y439341D01*
X362463Y439337D01*
X362620Y439217D01*
X362775Y439097D01*
X362779Y439095D01*
X362782Y439092D01*
X363078Y438940D01*
X365106Y438100D01*
X368250Y434956D01*
X369952Y430848D01*
X369952Y426402D01*
X368250Y422294D01*
X365106Y419150D01*
X360998Y417448D01*
X356552Y417448D01*
G37*
%LPD*%
%LPC*%
G36*
X428232Y187578D02*
X428232Y187578D01*
X421046Y194764D01*
X421032Y194775D01*
X421021Y194789D01*
X420877Y194902D01*
X420735Y195019D01*
X420719Y195027D01*
X420705Y195039D01*
X420541Y195122D01*
X420379Y195208D01*
X420362Y195213D01*
X420346Y195221D01*
X420169Y195270D01*
X419993Y195322D01*
X419975Y195324D01*
X419958Y195329D01*
X419775Y195342D01*
X419592Y195359D01*
X419574Y195357D01*
X419557Y195358D01*
X419375Y195335D01*
X419192Y195315D01*
X419175Y195310D01*
X419157Y195308D01*
X418983Y195249D01*
X418808Y195194D01*
X418792Y195185D01*
X418775Y195180D01*
X418616Y195088D01*
X418456Y194999D01*
X418442Y194988D01*
X418427Y194979D01*
X418174Y194764D01*
X412512Y189102D01*
X410019Y189102D01*
X410019Y200025D01*
X410019Y210948D01*
X412512Y210948D01*
X418174Y205286D01*
X418187Y205275D01*
X418199Y205261D01*
X418343Y205147D01*
X418485Y205031D01*
X418501Y205023D01*
X418515Y205011D01*
X418679Y204928D01*
X418841Y204842D01*
X418858Y204837D01*
X418874Y204829D01*
X419051Y204780D01*
X419227Y204728D01*
X419244Y204726D01*
X419262Y204721D01*
X419445Y204708D01*
X419628Y204691D01*
X419645Y204693D01*
X419663Y204692D01*
X419845Y204715D01*
X420028Y204735D01*
X420045Y204740D01*
X420063Y204742D01*
X420236Y204801D01*
X420412Y204856D01*
X420427Y204865D01*
X420444Y204870D01*
X420604Y204962D01*
X420764Y205051D01*
X420778Y205062D01*
X420793Y205071D01*
X421046Y205286D01*
X428232Y212472D01*
X438543Y212472D01*
X445834Y205181D01*
X445834Y194869D01*
X438543Y187578D01*
X428232Y187578D01*
G37*
%LPD*%
%LPC*%
G36*
X167882Y362203D02*
X167882Y362203D01*
X160591Y369494D01*
X160591Y379806D01*
X167882Y387097D01*
X178193Y387097D01*
X185484Y379806D01*
X185484Y369494D01*
X178193Y362203D01*
X167882Y362203D01*
G37*
%LPD*%
%LPC*%
G36*
X82157Y95503D02*
X82157Y95503D01*
X74866Y102794D01*
X74866Y113106D01*
X82157Y120397D01*
X92468Y120397D01*
X99759Y113106D01*
X99759Y102794D01*
X92468Y95503D01*
X82157Y95503D01*
G37*
%LPD*%
%LPC*%
G36*
X185102Y222186D02*
X185102Y222186D01*
X180994Y223887D01*
X177850Y227031D01*
X176148Y231139D01*
X176148Y235586D01*
X177850Y239694D01*
X180994Y242838D01*
X185102Y244539D01*
X189548Y244539D01*
X193656Y242838D01*
X196800Y239694D01*
X198502Y235586D01*
X198502Y231139D01*
X196800Y227031D01*
X193656Y223887D01*
X192200Y223284D01*
X192199Y223284D01*
X189548Y222186D01*
X185102Y222186D01*
G37*
%LPD*%
%LPC*%
G36*
X115252Y222186D02*
X115252Y222186D01*
X111144Y223887D01*
X108000Y227031D01*
X106298Y231139D01*
X106298Y235586D01*
X108000Y239694D01*
X111144Y242838D01*
X115252Y244539D01*
X119698Y244539D01*
X123806Y242838D01*
X126950Y239694D01*
X128652Y235586D01*
X128652Y231139D01*
X126950Y227031D01*
X123806Y223887D01*
X122350Y223284D01*
X122349Y223284D01*
X119698Y222186D01*
X115252Y222186D01*
G37*
%LPD*%
%LPC*%
G36*
X42187Y478749D02*
X42187Y478749D01*
X42187Y486331D01*
X48021Y486331D01*
X49588Y486082D01*
X51097Y485592D01*
X52511Y484872D01*
X53795Y483939D01*
X54917Y482817D01*
X55849Y481534D01*
X56570Y480120D01*
X57015Y478749D01*
X42187Y478749D01*
G37*
%LPD*%
%LPC*%
G36*
X423187Y415249D02*
X423187Y415249D01*
X423187Y422831D01*
X429021Y422831D01*
X430588Y422582D01*
X432097Y422092D01*
X433511Y421372D01*
X434795Y420439D01*
X435917Y419317D01*
X436849Y418034D01*
X437570Y416620D01*
X438015Y415249D01*
X423187Y415249D01*
G37*
%LPD*%
%LPC*%
G36*
X42187Y161249D02*
X42187Y161249D01*
X42187Y168831D01*
X48021Y168831D01*
X49588Y168582D01*
X51097Y168092D01*
X52511Y167372D01*
X53795Y166439D01*
X54917Y165317D01*
X55849Y164034D01*
X56570Y162620D01*
X57015Y161249D01*
X42187Y161249D01*
G37*
%LPD*%
%LPC*%
G36*
X143787Y40599D02*
X143787Y40599D01*
X143787Y55427D01*
X145157Y54982D01*
X146571Y54262D01*
X147855Y53329D01*
X148977Y52207D01*
X149909Y50924D01*
X150630Y49510D01*
X151120Y48001D01*
X151368Y46433D01*
X151368Y40599D01*
X143787Y40599D01*
G37*
%LPD*%
%LPC*%
G36*
X169187Y40599D02*
X169187Y40599D01*
X169187Y55427D01*
X170557Y54982D01*
X171971Y54262D01*
X173255Y53329D01*
X174377Y52207D01*
X175309Y50924D01*
X176030Y49510D01*
X176520Y48001D01*
X176768Y46433D01*
X176768Y40599D01*
X169187Y40599D01*
G37*
%LPD*%
%LPC*%
G36*
X403360Y415249D02*
X403360Y415249D01*
X403805Y416620D01*
X404526Y418034D01*
X405458Y419317D01*
X406580Y420439D01*
X407864Y421372D01*
X409278Y422092D01*
X410787Y422582D01*
X412354Y422831D01*
X418188Y422831D01*
X418188Y415249D01*
X403360Y415249D01*
G37*
%LPD*%
%LPC*%
G36*
X22360Y478749D02*
X22360Y478749D01*
X22805Y480120D01*
X23526Y481534D01*
X24458Y482817D01*
X25580Y483939D01*
X26864Y484872D01*
X28278Y485592D01*
X29787Y486082D01*
X31354Y486331D01*
X37188Y486331D01*
X37188Y478749D01*
X22360Y478749D01*
G37*
%LPD*%
%LPC*%
G36*
X22360Y161249D02*
X22360Y161249D01*
X22805Y162620D01*
X23526Y164034D01*
X24458Y165317D01*
X25580Y166439D01*
X26864Y167372D01*
X28278Y168092D01*
X29787Y168582D01*
X31354Y168831D01*
X37188Y168831D01*
X37188Y161249D01*
X22360Y161249D01*
G37*
%LPD*%
%LPC*%
G36*
X143787Y35601D02*
X143787Y35601D01*
X151368Y35601D01*
X151368Y29767D01*
X151120Y28199D01*
X150630Y26690D01*
X149909Y25276D01*
X148977Y23993D01*
X147855Y22871D01*
X146571Y21938D01*
X145157Y21218D01*
X143787Y20773D01*
X143787Y35601D01*
G37*
%LPD*%
%LPC*%
G36*
X169187Y35601D02*
X169187Y35601D01*
X176768Y35601D01*
X176768Y29767D01*
X176520Y28199D01*
X176030Y26690D01*
X175309Y25276D01*
X174377Y23993D01*
X173255Y22871D01*
X171971Y21938D01*
X170557Y21218D01*
X169187Y20773D01*
X169187Y35601D01*
G37*
%LPD*%
%LPC*%
G36*
X332819Y505737D02*
X332819Y505737D01*
X332819Y511571D01*
X333068Y513138D01*
X333558Y514647D01*
X334278Y516061D01*
X335211Y517345D01*
X336333Y518467D01*
X337616Y519399D01*
X339030Y520120D01*
X340401Y520565D01*
X340401Y505737D01*
X332819Y505737D01*
G37*
%LPD*%
%LPC*%
G36*
X277257Y505737D02*
X277257Y505737D01*
X277257Y511571D01*
X277505Y513138D01*
X277995Y514647D01*
X278716Y516061D01*
X279648Y517345D01*
X280770Y518467D01*
X282054Y519399D01*
X283468Y520120D01*
X284838Y520565D01*
X284838Y505737D01*
X277257Y505737D01*
G37*
%LPD*%
%LPC*%
G36*
X42187Y180419D02*
X42187Y180419D01*
X42187Y188001D01*
X57015Y188001D01*
X56570Y186630D01*
X55849Y185216D01*
X54917Y183933D01*
X53795Y182811D01*
X52511Y181878D01*
X51097Y181158D01*
X49588Y180668D01*
X48021Y180419D01*
X42187Y180419D01*
G37*
%LPD*%
%LPC*%
G36*
X156607Y40599D02*
X156607Y40599D01*
X156607Y46433D01*
X156855Y48001D01*
X157345Y49510D01*
X158066Y50924D01*
X158998Y52207D01*
X160120Y53329D01*
X161404Y54262D01*
X162818Y54982D01*
X164188Y55427D01*
X164188Y40599D01*
X156607Y40599D01*
G37*
%LPD*%
%LPC*%
G36*
X283468Y486355D02*
X283468Y486355D01*
X282054Y487076D01*
X280770Y488008D01*
X279648Y489130D01*
X278716Y490414D01*
X277995Y491828D01*
X277505Y493337D01*
X277257Y494904D01*
X277257Y500738D01*
X284838Y500738D01*
X284838Y485910D01*
X283468Y486355D01*
G37*
%LPD*%
%LPC*%
G36*
X339030Y486355D02*
X339030Y486355D01*
X337616Y487076D01*
X336333Y488008D01*
X335211Y489130D01*
X334278Y490414D01*
X333558Y491828D01*
X333068Y493337D01*
X332819Y494904D01*
X332819Y500738D01*
X340401Y500738D01*
X340401Y485910D01*
X339030Y486355D01*
G37*
%LPD*%
%LPC*%
G36*
X31354Y180419D02*
X31354Y180419D01*
X29787Y180668D01*
X28278Y181158D01*
X26864Y181878D01*
X25580Y182811D01*
X24458Y183933D01*
X23526Y185216D01*
X22805Y186630D01*
X22360Y188001D01*
X37188Y188001D01*
X37188Y180419D01*
X31354Y180419D01*
G37*
%LPD*%
%LPC*%
G36*
X162818Y21218D02*
X162818Y21218D01*
X161404Y21938D01*
X160120Y22871D01*
X158998Y23993D01*
X158066Y25276D01*
X157345Y26690D01*
X156855Y28199D01*
X156607Y29767D01*
X156607Y35601D01*
X164188Y35601D01*
X164188Y20773D01*
X162818Y21218D01*
G37*
%LPD*%
%LPC*%
G36*
X188218Y21218D02*
X188218Y21218D01*
X186804Y21938D01*
X185520Y22871D01*
X184398Y23993D01*
X183466Y25276D01*
X182745Y26690D01*
X182255Y28199D01*
X182007Y29767D01*
X182007Y35601D01*
X189588Y35601D01*
X189588Y20773D01*
X188218Y21218D01*
G37*
%LPD*%
%LPC*%
G36*
X127190Y109981D02*
X127190Y109981D01*
X127190Y112474D01*
X133588Y118873D01*
X136081Y118873D01*
X136081Y109981D01*
X127190Y109981D01*
G37*
%LPD*%
%LPC*%
G36*
X140144Y97027D02*
X140144Y97027D01*
X140144Y105919D01*
X149035Y105919D01*
X149035Y103426D01*
X142637Y97027D01*
X140144Y97027D01*
G37*
%LPD*%
%LPC*%
G36*
X133588Y97027D02*
X133588Y97027D01*
X127190Y103426D01*
X127190Y105919D01*
X136081Y105919D01*
X136081Y97027D01*
X133588Y97027D01*
G37*
%LPD*%
%LPC*%
G36*
X189356Y292544D02*
X189356Y292544D01*
X189356Y300165D01*
X191323Y300165D01*
X196978Y294511D01*
X196978Y292544D01*
X189356Y292544D01*
G37*
%LPD*%
%LPC*%
G36*
X119506Y260794D02*
X119506Y260794D01*
X119506Y268415D01*
X121473Y268415D01*
X127128Y262761D01*
X127128Y260794D01*
X119506Y260794D01*
G37*
%LPD*%
%LPC*%
G36*
X189356Y260794D02*
X189356Y260794D01*
X189356Y268415D01*
X191323Y268415D01*
X196978Y262761D01*
X196978Y260794D01*
X189356Y260794D01*
G37*
%LPD*%
%LPC*%
G36*
X329056Y109981D02*
X329056Y109981D01*
X329056Y117603D01*
X331023Y117603D01*
X336678Y111948D01*
X336678Y109981D01*
X329056Y109981D01*
G37*
%LPD*%
%LPC*%
G36*
X276669Y97281D02*
X276669Y97281D01*
X276669Y104903D01*
X278636Y104903D01*
X284290Y99248D01*
X284290Y97281D01*
X276669Y97281D01*
G37*
%LPD*%
%LPC*%
G36*
X107822Y260794D02*
X107822Y260794D01*
X107822Y262761D01*
X113477Y268415D01*
X115444Y268415D01*
X115444Y260794D01*
X107822Y260794D01*
G37*
%LPD*%
%LPC*%
G36*
X264985Y97281D02*
X264985Y97281D01*
X264985Y99248D01*
X270639Y104903D01*
X272606Y104903D01*
X272606Y97281D01*
X264985Y97281D01*
G37*
%LPD*%
%LPC*%
G36*
X276669Y85597D02*
X276669Y85597D01*
X276669Y93219D01*
X284290Y93219D01*
X284290Y91252D01*
X278636Y85597D01*
X276669Y85597D01*
G37*
%LPD*%
%LPC*%
G36*
X119506Y249110D02*
X119506Y249110D01*
X119506Y256731D01*
X127128Y256731D01*
X127128Y254764D01*
X121473Y249110D01*
X119506Y249110D01*
G37*
%LPD*%
%LPC*%
G36*
X189356Y249110D02*
X189356Y249110D01*
X189356Y256731D01*
X196978Y256731D01*
X196978Y254764D01*
X191323Y249110D01*
X189356Y249110D01*
G37*
%LPD*%
%LPC*%
G36*
X107822Y292544D02*
X107822Y292544D01*
X107822Y294511D01*
X113477Y300165D01*
X115444Y300165D01*
X115444Y292544D01*
X107822Y292544D01*
G37*
%LPD*%
%LPC*%
G36*
X317372Y109981D02*
X317372Y109981D01*
X317372Y111948D01*
X323027Y117603D01*
X324994Y117603D01*
X324994Y109981D01*
X317372Y109981D01*
G37*
%LPD*%
%LPC*%
G36*
X177672Y292544D02*
X177672Y292544D01*
X177672Y294511D01*
X183327Y300165D01*
X185294Y300165D01*
X185294Y292544D01*
X177672Y292544D01*
G37*
%LPD*%
%LPC*%
G36*
X189356Y280860D02*
X189356Y280860D01*
X189356Y288481D01*
X196978Y288481D01*
X196978Y286514D01*
X191323Y280860D01*
X189356Y280860D01*
G37*
%LPD*%
%LPC*%
G36*
X329056Y98297D02*
X329056Y98297D01*
X329056Y105919D01*
X336678Y105919D01*
X336678Y103952D01*
X331023Y98297D01*
X329056Y98297D01*
G37*
%LPD*%
%LPC*%
G36*
X177672Y260794D02*
X177672Y260794D01*
X177672Y262761D01*
X183327Y268415D01*
X185294Y268415D01*
X185294Y260794D01*
X177672Y260794D01*
G37*
%LPD*%
%LPC*%
G36*
X270639Y85597D02*
X270639Y85597D01*
X264985Y91252D01*
X264985Y93219D01*
X272606Y93219D01*
X272606Y85597D01*
X270639Y85597D01*
G37*
%LPD*%
%LPC*%
G36*
X113477Y280860D02*
X113477Y280860D01*
X107822Y286514D01*
X107822Y288481D01*
X115444Y288481D01*
X115444Y280860D01*
X113477Y280860D01*
G37*
%LPD*%
%LPC*%
G36*
X183327Y280860D02*
X183327Y280860D01*
X177672Y286514D01*
X177672Y288481D01*
X185294Y288481D01*
X185294Y280860D01*
X183327Y280860D01*
G37*
%LPD*%
%LPC*%
G36*
X113477Y249110D02*
X113477Y249110D01*
X107822Y254764D01*
X107822Y256731D01*
X115444Y256731D01*
X115444Y249110D01*
X113477Y249110D01*
G37*
%LPD*%
%LPC*%
G36*
X183327Y249110D02*
X183327Y249110D01*
X177672Y254764D01*
X177672Y256731D01*
X185294Y256731D01*
X185294Y249110D01*
X183327Y249110D01*
G37*
%LPD*%
%LPC*%
G36*
X323027Y98297D02*
X323027Y98297D01*
X317372Y103952D01*
X317372Y105919D01*
X324994Y105919D01*
X324994Y98297D01*
X323027Y98297D01*
G37*
%LPD*%
%LPC*%
G36*
X397573Y135635D02*
X397573Y135635D01*
X397573Y143003D01*
X399286Y143003D01*
X404940Y137348D01*
X404940Y135635D01*
X397573Y135635D01*
G37*
%LPD*%
%LPC*%
G36*
X397573Y123697D02*
X397573Y123697D01*
X397573Y131065D01*
X404940Y131065D01*
X404940Y129352D01*
X399286Y123697D01*
X397573Y123697D01*
G37*
%LPD*%
%LPC*%
G36*
X385635Y135635D02*
X385635Y135635D01*
X385635Y137348D01*
X391289Y143003D01*
X393002Y143003D01*
X393002Y135635D01*
X385635Y135635D01*
G37*
%LPD*%
%LPC*%
G36*
X391289Y123697D02*
X391289Y123697D01*
X385635Y129352D01*
X385635Y131065D01*
X393002Y131065D01*
X393002Y123697D01*
X391289Y123697D01*
G37*
%LPD*%
%LPC*%
G36*
X166762Y144512D02*
X166762Y144512D01*
X166762Y150303D01*
X171347Y150303D01*
X171993Y150130D01*
X172573Y149796D01*
X173046Y149323D01*
X173380Y148743D01*
X173553Y148097D01*
X173553Y144512D01*
X166762Y144512D01*
G37*
%LPD*%
%LPC*%
G36*
X198437Y89024D02*
X198437Y89024D01*
X198437Y89026D01*
X198438Y89026D01*
X198438Y89024D01*
X198437Y89024D01*
G37*
%LPD*%
D10*
X211138Y139725D03*
X211138Y158725D03*
D11*
X187325Y258763D03*
D12*
X187325Y233363D03*
D13*
X187325Y290513D03*
D12*
X187325Y315913D03*
D11*
X117475Y258763D03*
D12*
X117475Y233363D03*
D13*
X117475Y290513D03*
D12*
X117475Y315913D03*
D13*
X327025Y107950D03*
D12*
X327025Y133350D03*
D10*
X163513Y122263D03*
X163513Y141263D03*
X298450Y344463D03*
X298450Y325463D03*
D13*
X274638Y95250D03*
D12*
X274638Y120650D03*
D14*
X309675Y306388D03*
X331675Y315888D03*
X331675Y296888D03*
D15*
X407988Y200025D03*
X433388Y200025D03*
D16*
X433388Y317500D03*
X374650Y198438D03*
X433388Y266700D03*
X407988Y254000D03*
X433388Y241300D03*
X407988Y228600D03*
X407988Y355600D03*
X433388Y342900D03*
X407988Y330200D03*
D17*
X288925Y272425D03*
X288925Y305425D03*
D18*
X331763Y274638D03*
X312763Y274638D03*
D10*
X365125Y273025D03*
X365125Y254025D03*
D19*
X138113Y107950D03*
X87313Y107950D03*
X112713Y133350D03*
D20*
X173038Y374650D03*
X223838Y374650D03*
X198438Y349250D03*
D11*
X420688Y82550D03*
X395288Y82550D03*
X420688Y107950D03*
X395288Y107950D03*
X420688Y133350D03*
X395288Y133350D03*
D21*
X213428Y118235D03*
X183448Y118235D03*
D22*
X198438Y115695D03*
D23*
X195898Y99655D02*
X200978Y99655D01*
X200978Y78395D01*
X195898Y78395D01*
X195898Y99655D01*
X195898Y93634D02*
X200978Y93634D01*
D24*
X368300Y495698D02*
X368300Y510778D01*
X342900Y510778D02*
X342900Y495698D01*
X413148Y387350D02*
X428228Y387350D01*
X428228Y412750D02*
X413148Y412750D01*
X47228Y393700D02*
X32148Y393700D01*
X32148Y368300D02*
X47228Y368300D01*
X47228Y133350D02*
X32148Y133350D01*
X32148Y158750D02*
X47228Y158750D01*
X47228Y266700D02*
X32148Y266700D01*
X32148Y241300D02*
X47228Y241300D01*
X47228Y215900D02*
X32148Y215900D01*
X32148Y190500D02*
X47228Y190500D01*
X344488Y45640D02*
X344488Y30560D01*
X319088Y30560D02*
X319088Y45640D01*
X293688Y45640D02*
X293688Y30560D01*
X268288Y30560D02*
X268288Y45640D01*
X242888Y45640D02*
X242888Y30560D01*
X217488Y30560D02*
X217488Y45640D01*
X192088Y45640D02*
X192088Y30560D01*
X166688Y30560D02*
X166688Y45640D01*
X141288Y45640D02*
X141288Y30560D01*
X115888Y30560D02*
X115888Y45640D01*
X90488Y45640D02*
X90488Y30560D01*
X65088Y30560D02*
X65088Y45640D01*
X47228Y450850D02*
X32148Y450850D01*
X32148Y476250D02*
X47228Y476250D01*
X312738Y495698D02*
X312738Y510778D01*
X287338Y510778D02*
X287338Y495698D01*
X413148Y466725D02*
X428228Y466725D01*
X428228Y441325D02*
X413148Y441325D01*
D11*
X358775Y454025D03*
D12*
X358775Y428625D03*
D25*
X142875Y274320D03*
D26*
X136525Y292100D02*
X136525Y323850D01*
D25*
X171450Y512763D03*
D26*
X109538Y476250D02*
X109538Y350838D01*
X136525Y323850D01*
X136525Y292100D02*
X142875Y285750D01*
X142875Y274320D01*
X146050Y512763D02*
X171450Y512763D01*
X146050Y512763D02*
X109538Y476250D01*
D25*
X146050Y346075D03*
D26*
X146050Y441325D01*
D25*
X217488Y512763D03*
D26*
X228600Y512763D01*
X200025Y495300D02*
X146050Y441325D01*
X228600Y512763D02*
X233363Y508000D01*
X229870Y495300D02*
X222250Y495300D01*
X200025Y495300D01*
X233363Y498793D02*
X233363Y508000D01*
X233363Y498793D02*
X229870Y495300D01*
X288925Y306388D02*
X288925Y305425D01*
X288925Y306388D02*
X285750Y309563D01*
X285750Y341313D01*
X288925Y344488D01*
X298425Y344488D01*
X298450Y344463D01*
D25*
X269875Y368300D03*
D26*
X277813Y368300D01*
X285750Y360363D01*
X285750Y347663D01*
X288925Y344488D01*
X365125Y273025D02*
X366713Y273075D01*
X381000Y273050D01*
X401638Y295275D01*
X409258Y295275D01*
D25*
X409258Y295275D03*
D26*
X331763Y296800D02*
X331763Y274638D01*
X331763Y296800D02*
X331675Y296888D01*
X331675Y315888D01*
X331675Y374763D01*
X315913Y390525D01*
D25*
X315913Y390525D03*
D27*
X211138Y139725D02*
X211113Y139700D01*
X268263Y139725D02*
X274638Y146050D01*
D25*
X274638Y146050D03*
D26*
X354013Y254000D02*
X365125Y254025D01*
D27*
X315913Y146050D02*
X274638Y146050D01*
X213428Y137435D02*
X211138Y139725D01*
X213428Y127885D02*
X213428Y118235D01*
X213428Y127885D02*
X211138Y130175D01*
X211138Y139725D01*
X265063Y136525D02*
X268263Y139725D01*
X211163Y139700D02*
X211138Y139725D01*
X211163Y139700D02*
X225425Y139700D01*
X228600Y142875D01*
X228600Y165100D01*
X236538Y136525D02*
X265063Y136525D01*
X236538Y136525D02*
X230188Y142875D01*
X228600Y142875D01*
D26*
X312738Y274613D02*
X312763Y274638D01*
X312738Y274613D02*
X312738Y261938D01*
X288925Y263525D02*
X288925Y272425D01*
X288925Y263525D02*
X292100Y260350D01*
X314325Y260350D01*
X312738Y261938D01*
X320675Y254000D02*
X354013Y254000D01*
D25*
X347663Y177800D03*
D27*
X315913Y146050D01*
D26*
X320675Y254000D02*
X314325Y260350D01*
X354013Y254000D02*
X374650Y254000D01*
X390525Y238125D01*
X390525Y187325D01*
X381000Y177800D01*
X347663Y177800D01*
D27*
X215896Y177804D02*
X203196Y177804D01*
D25*
X203196Y177804D03*
D27*
X215896Y177804D02*
X228600Y165100D01*
X211138Y158725D02*
X211113Y158750D01*
X153988Y161925D02*
X141288Y161925D01*
X153988Y161925D02*
X163513Y152400D01*
X163513Y141263D01*
D25*
X141288Y161925D03*
D26*
X306388Y306388D02*
X309675Y306388D01*
X306388Y306388D02*
X304800Y307975D01*
X304800Y309563D01*
X304800Y314325D02*
X304800Y314350D01*
X298450Y325463D01*
X307975Y306388D02*
X309675Y306388D01*
X307975Y306388D02*
X304800Y309563D01*
X304800Y314325D01*
X296863Y322263D01*
X298450Y322263D01*
X303213Y327025D01*
X309563Y327025D01*
X312738Y330200D01*
X312738Y360363D01*
X296863Y374650D01*
D25*
X296863Y374650D03*
D27*
X198438Y89025D02*
X198438Y73025D01*
X336550Y73025D01*
X346075Y82550D01*
D25*
X346075Y82550D03*
D26*
X198438Y89025D02*
X198438Y115695D01*
D27*
X173013Y141263D02*
X163513Y141263D01*
X173013Y141263D02*
X177800Y146050D01*
X177800Y152400D01*
X184150Y158750D01*
X211113Y158750D01*
X198438Y131763D02*
X198438Y115695D01*
X188938Y141263D02*
X173013Y141263D01*
X188938Y141263D02*
X198438Y131763D01*
D25*
X233363Y260350D03*
D26*
X233363Y220663D01*
X236538Y217488D01*
X236538Y204788D01*
D25*
X236538Y204788D03*
X285750Y193675D03*
D28*
X277813Y239713D02*
X268288Y249238D01*
X268288Y300038D01*
X255588Y312738D01*
X228600Y312738D01*
X227013Y314325D01*
X227013Y347663D01*
D25*
X244475Y357188D03*
D28*
X236538Y357188D01*
X227013Y347663D01*
X277813Y239713D02*
X277813Y203200D01*
X285750Y195263D01*
X285750Y193675D01*
D25*
X298450Y174625D03*
D28*
X260350Y246063D02*
X260350Y296863D01*
X252413Y304800D01*
X222250Y304800D01*
D25*
X212725Y328613D03*
D28*
X212725Y314325D02*
X222250Y304800D01*
X212725Y314325D02*
X212725Y328613D01*
X269875Y236538D02*
X269875Y211138D01*
X269875Y236538D02*
X260350Y246063D01*
X269875Y211138D02*
X258763Y200025D01*
X258763Y180975D01*
X268288Y171450D01*
X295275Y171450D02*
X298450Y174625D01*
X295275Y171450D02*
X268288Y171450D01*
D25*
X206058Y210820D03*
D26*
X143828Y210820D01*
X137478Y204470D01*
D25*
X137478Y204470D03*
X100013Y190500D03*
X206375Y195263D03*
D26*
X207963Y193675D01*
X222250Y193675D01*
X254000Y161925D01*
X311150Y161925D01*
D25*
X366713Y231775D03*
D26*
X366713Y215900D01*
X320675Y171450D02*
X311150Y161925D01*
X320675Y171450D02*
X320675Y182563D01*
X327025Y188913D01*
X339725Y188913D01*
X366713Y215900D01*
X206375Y195263D02*
X201613Y190500D01*
X100013Y190500D01*
D25*
X254000Y222250D03*
D28*
X254000Y280988D01*
X241618Y292100D01*
D25*
X241618Y292100D03*
X334963Y204788D03*
D26*
X334963Y220663D01*
X307975Y247650D01*
X284163Y247650D01*
D28*
X274638Y257175D01*
X274638Y303213D01*
X250825Y327025D01*
X247650Y327025D01*
D25*
X247650Y327025D03*
X152400Y468313D03*
X120650Y460375D03*
D28*
X123825Y463550D01*
X147638Y463550D02*
X152400Y468313D01*
X147638Y463550D02*
X123825Y463550D01*
D25*
X265113Y398463D03*
X293688Y407670D03*
D28*
X288608Y402590D01*
X269240Y402590D02*
X265113Y398463D01*
X269240Y402590D02*
X288608Y402590D01*
D25*
X288608Y433070D03*
D26*
X288608Y438150D01*
X327338Y447671D02*
X327338Y452759D01*
D25*
X327338Y452759D03*
D26*
X292418Y441960D02*
X288608Y438150D01*
X292418Y441960D02*
X321628Y441960D01*
X327338Y447671D01*
D25*
X363538Y346075D03*
D26*
X363538Y368300D01*
X337333Y397922D01*
D25*
X249238Y401638D03*
D26*
X249238Y393700D01*
X330125Y405130D02*
X337333Y397922D01*
X330125Y405130D02*
X306388Y405130D01*
X286068Y384810D01*
X258128Y384810D02*
X249238Y393700D01*
X258128Y384810D02*
X286068Y384810D01*
D25*
X61913Y107950D03*
X93599Y419037D03*
D27*
X87313Y419100D01*
X77788Y409575D01*
X77788Y180836D01*
X152375Y122263D02*
X163513Y122263D01*
X152375Y122263D02*
X143669Y130969D01*
X165100Y120650D02*
X165100Y79375D01*
X182563Y61913D01*
X355600Y61913D01*
X368300Y73025D01*
X368300Y131763D01*
X354013Y147638D01*
D25*
X354013Y147638D03*
D27*
X183448Y118235D02*
X179420Y122263D01*
X163513Y122263D01*
X143669Y130969D02*
X143669Y142081D01*
X133350Y152400D01*
X61913Y138113D02*
X61913Y107950D01*
X61913Y138113D02*
X76200Y152400D01*
X133350Y152400D01*
M02*
