M48
;GenerationSoftware,Autodesk,EAGLE,8.7.1*%
;CreationDate,2019-02-08T14:13:11Z*%
FMAT,2
ICI,OFF
METRIC,TZ,00.000
T5C0.350
T4C0.600
T3C0.914
T2C1.000
T1C3.200
%
G90
M71
T1
X43656Y2223
X2381Y51911
X43656Y51911
X2223Y2381
T2
X42069Y44132
X42069Y46672
X28734Y50324
X31274Y50324
X3969Y47625
X3969Y45085
X6509Y3810
X9049Y3810
X11589Y3810
X14129Y3810
X19209Y3810
X16669Y3810
X21749Y3810
X24289Y3810
X26829Y3810
X29369Y3810
X31909Y3810
X3969Y19050
X3969Y21590
X3969Y24130
X3969Y26670
X3969Y15875
X3969Y13335
X3969Y36830
X3969Y39370
X42069Y41275
X42069Y38735
X34290Y50324
X36830Y50324
X34449Y3810
T3
X42069Y13335
X39529Y10795
X42069Y10795
X39529Y8255
X42069Y8255
X39529Y13335
T4
X19844Y34925
X35878Y45402
X35878Y42863
X18733Y25876
X18733Y23336
X18733Y29051
X18733Y31591
X11747Y25876
X11747Y23336
X11747Y29051
X11747Y31591
X32702Y10795
X32702Y13335
X27464Y9525
X27464Y12065
X40799Y20003
X43339Y20003
X43339Y31750
X37465Y19844
X43339Y26670
X40799Y25400
X43339Y24130
X40799Y22860
X40799Y35560
X43339Y34290
X40799Y33020
X13811Y10795
X8731Y10795
X11271Y13335
X17304Y37465
X22384Y37465
T5
X14287Y27432
X17145Y51276
X14605Y34608
X6191Y10795
X24924Y40164
X36354Y34608
X32734Y45276
X28861Y43307
X29369Y40767
X26511Y39846
X12065Y46037
X15240Y46831
X24765Y32702
X33496Y20479
X24162Y29210
X25400Y22225
X36671Y23177
X20638Y19526
X10001Y19050
X13748Y20447
X20606Y21082
X21273Y32861
X29845Y17463
X24447Y35719
X28575Y19368
X23336Y26035
X23654Y20479
X34608Y8255
X29686Y37465
X14129Y16192
X20320Y17780
X34766Y17780
X27464Y14605
X31591Y39053
X40926Y29527
X26987Y36830
X21749Y51276
X35401Y14764
X9360Y41904
M30