G04 EAGLE Gerber X2 export*
%TF.Part,Single*%
%TF.FileFunction,Legend,Top,1*%
%TF.FilePolarity,Positive*%
%TF.GenerationSoftware,Autodesk,EAGLE,8.7.1*%
%TF.CreationDate,2019-02-08T14:13:12Z*%
G75*
%MOMM*%
%FSLAX34Y34*%
%LPD*%
%AMOC8*
5,1,8,0,0,1.08239X$1,22.5*%
G01*
%ADD10C,0.203200*%
%ADD11C,0.076200*%
%ADD12C,0.152400*%
%ADD13C,0.127000*%
%ADD14C,0.177800*%
%ADD15C,0.050800*%
%ADD16C,0.254000*%
%ADD17C,0.101600*%


D10*
X90092Y440436D02*
X90092Y463824D01*
X82296Y463824D02*
X97888Y463824D01*
X109582Y440436D02*
X117378Y440436D01*
X121276Y444334D01*
X121276Y452130D01*
X117378Y456028D01*
X109582Y456028D01*
X105684Y452130D01*
X105684Y444334D01*
X109582Y440436D01*
X129072Y432640D02*
X129072Y456028D01*
X140766Y456028D01*
X144664Y452130D01*
X144664Y444334D01*
X140766Y440436D01*
X129072Y440436D01*
X152460Y440436D02*
X152460Y463824D01*
X152460Y440436D02*
X168052Y440436D01*
X179746Y456028D02*
X187542Y456028D01*
X191440Y452130D01*
X191440Y440436D01*
X179746Y440436D01*
X175848Y444334D01*
X179746Y448232D01*
X191440Y448232D01*
X199236Y440436D02*
X199236Y463824D01*
X199236Y440436D02*
X210930Y440436D01*
X214828Y444334D01*
X214828Y452130D01*
X210930Y456028D01*
X199236Y456028D01*
X246012Y440436D02*
X253808Y440436D01*
X249910Y440436D02*
X249910Y463824D01*
X246012Y463824D02*
X253808Y463824D01*
X261604Y456028D02*
X261604Y440436D01*
X261604Y456028D02*
X273298Y456028D01*
X277196Y452130D01*
X277196Y440436D01*
X288890Y456028D02*
X300584Y456028D01*
X288890Y456028D02*
X284992Y452130D01*
X284992Y444334D01*
X288890Y440436D01*
X300584Y440436D01*
X308380Y440436D02*
X308380Y444334D01*
X312278Y444334D01*
X312278Y440436D01*
X308380Y440436D01*
D11*
X90551Y431536D02*
X90551Y423291D01*
X90551Y431536D02*
X94674Y431536D01*
X96048Y430162D01*
X96048Y427414D01*
X94674Y426039D01*
X90551Y426039D01*
X93299Y426039D02*
X96048Y423291D01*
X100212Y423291D02*
X102961Y423291D01*
X100212Y423291D02*
X98838Y424665D01*
X98838Y427414D01*
X100212Y428788D01*
X102961Y428788D01*
X104335Y427414D01*
X104335Y426039D01*
X98838Y426039D01*
X109873Y420543D02*
X111248Y420543D01*
X112622Y421917D01*
X112622Y428788D01*
X108499Y428788D01*
X107125Y427414D01*
X107125Y424665D01*
X108499Y423291D01*
X112622Y423291D01*
X115412Y424665D02*
X115412Y428788D01*
X115412Y424665D02*
X116786Y423291D01*
X120909Y423291D01*
X120909Y428788D01*
X123699Y431536D02*
X125073Y431536D01*
X125073Y423291D01*
X123699Y423291D02*
X126448Y423291D01*
X130598Y428788D02*
X133346Y428788D01*
X134721Y427414D01*
X134721Y423291D01*
X130598Y423291D01*
X129224Y424665D01*
X130598Y426039D01*
X134721Y426039D01*
X138885Y424665D02*
X138885Y430162D01*
X138885Y424665D02*
X140259Y423291D01*
X140259Y428788D02*
X137511Y428788D01*
X144410Y423291D02*
X147158Y423291D01*
X144410Y423291D02*
X143036Y424665D01*
X143036Y427414D01*
X144410Y428788D01*
X147158Y428788D01*
X148532Y427414D01*
X148532Y426039D01*
X143036Y426039D01*
X156820Y423291D02*
X156820Y431536D01*
X156820Y423291D02*
X152697Y423291D01*
X151323Y424665D01*
X151323Y427414D01*
X152697Y428788D01*
X156820Y428788D01*
X167897Y428788D02*
X167897Y420543D01*
X167897Y428788D02*
X172019Y428788D01*
X173394Y427414D01*
X173394Y424665D01*
X172019Y423291D01*
X167897Y423291D01*
X177558Y423291D02*
X180307Y423291D01*
X181681Y424665D01*
X181681Y427414D01*
X180307Y428788D01*
X177558Y428788D01*
X176184Y427414D01*
X176184Y424665D01*
X177558Y423291D01*
X184471Y424665D02*
X184471Y428788D01*
X184471Y424665D02*
X185845Y423291D01*
X187219Y424665D01*
X188594Y423291D01*
X189968Y424665D01*
X189968Y428788D01*
X194132Y423291D02*
X196881Y423291D01*
X194132Y423291D02*
X192758Y424665D01*
X192758Y427414D01*
X194132Y428788D01*
X196881Y428788D01*
X198255Y427414D01*
X198255Y426039D01*
X192758Y426039D01*
X201045Y423291D02*
X201045Y428788D01*
X201045Y426039D02*
X203794Y428788D01*
X205168Y428788D01*
X216238Y423291D02*
X220361Y423291D01*
X221735Y424665D01*
X220361Y426039D01*
X217612Y426039D01*
X216238Y427414D01*
X217612Y428788D01*
X221735Y428788D01*
X224525Y428788D02*
X224525Y424665D01*
X225899Y423291D01*
X230022Y423291D01*
X230022Y428788D01*
X232812Y428788D02*
X232812Y420543D01*
X232812Y428788D02*
X236935Y428788D01*
X238309Y427414D01*
X238309Y424665D01*
X236935Y423291D01*
X232812Y423291D01*
X241099Y420543D02*
X241099Y428788D01*
X245222Y428788D01*
X246596Y427414D01*
X246596Y424665D01*
X245222Y423291D01*
X241099Y423291D01*
X249386Y431536D02*
X250761Y431536D01*
X250761Y423291D01*
X252135Y423291D02*
X249386Y423291D01*
X254911Y424665D02*
X254911Y428788D01*
X254911Y424665D02*
X256285Y423291D01*
X260408Y423291D01*
X260408Y421917D02*
X260408Y428788D01*
X260408Y421917D02*
X259034Y420543D01*
X257659Y420543D01*
X271485Y428788D02*
X274234Y423291D01*
X276982Y428788D01*
X279772Y428788D02*
X282521Y431536D01*
X282521Y423291D01*
X285269Y423291D02*
X279772Y423291D01*
X288059Y423291D02*
X288059Y424665D01*
X289434Y424665D01*
X289434Y423291D01*
X288059Y423291D01*
X292203Y424665D02*
X292203Y430162D01*
X293577Y431536D01*
X296325Y431536D01*
X297700Y430162D01*
X297700Y424665D01*
X296325Y423291D01*
X293577Y423291D01*
X292203Y424665D01*
X297700Y430162D01*
X194453Y144361D02*
X193224Y143132D01*
X193224Y140675D01*
X194453Y139446D01*
X199368Y139446D01*
X200597Y140675D01*
X200597Y143132D01*
X199368Y144361D01*
X195682Y146930D02*
X193224Y149388D01*
X200597Y149388D01*
X200597Y151845D02*
X200597Y146930D01*
X199368Y154414D02*
X194453Y154414D01*
X193224Y155643D01*
X193224Y158100D01*
X194453Y159329D01*
X199368Y159329D01*
X200597Y158100D01*
X200597Y155643D01*
X199368Y154414D01*
X194453Y159329D01*
D12*
X177165Y233363D02*
X169545Y233363D01*
X173355Y237173D02*
X173355Y229553D01*
X161925Y246063D02*
X161933Y246686D01*
X161956Y247309D01*
X161994Y247932D01*
X162047Y248553D01*
X162116Y249172D01*
X162200Y249790D01*
X162299Y250405D01*
X162413Y251018D01*
X162542Y251628D01*
X162686Y252235D01*
X162845Y252838D01*
X163019Y253436D01*
X163207Y254031D01*
X163410Y254620D01*
X163627Y255204D01*
X163858Y255783D01*
X164104Y256356D01*
X164364Y256923D01*
X164637Y257483D01*
X164924Y258036D01*
X165225Y258583D01*
X165539Y259121D01*
X165866Y259652D01*
X166206Y260174D01*
X166558Y260689D01*
X166924Y261194D01*
X167301Y261690D01*
X167691Y262177D01*
X168092Y262654D01*
X168505Y263121D01*
X168929Y263577D01*
X169364Y264024D01*
X169811Y264459D01*
X170267Y264883D01*
X170734Y265296D01*
X171211Y265697D01*
X171698Y266087D01*
X172194Y266464D01*
X172699Y266830D01*
X173214Y267182D01*
X173736Y267522D01*
X174267Y267849D01*
X174805Y268163D01*
X175352Y268464D01*
X175905Y268751D01*
X176465Y269024D01*
X177032Y269284D01*
X177605Y269530D01*
X178184Y269761D01*
X178768Y269978D01*
X179357Y270181D01*
X179952Y270369D01*
X180550Y270543D01*
X181153Y270702D01*
X181760Y270846D01*
X182370Y270975D01*
X182983Y271089D01*
X183598Y271188D01*
X184216Y271272D01*
X184835Y271341D01*
X185456Y271394D01*
X186079Y271432D01*
X186702Y271455D01*
X187325Y271463D01*
X187948Y271455D01*
X188571Y271432D01*
X189194Y271394D01*
X189815Y271341D01*
X190434Y271272D01*
X191052Y271188D01*
X191667Y271089D01*
X192280Y270975D01*
X192890Y270846D01*
X193497Y270702D01*
X194100Y270543D01*
X194698Y270369D01*
X195293Y270181D01*
X195882Y269978D01*
X196466Y269761D01*
X197045Y269530D01*
X197618Y269284D01*
X198185Y269024D01*
X198745Y268751D01*
X199298Y268464D01*
X199845Y268163D01*
X200383Y267849D01*
X200914Y267522D01*
X201436Y267182D01*
X201951Y266830D01*
X202456Y266464D01*
X202952Y266087D01*
X203439Y265697D01*
X203916Y265296D01*
X204383Y264883D01*
X204839Y264459D01*
X205286Y264024D01*
X205721Y263577D01*
X206145Y263121D01*
X206558Y262654D01*
X206959Y262177D01*
X207349Y261690D01*
X207726Y261194D01*
X208092Y260689D01*
X208444Y260174D01*
X208784Y259652D01*
X209111Y259121D01*
X209425Y258583D01*
X209726Y258036D01*
X210013Y257483D01*
X210286Y256923D01*
X210546Y256356D01*
X210792Y255783D01*
X211023Y255204D01*
X211240Y254620D01*
X211443Y254031D01*
X211631Y253436D01*
X211805Y252838D01*
X211964Y252235D01*
X212108Y251628D01*
X212237Y251018D01*
X212351Y250405D01*
X212450Y249790D01*
X212534Y249172D01*
X212603Y248553D01*
X212656Y247932D01*
X212694Y247309D01*
X212717Y246686D01*
X212725Y246063D01*
X212717Y245440D01*
X212694Y244817D01*
X212656Y244194D01*
X212603Y243573D01*
X212534Y242954D01*
X212450Y242336D01*
X212351Y241721D01*
X212237Y241108D01*
X212108Y240498D01*
X211964Y239891D01*
X211805Y239288D01*
X211631Y238690D01*
X211443Y238095D01*
X211240Y237506D01*
X211023Y236922D01*
X210792Y236343D01*
X210546Y235770D01*
X210286Y235203D01*
X210013Y234643D01*
X209726Y234090D01*
X209425Y233543D01*
X209111Y233005D01*
X208784Y232474D01*
X208444Y231952D01*
X208092Y231437D01*
X207726Y230932D01*
X207349Y230436D01*
X206959Y229949D01*
X206558Y229472D01*
X206145Y229005D01*
X205721Y228549D01*
X205286Y228102D01*
X204839Y227667D01*
X204383Y227243D01*
X203916Y226830D01*
X203439Y226429D01*
X202952Y226039D01*
X202456Y225662D01*
X201951Y225296D01*
X201436Y224944D01*
X200914Y224604D01*
X200383Y224277D01*
X199845Y223963D01*
X199298Y223662D01*
X198745Y223375D01*
X198185Y223102D01*
X197618Y222842D01*
X197045Y222596D01*
X196466Y222365D01*
X195882Y222148D01*
X195293Y221945D01*
X194698Y221757D01*
X194100Y221583D01*
X193497Y221424D01*
X192890Y221280D01*
X192280Y221151D01*
X191667Y221037D01*
X191052Y220938D01*
X190434Y220854D01*
X189815Y220785D01*
X189194Y220732D01*
X188571Y220694D01*
X187948Y220671D01*
X187325Y220663D01*
X186702Y220671D01*
X186079Y220694D01*
X185456Y220732D01*
X184835Y220785D01*
X184216Y220854D01*
X183598Y220938D01*
X182983Y221037D01*
X182370Y221151D01*
X181760Y221280D01*
X181153Y221424D01*
X180550Y221583D01*
X179952Y221757D01*
X179357Y221945D01*
X178768Y222148D01*
X178184Y222365D01*
X177605Y222596D01*
X177032Y222842D01*
X176465Y223102D01*
X175905Y223375D01*
X175352Y223662D01*
X174805Y223963D01*
X174267Y224277D01*
X173736Y224604D01*
X173214Y224944D01*
X172699Y225296D01*
X172194Y225662D01*
X171698Y226039D01*
X171211Y226429D01*
X170734Y226830D01*
X170267Y227243D01*
X169811Y227667D01*
X169364Y228102D01*
X168929Y228549D01*
X168505Y229005D01*
X168092Y229472D01*
X167691Y229949D01*
X167301Y230436D01*
X166924Y230932D01*
X166558Y231437D01*
X166206Y231952D01*
X165866Y232474D01*
X165539Y233005D01*
X165225Y233543D01*
X164924Y234090D01*
X164637Y234643D01*
X164364Y235203D01*
X164104Y235770D01*
X163858Y236343D01*
X163627Y236922D01*
X163410Y237506D01*
X163207Y238095D01*
X163019Y238690D01*
X162845Y239288D01*
X162686Y239891D01*
X162542Y240498D01*
X162413Y241108D01*
X162299Y241721D01*
X162200Y242336D01*
X162116Y242954D01*
X162047Y243573D01*
X161994Y244194D01*
X161956Y244817D01*
X161933Y245440D01*
X161925Y246063D01*
D13*
X199637Y241959D02*
X208280Y241959D01*
X199637Y239078D02*
X199637Y244840D01*
X199637Y251080D02*
X208280Y251080D01*
X199637Y248199D02*
X199637Y253961D01*
D11*
X180052Y218700D02*
X181281Y217472D01*
X180052Y218700D02*
X177595Y218700D01*
X176366Y217472D01*
X176366Y212557D01*
X177595Y211328D01*
X180052Y211328D01*
X181281Y212557D01*
X183850Y216243D02*
X186308Y218700D01*
X186308Y211328D01*
X188765Y211328D02*
X183850Y211328D01*
X191334Y216243D02*
X193792Y218700D01*
X193792Y211328D01*
X196249Y211328D02*
X191334Y211328D01*
D12*
X197485Y315913D02*
X205105Y315913D01*
X201295Y312103D02*
X201295Y319723D01*
X161925Y303213D02*
X161933Y303836D01*
X161956Y304459D01*
X161994Y305082D01*
X162047Y305703D01*
X162116Y306322D01*
X162200Y306940D01*
X162299Y307555D01*
X162413Y308168D01*
X162542Y308778D01*
X162686Y309385D01*
X162845Y309988D01*
X163019Y310586D01*
X163207Y311181D01*
X163410Y311770D01*
X163627Y312354D01*
X163858Y312933D01*
X164104Y313506D01*
X164364Y314073D01*
X164637Y314633D01*
X164924Y315186D01*
X165225Y315733D01*
X165539Y316271D01*
X165866Y316802D01*
X166206Y317324D01*
X166558Y317839D01*
X166924Y318344D01*
X167301Y318840D01*
X167691Y319327D01*
X168092Y319804D01*
X168505Y320271D01*
X168929Y320727D01*
X169364Y321174D01*
X169811Y321609D01*
X170267Y322033D01*
X170734Y322446D01*
X171211Y322847D01*
X171698Y323237D01*
X172194Y323614D01*
X172699Y323980D01*
X173214Y324332D01*
X173736Y324672D01*
X174267Y324999D01*
X174805Y325313D01*
X175352Y325614D01*
X175905Y325901D01*
X176465Y326174D01*
X177032Y326434D01*
X177605Y326680D01*
X178184Y326911D01*
X178768Y327128D01*
X179357Y327331D01*
X179952Y327519D01*
X180550Y327693D01*
X181153Y327852D01*
X181760Y327996D01*
X182370Y328125D01*
X182983Y328239D01*
X183598Y328338D01*
X184216Y328422D01*
X184835Y328491D01*
X185456Y328544D01*
X186079Y328582D01*
X186702Y328605D01*
X187325Y328613D01*
X187948Y328605D01*
X188571Y328582D01*
X189194Y328544D01*
X189815Y328491D01*
X190434Y328422D01*
X191052Y328338D01*
X191667Y328239D01*
X192280Y328125D01*
X192890Y327996D01*
X193497Y327852D01*
X194100Y327693D01*
X194698Y327519D01*
X195293Y327331D01*
X195882Y327128D01*
X196466Y326911D01*
X197045Y326680D01*
X197618Y326434D01*
X198185Y326174D01*
X198745Y325901D01*
X199298Y325614D01*
X199845Y325313D01*
X200383Y324999D01*
X200914Y324672D01*
X201436Y324332D01*
X201951Y323980D01*
X202456Y323614D01*
X202952Y323237D01*
X203439Y322847D01*
X203916Y322446D01*
X204383Y322033D01*
X204839Y321609D01*
X205286Y321174D01*
X205721Y320727D01*
X206145Y320271D01*
X206558Y319804D01*
X206959Y319327D01*
X207349Y318840D01*
X207726Y318344D01*
X208092Y317839D01*
X208444Y317324D01*
X208784Y316802D01*
X209111Y316271D01*
X209425Y315733D01*
X209726Y315186D01*
X210013Y314633D01*
X210286Y314073D01*
X210546Y313506D01*
X210792Y312933D01*
X211023Y312354D01*
X211240Y311770D01*
X211443Y311181D01*
X211631Y310586D01*
X211805Y309988D01*
X211964Y309385D01*
X212108Y308778D01*
X212237Y308168D01*
X212351Y307555D01*
X212450Y306940D01*
X212534Y306322D01*
X212603Y305703D01*
X212656Y305082D01*
X212694Y304459D01*
X212717Y303836D01*
X212725Y303213D01*
X212717Y302590D01*
X212694Y301967D01*
X212656Y301344D01*
X212603Y300723D01*
X212534Y300104D01*
X212450Y299486D01*
X212351Y298871D01*
X212237Y298258D01*
X212108Y297648D01*
X211964Y297041D01*
X211805Y296438D01*
X211631Y295840D01*
X211443Y295245D01*
X211240Y294656D01*
X211023Y294072D01*
X210792Y293493D01*
X210546Y292920D01*
X210286Y292353D01*
X210013Y291793D01*
X209726Y291240D01*
X209425Y290693D01*
X209111Y290155D01*
X208784Y289624D01*
X208444Y289102D01*
X208092Y288587D01*
X207726Y288082D01*
X207349Y287586D01*
X206959Y287099D01*
X206558Y286622D01*
X206145Y286155D01*
X205721Y285699D01*
X205286Y285252D01*
X204839Y284817D01*
X204383Y284393D01*
X203916Y283980D01*
X203439Y283579D01*
X202952Y283189D01*
X202456Y282812D01*
X201951Y282446D01*
X201436Y282094D01*
X200914Y281754D01*
X200383Y281427D01*
X199845Y281113D01*
X199298Y280812D01*
X198745Y280525D01*
X198185Y280252D01*
X197618Y279992D01*
X197045Y279746D01*
X196466Y279515D01*
X195882Y279298D01*
X195293Y279095D01*
X194698Y278907D01*
X194100Y278733D01*
X193497Y278574D01*
X192890Y278430D01*
X192280Y278301D01*
X191667Y278187D01*
X191052Y278088D01*
X190434Y278004D01*
X189815Y277935D01*
X189194Y277882D01*
X188571Y277844D01*
X187948Y277821D01*
X187325Y277813D01*
X186702Y277821D01*
X186079Y277844D01*
X185456Y277882D01*
X184835Y277935D01*
X184216Y278004D01*
X183598Y278088D01*
X182983Y278187D01*
X182370Y278301D01*
X181760Y278430D01*
X181153Y278574D01*
X180550Y278733D01*
X179952Y278907D01*
X179357Y279095D01*
X178768Y279298D01*
X178184Y279515D01*
X177605Y279746D01*
X177032Y279992D01*
X176465Y280252D01*
X175905Y280525D01*
X175352Y280812D01*
X174805Y281113D01*
X174267Y281427D01*
X173736Y281754D01*
X173214Y282094D01*
X172699Y282446D01*
X172194Y282812D01*
X171698Y283189D01*
X171211Y283579D01*
X170734Y283980D01*
X170267Y284393D01*
X169811Y284817D01*
X169364Y285252D01*
X168929Y285699D01*
X168505Y286155D01*
X168092Y286622D01*
X167691Y287099D01*
X167301Y287586D01*
X166924Y288082D01*
X166558Y288587D01*
X166206Y289102D01*
X165866Y289624D01*
X165539Y290155D01*
X165225Y290693D01*
X164924Y291240D01*
X164637Y291793D01*
X164364Y292353D01*
X164104Y292920D01*
X163858Y293493D01*
X163627Y294072D01*
X163410Y294656D01*
X163207Y295245D01*
X163019Y295840D01*
X162845Y296438D01*
X162686Y297041D01*
X162542Y297648D01*
X162413Y298258D01*
X162299Y298871D01*
X162200Y299486D01*
X162116Y300104D01*
X162047Y300723D01*
X161994Y301344D01*
X161956Y301967D01*
X161933Y302590D01*
X161925Y303213D01*
D13*
X166363Y296106D02*
X175006Y296106D01*
X166363Y293225D02*
X166363Y298987D01*
X166363Y305227D02*
X175006Y305227D01*
X166363Y302346D02*
X166363Y308108D01*
D11*
X187223Y336090D02*
X185995Y337318D01*
X183537Y337318D01*
X182309Y336090D01*
X182309Y331175D01*
X183537Y329946D01*
X185995Y329946D01*
X187223Y331175D01*
X189793Y334861D02*
X192250Y337318D01*
X192250Y329946D01*
X189793Y329946D02*
X194708Y329946D01*
X197277Y329946D02*
X202192Y329946D01*
X197277Y329946D02*
X202192Y334861D01*
X202192Y336090D01*
X200963Y337318D01*
X198506Y337318D01*
X197277Y336090D01*
D12*
X107315Y233363D02*
X99695Y233363D01*
X103505Y237173D02*
X103505Y229553D01*
X92075Y246063D02*
X92083Y246686D01*
X92106Y247309D01*
X92144Y247932D01*
X92197Y248553D01*
X92266Y249172D01*
X92350Y249790D01*
X92449Y250405D01*
X92563Y251018D01*
X92692Y251628D01*
X92836Y252235D01*
X92995Y252838D01*
X93169Y253436D01*
X93357Y254031D01*
X93560Y254620D01*
X93777Y255204D01*
X94008Y255783D01*
X94254Y256356D01*
X94514Y256923D01*
X94787Y257483D01*
X95074Y258036D01*
X95375Y258583D01*
X95689Y259121D01*
X96016Y259652D01*
X96356Y260174D01*
X96708Y260689D01*
X97074Y261194D01*
X97451Y261690D01*
X97841Y262177D01*
X98242Y262654D01*
X98655Y263121D01*
X99079Y263577D01*
X99514Y264024D01*
X99961Y264459D01*
X100417Y264883D01*
X100884Y265296D01*
X101361Y265697D01*
X101848Y266087D01*
X102344Y266464D01*
X102849Y266830D01*
X103364Y267182D01*
X103886Y267522D01*
X104417Y267849D01*
X104955Y268163D01*
X105502Y268464D01*
X106055Y268751D01*
X106615Y269024D01*
X107182Y269284D01*
X107755Y269530D01*
X108334Y269761D01*
X108918Y269978D01*
X109507Y270181D01*
X110102Y270369D01*
X110700Y270543D01*
X111303Y270702D01*
X111910Y270846D01*
X112520Y270975D01*
X113133Y271089D01*
X113748Y271188D01*
X114366Y271272D01*
X114985Y271341D01*
X115606Y271394D01*
X116229Y271432D01*
X116852Y271455D01*
X117475Y271463D01*
X118098Y271455D01*
X118721Y271432D01*
X119344Y271394D01*
X119965Y271341D01*
X120584Y271272D01*
X121202Y271188D01*
X121817Y271089D01*
X122430Y270975D01*
X123040Y270846D01*
X123647Y270702D01*
X124250Y270543D01*
X124848Y270369D01*
X125443Y270181D01*
X126032Y269978D01*
X126616Y269761D01*
X127195Y269530D01*
X127768Y269284D01*
X128335Y269024D01*
X128895Y268751D01*
X129448Y268464D01*
X129995Y268163D01*
X130533Y267849D01*
X131064Y267522D01*
X131586Y267182D01*
X132101Y266830D01*
X132606Y266464D01*
X133102Y266087D01*
X133589Y265697D01*
X134066Y265296D01*
X134533Y264883D01*
X134989Y264459D01*
X135436Y264024D01*
X135871Y263577D01*
X136295Y263121D01*
X136708Y262654D01*
X137109Y262177D01*
X137499Y261690D01*
X137876Y261194D01*
X138242Y260689D01*
X138594Y260174D01*
X138934Y259652D01*
X139261Y259121D01*
X139575Y258583D01*
X139876Y258036D01*
X140163Y257483D01*
X140436Y256923D01*
X140696Y256356D01*
X140942Y255783D01*
X141173Y255204D01*
X141390Y254620D01*
X141593Y254031D01*
X141781Y253436D01*
X141955Y252838D01*
X142114Y252235D01*
X142258Y251628D01*
X142387Y251018D01*
X142501Y250405D01*
X142600Y249790D01*
X142684Y249172D01*
X142753Y248553D01*
X142806Y247932D01*
X142844Y247309D01*
X142867Y246686D01*
X142875Y246063D01*
X142867Y245440D01*
X142844Y244817D01*
X142806Y244194D01*
X142753Y243573D01*
X142684Y242954D01*
X142600Y242336D01*
X142501Y241721D01*
X142387Y241108D01*
X142258Y240498D01*
X142114Y239891D01*
X141955Y239288D01*
X141781Y238690D01*
X141593Y238095D01*
X141390Y237506D01*
X141173Y236922D01*
X140942Y236343D01*
X140696Y235770D01*
X140436Y235203D01*
X140163Y234643D01*
X139876Y234090D01*
X139575Y233543D01*
X139261Y233005D01*
X138934Y232474D01*
X138594Y231952D01*
X138242Y231437D01*
X137876Y230932D01*
X137499Y230436D01*
X137109Y229949D01*
X136708Y229472D01*
X136295Y229005D01*
X135871Y228549D01*
X135436Y228102D01*
X134989Y227667D01*
X134533Y227243D01*
X134066Y226830D01*
X133589Y226429D01*
X133102Y226039D01*
X132606Y225662D01*
X132101Y225296D01*
X131586Y224944D01*
X131064Y224604D01*
X130533Y224277D01*
X129995Y223963D01*
X129448Y223662D01*
X128895Y223375D01*
X128335Y223102D01*
X127768Y222842D01*
X127195Y222596D01*
X126616Y222365D01*
X126032Y222148D01*
X125443Y221945D01*
X124848Y221757D01*
X124250Y221583D01*
X123647Y221424D01*
X123040Y221280D01*
X122430Y221151D01*
X121817Y221037D01*
X121202Y220938D01*
X120584Y220854D01*
X119965Y220785D01*
X119344Y220732D01*
X118721Y220694D01*
X118098Y220671D01*
X117475Y220663D01*
X116852Y220671D01*
X116229Y220694D01*
X115606Y220732D01*
X114985Y220785D01*
X114366Y220854D01*
X113748Y220938D01*
X113133Y221037D01*
X112520Y221151D01*
X111910Y221280D01*
X111303Y221424D01*
X110700Y221583D01*
X110102Y221757D01*
X109507Y221945D01*
X108918Y222148D01*
X108334Y222365D01*
X107755Y222596D01*
X107182Y222842D01*
X106615Y223102D01*
X106055Y223375D01*
X105502Y223662D01*
X104955Y223963D01*
X104417Y224277D01*
X103886Y224604D01*
X103364Y224944D01*
X102849Y225296D01*
X102344Y225662D01*
X101848Y226039D01*
X101361Y226429D01*
X100884Y226830D01*
X100417Y227243D01*
X99961Y227667D01*
X99514Y228102D01*
X99079Y228549D01*
X98655Y229005D01*
X98242Y229472D01*
X97841Y229949D01*
X97451Y230436D01*
X97074Y230932D01*
X96708Y231437D01*
X96356Y231952D01*
X96016Y232474D01*
X95689Y233005D01*
X95375Y233543D01*
X95074Y234090D01*
X94787Y234643D01*
X94514Y235203D01*
X94254Y235770D01*
X94008Y236343D01*
X93777Y236922D01*
X93560Y237506D01*
X93357Y238095D01*
X93169Y238690D01*
X92995Y239288D01*
X92836Y239891D01*
X92692Y240498D01*
X92563Y241108D01*
X92449Y241721D01*
X92350Y242336D01*
X92266Y242954D01*
X92197Y243573D01*
X92144Y244194D01*
X92106Y244817D01*
X92083Y245440D01*
X92075Y246063D01*
D13*
X129787Y241959D02*
X138430Y241959D01*
X129787Y239078D02*
X129787Y244840D01*
X129787Y251080D02*
X138430Y251080D01*
X129787Y248199D02*
X129787Y253961D01*
D11*
X110430Y217938D02*
X111658Y216710D01*
X110430Y217938D02*
X107972Y217938D01*
X106744Y216710D01*
X106744Y211795D01*
X107972Y210566D01*
X110430Y210566D01*
X111658Y211795D01*
X114228Y215481D02*
X116685Y217938D01*
X116685Y210566D01*
X114228Y210566D02*
X119143Y210566D01*
X121712Y216710D02*
X122941Y217938D01*
X125398Y217938D01*
X126627Y216710D01*
X126627Y215481D01*
X125398Y214252D01*
X124169Y214252D01*
X125398Y214252D02*
X126627Y213023D01*
X126627Y211795D01*
X125398Y210566D01*
X122941Y210566D01*
X121712Y211795D01*
D12*
X127635Y315913D02*
X135255Y315913D01*
X131445Y312103D02*
X131445Y319723D01*
X92075Y303213D02*
X92083Y303836D01*
X92106Y304459D01*
X92144Y305082D01*
X92197Y305703D01*
X92266Y306322D01*
X92350Y306940D01*
X92449Y307555D01*
X92563Y308168D01*
X92692Y308778D01*
X92836Y309385D01*
X92995Y309988D01*
X93169Y310586D01*
X93357Y311181D01*
X93560Y311770D01*
X93777Y312354D01*
X94008Y312933D01*
X94254Y313506D01*
X94514Y314073D01*
X94787Y314633D01*
X95074Y315186D01*
X95375Y315733D01*
X95689Y316271D01*
X96016Y316802D01*
X96356Y317324D01*
X96708Y317839D01*
X97074Y318344D01*
X97451Y318840D01*
X97841Y319327D01*
X98242Y319804D01*
X98655Y320271D01*
X99079Y320727D01*
X99514Y321174D01*
X99961Y321609D01*
X100417Y322033D01*
X100884Y322446D01*
X101361Y322847D01*
X101848Y323237D01*
X102344Y323614D01*
X102849Y323980D01*
X103364Y324332D01*
X103886Y324672D01*
X104417Y324999D01*
X104955Y325313D01*
X105502Y325614D01*
X106055Y325901D01*
X106615Y326174D01*
X107182Y326434D01*
X107755Y326680D01*
X108334Y326911D01*
X108918Y327128D01*
X109507Y327331D01*
X110102Y327519D01*
X110700Y327693D01*
X111303Y327852D01*
X111910Y327996D01*
X112520Y328125D01*
X113133Y328239D01*
X113748Y328338D01*
X114366Y328422D01*
X114985Y328491D01*
X115606Y328544D01*
X116229Y328582D01*
X116852Y328605D01*
X117475Y328613D01*
X118098Y328605D01*
X118721Y328582D01*
X119344Y328544D01*
X119965Y328491D01*
X120584Y328422D01*
X121202Y328338D01*
X121817Y328239D01*
X122430Y328125D01*
X123040Y327996D01*
X123647Y327852D01*
X124250Y327693D01*
X124848Y327519D01*
X125443Y327331D01*
X126032Y327128D01*
X126616Y326911D01*
X127195Y326680D01*
X127768Y326434D01*
X128335Y326174D01*
X128895Y325901D01*
X129448Y325614D01*
X129995Y325313D01*
X130533Y324999D01*
X131064Y324672D01*
X131586Y324332D01*
X132101Y323980D01*
X132606Y323614D01*
X133102Y323237D01*
X133589Y322847D01*
X134066Y322446D01*
X134533Y322033D01*
X134989Y321609D01*
X135436Y321174D01*
X135871Y320727D01*
X136295Y320271D01*
X136708Y319804D01*
X137109Y319327D01*
X137499Y318840D01*
X137876Y318344D01*
X138242Y317839D01*
X138594Y317324D01*
X138934Y316802D01*
X139261Y316271D01*
X139575Y315733D01*
X139876Y315186D01*
X140163Y314633D01*
X140436Y314073D01*
X140696Y313506D01*
X140942Y312933D01*
X141173Y312354D01*
X141390Y311770D01*
X141593Y311181D01*
X141781Y310586D01*
X141955Y309988D01*
X142114Y309385D01*
X142258Y308778D01*
X142387Y308168D01*
X142501Y307555D01*
X142600Y306940D01*
X142684Y306322D01*
X142753Y305703D01*
X142806Y305082D01*
X142844Y304459D01*
X142867Y303836D01*
X142875Y303213D01*
X142867Y302590D01*
X142844Y301967D01*
X142806Y301344D01*
X142753Y300723D01*
X142684Y300104D01*
X142600Y299486D01*
X142501Y298871D01*
X142387Y298258D01*
X142258Y297648D01*
X142114Y297041D01*
X141955Y296438D01*
X141781Y295840D01*
X141593Y295245D01*
X141390Y294656D01*
X141173Y294072D01*
X140942Y293493D01*
X140696Y292920D01*
X140436Y292353D01*
X140163Y291793D01*
X139876Y291240D01*
X139575Y290693D01*
X139261Y290155D01*
X138934Y289624D01*
X138594Y289102D01*
X138242Y288587D01*
X137876Y288082D01*
X137499Y287586D01*
X137109Y287099D01*
X136708Y286622D01*
X136295Y286155D01*
X135871Y285699D01*
X135436Y285252D01*
X134989Y284817D01*
X134533Y284393D01*
X134066Y283980D01*
X133589Y283579D01*
X133102Y283189D01*
X132606Y282812D01*
X132101Y282446D01*
X131586Y282094D01*
X131064Y281754D01*
X130533Y281427D01*
X129995Y281113D01*
X129448Y280812D01*
X128895Y280525D01*
X128335Y280252D01*
X127768Y279992D01*
X127195Y279746D01*
X126616Y279515D01*
X126032Y279298D01*
X125443Y279095D01*
X124848Y278907D01*
X124250Y278733D01*
X123647Y278574D01*
X123040Y278430D01*
X122430Y278301D01*
X121817Y278187D01*
X121202Y278088D01*
X120584Y278004D01*
X119965Y277935D01*
X119344Y277882D01*
X118721Y277844D01*
X118098Y277821D01*
X117475Y277813D01*
X116852Y277821D01*
X116229Y277844D01*
X115606Y277882D01*
X114985Y277935D01*
X114366Y278004D01*
X113748Y278088D01*
X113133Y278187D01*
X112520Y278301D01*
X111910Y278430D01*
X111303Y278574D01*
X110700Y278733D01*
X110102Y278907D01*
X109507Y279095D01*
X108918Y279298D01*
X108334Y279515D01*
X107755Y279746D01*
X107182Y279992D01*
X106615Y280252D01*
X106055Y280525D01*
X105502Y280812D01*
X104955Y281113D01*
X104417Y281427D01*
X103886Y281754D01*
X103364Y282094D01*
X102849Y282446D01*
X102344Y282812D01*
X101848Y283189D01*
X101361Y283579D01*
X100884Y283980D01*
X100417Y284393D01*
X99961Y284817D01*
X99514Y285252D01*
X99079Y285699D01*
X98655Y286155D01*
X98242Y286622D01*
X97841Y287099D01*
X97451Y287586D01*
X97074Y288082D01*
X96708Y288587D01*
X96356Y289102D01*
X96016Y289624D01*
X95689Y290155D01*
X95375Y290693D01*
X95074Y291240D01*
X94787Y291793D01*
X94514Y292353D01*
X94254Y292920D01*
X94008Y293493D01*
X93777Y294072D01*
X93560Y294656D01*
X93357Y295245D01*
X93169Y295840D01*
X92995Y296438D01*
X92836Y297041D01*
X92692Y297648D01*
X92563Y298258D01*
X92449Y298871D01*
X92350Y299486D01*
X92266Y300104D01*
X92197Y300723D01*
X92144Y301344D01*
X92106Y301967D01*
X92083Y302590D01*
X92075Y303213D01*
D13*
X96513Y296106D02*
X105156Y296106D01*
X96513Y293225D02*
X96513Y298987D01*
X96513Y305227D02*
X105156Y305227D01*
X96513Y302346D02*
X96513Y308108D01*
D11*
X108256Y338122D02*
X107027Y339350D01*
X104570Y339350D01*
X103341Y338122D01*
X103341Y333207D01*
X104570Y331978D01*
X107027Y331978D01*
X108256Y333207D01*
X110825Y336893D02*
X113283Y339350D01*
X113283Y331978D01*
X115740Y331978D02*
X110825Y331978D01*
X121995Y331978D02*
X121995Y339350D01*
X118309Y335664D01*
X123224Y335664D01*
D12*
X337185Y133350D02*
X344805Y133350D01*
X340995Y129540D02*
X340995Y137160D01*
X301625Y120650D02*
X301633Y121273D01*
X301656Y121896D01*
X301694Y122519D01*
X301747Y123140D01*
X301816Y123759D01*
X301900Y124377D01*
X301999Y124992D01*
X302113Y125605D01*
X302242Y126215D01*
X302386Y126822D01*
X302545Y127425D01*
X302719Y128023D01*
X302907Y128618D01*
X303110Y129207D01*
X303327Y129791D01*
X303558Y130370D01*
X303804Y130943D01*
X304064Y131510D01*
X304337Y132070D01*
X304624Y132623D01*
X304925Y133170D01*
X305239Y133708D01*
X305566Y134239D01*
X305906Y134761D01*
X306258Y135276D01*
X306624Y135781D01*
X307001Y136277D01*
X307391Y136764D01*
X307792Y137241D01*
X308205Y137708D01*
X308629Y138164D01*
X309064Y138611D01*
X309511Y139046D01*
X309967Y139470D01*
X310434Y139883D01*
X310911Y140284D01*
X311398Y140674D01*
X311894Y141051D01*
X312399Y141417D01*
X312914Y141769D01*
X313436Y142109D01*
X313967Y142436D01*
X314505Y142750D01*
X315052Y143051D01*
X315605Y143338D01*
X316165Y143611D01*
X316732Y143871D01*
X317305Y144117D01*
X317884Y144348D01*
X318468Y144565D01*
X319057Y144768D01*
X319652Y144956D01*
X320250Y145130D01*
X320853Y145289D01*
X321460Y145433D01*
X322070Y145562D01*
X322683Y145676D01*
X323298Y145775D01*
X323916Y145859D01*
X324535Y145928D01*
X325156Y145981D01*
X325779Y146019D01*
X326402Y146042D01*
X327025Y146050D01*
X327648Y146042D01*
X328271Y146019D01*
X328894Y145981D01*
X329515Y145928D01*
X330134Y145859D01*
X330752Y145775D01*
X331367Y145676D01*
X331980Y145562D01*
X332590Y145433D01*
X333197Y145289D01*
X333800Y145130D01*
X334398Y144956D01*
X334993Y144768D01*
X335582Y144565D01*
X336166Y144348D01*
X336745Y144117D01*
X337318Y143871D01*
X337885Y143611D01*
X338445Y143338D01*
X338998Y143051D01*
X339545Y142750D01*
X340083Y142436D01*
X340614Y142109D01*
X341136Y141769D01*
X341651Y141417D01*
X342156Y141051D01*
X342652Y140674D01*
X343139Y140284D01*
X343616Y139883D01*
X344083Y139470D01*
X344539Y139046D01*
X344986Y138611D01*
X345421Y138164D01*
X345845Y137708D01*
X346258Y137241D01*
X346659Y136764D01*
X347049Y136277D01*
X347426Y135781D01*
X347792Y135276D01*
X348144Y134761D01*
X348484Y134239D01*
X348811Y133708D01*
X349125Y133170D01*
X349426Y132623D01*
X349713Y132070D01*
X349986Y131510D01*
X350246Y130943D01*
X350492Y130370D01*
X350723Y129791D01*
X350940Y129207D01*
X351143Y128618D01*
X351331Y128023D01*
X351505Y127425D01*
X351664Y126822D01*
X351808Y126215D01*
X351937Y125605D01*
X352051Y124992D01*
X352150Y124377D01*
X352234Y123759D01*
X352303Y123140D01*
X352356Y122519D01*
X352394Y121896D01*
X352417Y121273D01*
X352425Y120650D01*
X352417Y120027D01*
X352394Y119404D01*
X352356Y118781D01*
X352303Y118160D01*
X352234Y117541D01*
X352150Y116923D01*
X352051Y116308D01*
X351937Y115695D01*
X351808Y115085D01*
X351664Y114478D01*
X351505Y113875D01*
X351331Y113277D01*
X351143Y112682D01*
X350940Y112093D01*
X350723Y111509D01*
X350492Y110930D01*
X350246Y110357D01*
X349986Y109790D01*
X349713Y109230D01*
X349426Y108677D01*
X349125Y108130D01*
X348811Y107592D01*
X348484Y107061D01*
X348144Y106539D01*
X347792Y106024D01*
X347426Y105519D01*
X347049Y105023D01*
X346659Y104536D01*
X346258Y104059D01*
X345845Y103592D01*
X345421Y103136D01*
X344986Y102689D01*
X344539Y102254D01*
X344083Y101830D01*
X343616Y101417D01*
X343139Y101016D01*
X342652Y100626D01*
X342156Y100249D01*
X341651Y99883D01*
X341136Y99531D01*
X340614Y99191D01*
X340083Y98864D01*
X339545Y98550D01*
X338998Y98249D01*
X338445Y97962D01*
X337885Y97689D01*
X337318Y97429D01*
X336745Y97183D01*
X336166Y96952D01*
X335582Y96735D01*
X334993Y96532D01*
X334398Y96344D01*
X333800Y96170D01*
X333197Y96011D01*
X332590Y95867D01*
X331980Y95738D01*
X331367Y95624D01*
X330752Y95525D01*
X330134Y95441D01*
X329515Y95372D01*
X328894Y95319D01*
X328271Y95281D01*
X327648Y95258D01*
X327025Y95250D01*
X326402Y95258D01*
X325779Y95281D01*
X325156Y95319D01*
X324535Y95372D01*
X323916Y95441D01*
X323298Y95525D01*
X322683Y95624D01*
X322070Y95738D01*
X321460Y95867D01*
X320853Y96011D01*
X320250Y96170D01*
X319652Y96344D01*
X319057Y96532D01*
X318468Y96735D01*
X317884Y96952D01*
X317305Y97183D01*
X316732Y97429D01*
X316165Y97689D01*
X315605Y97962D01*
X315052Y98249D01*
X314505Y98550D01*
X313967Y98864D01*
X313436Y99191D01*
X312914Y99531D01*
X312399Y99883D01*
X311894Y100249D01*
X311398Y100626D01*
X310911Y101016D01*
X310434Y101417D01*
X309967Y101830D01*
X309511Y102254D01*
X309064Y102689D01*
X308629Y103136D01*
X308205Y103592D01*
X307792Y104059D01*
X307391Y104536D01*
X307001Y105023D01*
X306624Y105519D01*
X306258Y106024D01*
X305906Y106539D01*
X305566Y107061D01*
X305239Y107592D01*
X304925Y108130D01*
X304624Y108677D01*
X304337Y109230D01*
X304064Y109790D01*
X303804Y110357D01*
X303558Y110930D01*
X303327Y111509D01*
X303110Y112093D01*
X302907Y112682D01*
X302719Y113277D01*
X302545Y113875D01*
X302386Y114478D01*
X302242Y115085D01*
X302113Y115695D01*
X301999Y116308D01*
X301900Y116923D01*
X301816Y117541D01*
X301747Y118160D01*
X301694Y118781D01*
X301656Y119404D01*
X301633Y120027D01*
X301625Y120650D01*
D13*
X306063Y113544D02*
X314706Y113544D01*
X306063Y110662D02*
X306063Y116425D01*
X306063Y122665D02*
X314706Y122665D01*
X306063Y119784D02*
X306063Y125546D01*
D11*
X322796Y155750D02*
X321567Y156978D01*
X319110Y156978D01*
X317881Y155750D01*
X317881Y150835D01*
X319110Y149606D01*
X321567Y149606D01*
X322796Y150835D01*
X325365Y149606D02*
X330280Y149606D01*
X325365Y149606D02*
X330280Y154521D01*
X330280Y155750D01*
X329051Y156978D01*
X326594Y156978D01*
X325365Y155750D01*
X174768Y130708D02*
X173539Y129480D01*
X173539Y127022D01*
X174768Y125794D01*
X179683Y125794D01*
X180912Y127022D01*
X180912Y129480D01*
X179683Y130708D01*
X180912Y136964D02*
X173539Y136964D01*
X177225Y133278D01*
X177225Y138193D01*
X310255Y330411D02*
X311483Y331640D01*
X310255Y330411D02*
X310255Y327954D01*
X311483Y326725D01*
X316398Y326725D01*
X317627Y327954D01*
X317627Y330411D01*
X316398Y331640D01*
X310255Y334209D02*
X310255Y339124D01*
X311483Y339124D01*
X316398Y334209D01*
X317627Y334209D01*
D12*
X292418Y120650D02*
X284798Y120650D01*
X288608Y116840D02*
X288608Y124460D01*
X249238Y107950D02*
X249246Y108573D01*
X249269Y109196D01*
X249307Y109819D01*
X249360Y110440D01*
X249429Y111059D01*
X249513Y111677D01*
X249612Y112292D01*
X249726Y112905D01*
X249855Y113515D01*
X249999Y114122D01*
X250158Y114725D01*
X250332Y115323D01*
X250520Y115918D01*
X250723Y116507D01*
X250940Y117091D01*
X251171Y117670D01*
X251417Y118243D01*
X251677Y118810D01*
X251950Y119370D01*
X252237Y119923D01*
X252538Y120470D01*
X252852Y121008D01*
X253179Y121539D01*
X253519Y122061D01*
X253871Y122576D01*
X254237Y123081D01*
X254614Y123577D01*
X255004Y124064D01*
X255405Y124541D01*
X255818Y125008D01*
X256242Y125464D01*
X256677Y125911D01*
X257124Y126346D01*
X257580Y126770D01*
X258047Y127183D01*
X258524Y127584D01*
X259011Y127974D01*
X259507Y128351D01*
X260012Y128717D01*
X260527Y129069D01*
X261049Y129409D01*
X261580Y129736D01*
X262118Y130050D01*
X262665Y130351D01*
X263218Y130638D01*
X263778Y130911D01*
X264345Y131171D01*
X264918Y131417D01*
X265497Y131648D01*
X266081Y131865D01*
X266670Y132068D01*
X267265Y132256D01*
X267863Y132430D01*
X268466Y132589D01*
X269073Y132733D01*
X269683Y132862D01*
X270296Y132976D01*
X270911Y133075D01*
X271529Y133159D01*
X272148Y133228D01*
X272769Y133281D01*
X273392Y133319D01*
X274015Y133342D01*
X274638Y133350D01*
X275261Y133342D01*
X275884Y133319D01*
X276507Y133281D01*
X277128Y133228D01*
X277747Y133159D01*
X278365Y133075D01*
X278980Y132976D01*
X279593Y132862D01*
X280203Y132733D01*
X280810Y132589D01*
X281413Y132430D01*
X282011Y132256D01*
X282606Y132068D01*
X283195Y131865D01*
X283779Y131648D01*
X284358Y131417D01*
X284931Y131171D01*
X285498Y130911D01*
X286058Y130638D01*
X286611Y130351D01*
X287158Y130050D01*
X287696Y129736D01*
X288227Y129409D01*
X288749Y129069D01*
X289264Y128717D01*
X289769Y128351D01*
X290265Y127974D01*
X290752Y127584D01*
X291229Y127183D01*
X291696Y126770D01*
X292152Y126346D01*
X292599Y125911D01*
X293034Y125464D01*
X293458Y125008D01*
X293871Y124541D01*
X294272Y124064D01*
X294662Y123577D01*
X295039Y123081D01*
X295405Y122576D01*
X295757Y122061D01*
X296097Y121539D01*
X296424Y121008D01*
X296738Y120470D01*
X297039Y119923D01*
X297326Y119370D01*
X297599Y118810D01*
X297859Y118243D01*
X298105Y117670D01*
X298336Y117091D01*
X298553Y116507D01*
X298756Y115918D01*
X298944Y115323D01*
X299118Y114725D01*
X299277Y114122D01*
X299421Y113515D01*
X299550Y112905D01*
X299664Y112292D01*
X299763Y111677D01*
X299847Y111059D01*
X299916Y110440D01*
X299969Y109819D01*
X300007Y109196D01*
X300030Y108573D01*
X300038Y107950D01*
X300030Y107327D01*
X300007Y106704D01*
X299969Y106081D01*
X299916Y105460D01*
X299847Y104841D01*
X299763Y104223D01*
X299664Y103608D01*
X299550Y102995D01*
X299421Y102385D01*
X299277Y101778D01*
X299118Y101175D01*
X298944Y100577D01*
X298756Y99982D01*
X298553Y99393D01*
X298336Y98809D01*
X298105Y98230D01*
X297859Y97657D01*
X297599Y97090D01*
X297326Y96530D01*
X297039Y95977D01*
X296738Y95430D01*
X296424Y94892D01*
X296097Y94361D01*
X295757Y93839D01*
X295405Y93324D01*
X295039Y92819D01*
X294662Y92323D01*
X294272Y91836D01*
X293871Y91359D01*
X293458Y90892D01*
X293034Y90436D01*
X292599Y89989D01*
X292152Y89554D01*
X291696Y89130D01*
X291229Y88717D01*
X290752Y88316D01*
X290265Y87926D01*
X289769Y87549D01*
X289264Y87183D01*
X288749Y86831D01*
X288227Y86491D01*
X287696Y86164D01*
X287158Y85850D01*
X286611Y85549D01*
X286058Y85262D01*
X285498Y84989D01*
X284931Y84729D01*
X284358Y84483D01*
X283779Y84252D01*
X283195Y84035D01*
X282606Y83832D01*
X282011Y83644D01*
X281413Y83470D01*
X280810Y83311D01*
X280203Y83167D01*
X279593Y83038D01*
X278980Y82924D01*
X278365Y82825D01*
X277747Y82741D01*
X277128Y82672D01*
X276507Y82619D01*
X275884Y82581D01*
X275261Y82558D01*
X274638Y82550D01*
X274015Y82558D01*
X273392Y82581D01*
X272769Y82619D01*
X272148Y82672D01*
X271529Y82741D01*
X270911Y82825D01*
X270296Y82924D01*
X269683Y83038D01*
X269073Y83167D01*
X268466Y83311D01*
X267863Y83470D01*
X267265Y83644D01*
X266670Y83832D01*
X266081Y84035D01*
X265497Y84252D01*
X264918Y84483D01*
X264345Y84729D01*
X263778Y84989D01*
X263218Y85262D01*
X262665Y85549D01*
X262118Y85850D01*
X261580Y86164D01*
X261049Y86491D01*
X260527Y86831D01*
X260012Y87183D01*
X259507Y87549D01*
X259011Y87926D01*
X258524Y88316D01*
X258047Y88717D01*
X257580Y89130D01*
X257124Y89554D01*
X256677Y89989D01*
X256242Y90436D01*
X255818Y90892D01*
X255405Y91359D01*
X255004Y91836D01*
X254614Y92323D01*
X254237Y92819D01*
X253871Y93324D01*
X253519Y93839D01*
X253179Y94361D01*
X252852Y94892D01*
X252538Y95430D01*
X252237Y95977D01*
X251950Y96530D01*
X251677Y97090D01*
X251417Y97657D01*
X251171Y98230D01*
X250940Y98809D01*
X250723Y99393D01*
X250520Y99982D01*
X250332Y100577D01*
X250158Y101175D01*
X249999Y101778D01*
X249855Y102385D01*
X249726Y102995D01*
X249612Y103608D01*
X249513Y104223D01*
X249429Y104841D01*
X249360Y105460D01*
X249307Y106081D01*
X249269Y106704D01*
X249246Y107327D01*
X249238Y107950D01*
D13*
X253675Y100844D02*
X262319Y100844D01*
X253675Y97962D02*
X253675Y103725D01*
X253675Y109965D02*
X262319Y109965D01*
X253675Y107084D02*
X253675Y112846D01*
D11*
X273266Y142732D02*
X272037Y143961D01*
X269580Y143961D01*
X268351Y142732D01*
X268351Y137817D01*
X269580Y136589D01*
X272037Y136589D01*
X273266Y137817D01*
X275835Y142732D02*
X277064Y143961D01*
X279521Y143961D01*
X280750Y142732D01*
X280750Y141503D01*
X279521Y140275D01*
X280750Y139046D01*
X280750Y137817D01*
X279521Y136589D01*
X277064Y136589D01*
X275835Y137817D01*
X275835Y139046D01*
X277064Y140275D01*
X275835Y141503D01*
X275835Y142732D01*
X277064Y140275D02*
X279521Y140275D01*
X345694Y299149D02*
X345694Y301606D01*
X345694Y300377D02*
X338322Y300377D01*
X338322Y299149D02*
X338322Y301606D01*
X338322Y305367D02*
X338322Y307824D01*
X338322Y305367D02*
X339550Y304138D01*
X344465Y304138D01*
X345694Y305367D01*
X345694Y307824D01*
X344465Y309053D01*
X339550Y309053D01*
X338322Y307824D01*
X340779Y311622D02*
X338322Y314080D01*
X345694Y314080D01*
X345694Y316537D02*
X345694Y311622D01*
D12*
X401638Y212725D02*
X414338Y212725D01*
X420688Y206375D01*
X420688Y193675D01*
X414338Y187325D01*
X395288Y193675D02*
X395288Y206375D01*
X401638Y212725D01*
X395288Y193675D02*
X401638Y187325D01*
X414338Y187325D01*
X420688Y206375D02*
X427038Y212725D01*
X439738Y212725D01*
X446088Y206375D01*
X446088Y193675D01*
X439738Y187325D01*
X427038Y187325D01*
X420688Y193675D01*
D11*
X454447Y190437D02*
X455676Y191665D01*
X455676Y192894D01*
X454447Y194123D01*
X448304Y194123D01*
X448304Y195351D02*
X448304Y192894D01*
X448304Y197921D02*
X455676Y197921D01*
X448304Y197921D02*
X448304Y201607D01*
X449532Y202836D01*
X451990Y202836D01*
X453219Y201607D01*
X453219Y197921D01*
X450761Y205405D02*
X448304Y207862D01*
X455676Y207862D01*
X455676Y205405D02*
X455676Y210320D01*
D12*
X439738Y330200D02*
X427038Y330200D01*
X439738Y330200D02*
X446088Y323850D01*
X446088Y311150D01*
X439738Y304800D01*
X420688Y311150D02*
X420688Y323850D01*
X427038Y330200D01*
X420688Y311150D02*
X427038Y304800D01*
X439738Y304800D01*
D11*
X453812Y304737D02*
X455041Y305965D01*
X455041Y307194D01*
X453812Y308423D01*
X447669Y308423D01*
X447669Y309651D02*
X447669Y307194D01*
X447669Y312221D02*
X455041Y312221D01*
X447669Y312221D02*
X447669Y315907D01*
X448897Y317136D01*
X451355Y317136D01*
X452584Y315907D01*
X452584Y312221D01*
X450126Y319705D02*
X447669Y322162D01*
X455041Y322162D01*
X455041Y319705D02*
X455041Y324620D01*
X453812Y327189D02*
X448897Y327189D01*
X447669Y328418D01*
X447669Y330875D01*
X448897Y332104D01*
X453812Y332104D01*
X455041Y330875D01*
X455041Y328418D01*
X453812Y327189D01*
X448897Y332104D01*
D12*
X381000Y211138D02*
X368300Y211138D01*
X381000Y211138D02*
X387350Y204788D01*
X387350Y192088D01*
X381000Y185738D01*
X361950Y192088D02*
X361950Y204788D01*
X368300Y211138D01*
X361950Y192088D02*
X368300Y185738D01*
X381000Y185738D01*
D11*
X354394Y191348D02*
X353165Y190119D01*
X354394Y191348D02*
X354394Y192576D01*
X353165Y193805D01*
X347021Y193805D01*
X347021Y192576D02*
X347021Y195034D01*
X347021Y197603D02*
X354394Y197603D01*
X347021Y197603D02*
X347021Y201289D01*
X348250Y202518D01*
X350707Y202518D01*
X351936Y201289D01*
X351936Y197603D01*
X354394Y205087D02*
X354394Y210002D01*
X354394Y205087D02*
X349479Y210002D01*
X348250Y210002D01*
X347021Y208773D01*
X347021Y206316D01*
X348250Y205087D01*
D12*
X427038Y279400D02*
X439738Y279400D01*
X446088Y273050D01*
X446088Y260350D01*
X439738Y254000D01*
X420688Y260350D02*
X420688Y273050D01*
X427038Y279400D01*
X420688Y260350D02*
X427038Y254000D01*
X439738Y254000D01*
D11*
X455082Y257747D02*
X456311Y258975D01*
X456311Y260204D01*
X455082Y261433D01*
X448939Y261433D01*
X448939Y262661D02*
X448939Y260204D01*
X448939Y265231D02*
X456311Y265231D01*
X448939Y265231D02*
X448939Y268917D01*
X450167Y270146D01*
X452625Y270146D01*
X453854Y268917D01*
X453854Y265231D01*
X450167Y272715D02*
X448939Y273944D01*
X448939Y276401D01*
X450167Y277630D01*
X451396Y277630D01*
X452625Y276401D01*
X452625Y275172D01*
X452625Y276401D02*
X453854Y277630D01*
X455082Y277630D01*
X456311Y276401D01*
X456311Y273944D01*
X455082Y272715D01*
D12*
X414338Y266700D02*
X401638Y266700D01*
X414338Y266700D02*
X420688Y260350D01*
X420688Y247650D01*
X414338Y241300D01*
X395288Y247650D02*
X395288Y260350D01*
X401638Y266700D01*
X395288Y247650D02*
X401638Y241300D01*
X414338Y241300D01*
D11*
X391541Y245005D02*
X390312Y243777D01*
X391541Y245005D02*
X391541Y246234D01*
X390312Y247463D01*
X384169Y247463D01*
X384169Y248691D02*
X384169Y246234D01*
X384169Y251261D02*
X391541Y251261D01*
X384169Y251261D02*
X384169Y254947D01*
X385397Y256176D01*
X387855Y256176D01*
X389084Y254947D01*
X389084Y251261D01*
X391541Y262431D02*
X384169Y262431D01*
X387855Y258745D01*
X387855Y263660D01*
D12*
X427038Y254000D02*
X439738Y254000D01*
X446088Y247650D01*
X446088Y234950D01*
X439738Y228600D01*
X420688Y234950D02*
X420688Y247650D01*
X427038Y254000D01*
X420688Y234950D02*
X427038Y228600D01*
X439738Y228600D01*
D11*
X455082Y232347D02*
X456311Y233575D01*
X456311Y234804D01*
X455082Y236033D01*
X448939Y236033D01*
X448939Y237261D02*
X448939Y234804D01*
X448939Y239831D02*
X456311Y239831D01*
X448939Y239831D02*
X448939Y243517D01*
X450167Y244746D01*
X452625Y244746D01*
X453854Y243517D01*
X453854Y239831D01*
X448939Y247315D02*
X448939Y252230D01*
X448939Y247315D02*
X452625Y247315D01*
X451396Y249772D01*
X451396Y251001D01*
X452625Y252230D01*
X455082Y252230D01*
X456311Y251001D01*
X456311Y248544D01*
X455082Y247315D01*
D12*
X414338Y241300D02*
X401638Y241300D01*
X414338Y241300D02*
X420688Y234950D01*
X420688Y222250D01*
X414338Y215900D01*
X395288Y222250D02*
X395288Y234950D01*
X401638Y241300D01*
X395288Y222250D02*
X401638Y215900D01*
X414338Y215900D01*
D11*
X392811Y217065D02*
X391582Y215837D01*
X392811Y217065D02*
X392811Y218294D01*
X391582Y219523D01*
X385439Y219523D01*
X385439Y220751D02*
X385439Y218294D01*
X385439Y223321D02*
X392811Y223321D01*
X385439Y223321D02*
X385439Y227007D01*
X386667Y228236D01*
X389125Y228236D01*
X390354Y227007D01*
X390354Y223321D01*
X386667Y233262D02*
X385439Y235720D01*
X386667Y233262D02*
X389125Y230805D01*
X391582Y230805D01*
X392811Y232034D01*
X392811Y234491D01*
X391582Y235720D01*
X390354Y235720D01*
X389125Y234491D01*
X389125Y230805D01*
D12*
X401638Y368300D02*
X414338Y368300D01*
X420688Y361950D01*
X420688Y349250D01*
X414338Y342900D01*
X395288Y349250D02*
X395288Y361950D01*
X401638Y368300D01*
X395288Y349250D02*
X401638Y342900D01*
X414338Y342900D01*
D11*
X391541Y342795D02*
X390312Y341567D01*
X391541Y342795D02*
X391541Y344024D01*
X390312Y345253D01*
X384169Y345253D01*
X384169Y346481D02*
X384169Y344024D01*
X384169Y349051D02*
X391541Y349051D01*
X384169Y349051D02*
X384169Y352737D01*
X385397Y353966D01*
X387855Y353966D01*
X389084Y352737D01*
X389084Y349051D01*
X384169Y356535D02*
X384169Y361450D01*
X385397Y361450D01*
X390312Y356535D01*
X391541Y356535D01*
D12*
X427038Y355600D02*
X439738Y355600D01*
X446088Y349250D01*
X446088Y336550D01*
X439738Y330200D01*
X420688Y336550D02*
X420688Y349250D01*
X427038Y355600D01*
X420688Y336550D02*
X427038Y330200D01*
X439738Y330200D01*
D11*
X453812Y335217D02*
X455041Y336445D01*
X455041Y337674D01*
X453812Y338903D01*
X447669Y338903D01*
X447669Y340131D02*
X447669Y337674D01*
X447669Y342701D02*
X455041Y342701D01*
X447669Y342701D02*
X447669Y346387D01*
X448897Y347616D01*
X451355Y347616D01*
X452584Y346387D01*
X452584Y342701D01*
X448897Y350185D02*
X447669Y351414D01*
X447669Y353871D01*
X448897Y355100D01*
X450126Y355100D01*
X451355Y353871D01*
X452584Y355100D01*
X453812Y355100D01*
X455041Y353871D01*
X455041Y351414D01*
X453812Y350185D01*
X452584Y350185D01*
X451355Y351414D01*
X450126Y350185D01*
X448897Y350185D01*
X451355Y351414D02*
X451355Y353871D01*
D12*
X414338Y342900D02*
X401638Y342900D01*
X414338Y342900D02*
X420688Y336550D01*
X420688Y323850D01*
X414338Y317500D01*
X395288Y323850D02*
X395288Y336550D01*
X401638Y342900D01*
X395288Y323850D02*
X401638Y317500D01*
X414338Y317500D01*
D11*
X391541Y319935D02*
X390312Y318707D01*
X391541Y319935D02*
X391541Y321164D01*
X390312Y322393D01*
X384169Y322393D01*
X384169Y323621D02*
X384169Y321164D01*
X384169Y326191D02*
X391541Y326191D01*
X384169Y326191D02*
X384169Y329877D01*
X385397Y331106D01*
X387855Y331106D01*
X389084Y329877D01*
X389084Y326191D01*
X390312Y333675D02*
X391541Y334904D01*
X391541Y337361D01*
X390312Y338590D01*
X385397Y338590D01*
X384169Y337361D01*
X384169Y334904D01*
X385397Y333675D01*
X386626Y333675D01*
X387855Y334904D01*
X387855Y338590D01*
D10*
X294925Y297925D02*
X294925Y279925D01*
X282925Y279925D02*
X282925Y297925D01*
D11*
X278574Y267876D02*
X271202Y267876D01*
X278574Y267876D02*
X278574Y272791D01*
X273659Y275360D02*
X271202Y277818D01*
X278574Y277818D01*
X278574Y280275D02*
X278574Y275360D01*
X310351Y264103D02*
X310351Y256731D01*
X310351Y264103D02*
X314037Y264103D01*
X315266Y262874D01*
X315266Y260417D01*
X314037Y259188D01*
X310351Y259188D01*
X312808Y259188D02*
X315266Y256731D01*
X317835Y261645D02*
X320293Y264103D01*
X320293Y256731D01*
X322750Y256731D02*
X317835Y256731D01*
X325319Y261645D02*
X327777Y264103D01*
X327777Y256731D01*
X330234Y256731D02*
X325319Y256731D01*
X347720Y251614D02*
X355092Y251614D01*
X347720Y251614D02*
X347720Y255300D01*
X348948Y256528D01*
X351406Y256528D01*
X352635Y255300D01*
X352635Y251614D01*
X352635Y254071D02*
X355092Y256528D01*
X350177Y259098D02*
X347720Y261555D01*
X355092Y261555D01*
X355092Y259098D02*
X355092Y264013D01*
X355092Y266582D02*
X355092Y271497D01*
X355092Y266582D02*
X350177Y271497D01*
X348948Y271497D01*
X347720Y270268D01*
X347720Y267811D01*
X348948Y266582D01*
D14*
X147638Y142875D02*
X77788Y142875D01*
X147638Y142875D02*
X147638Y73025D01*
X77788Y73025D01*
X77788Y142875D01*
D13*
X136843Y84038D02*
X138283Y85478D01*
X141164Y85478D01*
X142605Y84038D01*
X142605Y82597D01*
X141164Y81157D01*
X139724Y81157D01*
X141164Y81157D02*
X142605Y79716D01*
X142605Y78276D01*
X141164Y76835D01*
X138283Y76835D01*
X136843Y78276D01*
X87019Y85478D02*
X84138Y82597D01*
X87019Y85478D02*
X87019Y76835D01*
X84138Y76835D02*
X89900Y76835D01*
D11*
X105474Y147701D02*
X105474Y155073D01*
X109160Y155073D01*
X110388Y153845D01*
X110388Y151387D01*
X109160Y150158D01*
X105474Y150158D01*
X107931Y150158D02*
X110388Y147701D01*
X112958Y152616D02*
X115415Y155073D01*
X115415Y147701D01*
X112958Y147701D02*
X117873Y147701D01*
X120442Y153845D02*
X121671Y155073D01*
X124128Y155073D01*
X125357Y153845D01*
X125357Y152616D01*
X124128Y151387D01*
X125357Y150158D01*
X125357Y148930D01*
X124128Y147701D01*
X121671Y147701D01*
X120442Y148930D01*
X120442Y150158D01*
X121671Y151387D01*
X120442Y152616D01*
X120442Y153845D01*
X121671Y151387D02*
X124128Y151387D01*
D14*
X163513Y339725D02*
X233363Y339725D01*
X163513Y339725D02*
X163513Y409575D01*
X233363Y409575D01*
X233363Y339725D01*
D13*
X167897Y405772D02*
X166456Y404332D01*
X167897Y405772D02*
X170778Y405772D01*
X172218Y404332D01*
X172218Y402891D01*
X170778Y401451D01*
X169337Y401451D01*
X170778Y401451D02*
X172218Y400010D01*
X172218Y398570D01*
X170778Y397129D01*
X167897Y397129D01*
X166456Y398570D01*
X219161Y402891D02*
X222042Y405772D01*
X222042Y397129D01*
X219161Y397129D02*
X224923Y397129D01*
D11*
X160147Y369270D02*
X152775Y369270D01*
X152775Y372956D01*
X154003Y374185D01*
X156461Y374185D01*
X157690Y372956D01*
X157690Y369270D01*
X157690Y371728D02*
X160147Y374185D01*
X152775Y376754D02*
X152775Y381669D01*
X154003Y381669D01*
X158918Y376754D01*
X160147Y376754D01*
D12*
X376238Y171450D02*
X376238Y44450D01*
X376238Y171450D02*
X439738Y171450D01*
X439738Y44450D02*
X376238Y44450D01*
X363538Y44450D02*
X363538Y31750D01*
X363538Y184150D02*
X452438Y184150D01*
X452438Y31750D02*
X363538Y31750D01*
X432118Y128270D02*
X439738Y128270D01*
X432118Y128270D02*
X432118Y87630D01*
X439738Y87630D01*
X439738Y44450D01*
X439738Y87630D02*
X442278Y87630D01*
X363538Y171450D02*
X360998Y171450D01*
X360998Y158750D01*
X363538Y158750D01*
X363538Y171450D02*
X363538Y184150D01*
X360998Y114300D02*
X360998Y101600D01*
X360998Y114300D02*
X363538Y114300D01*
X363538Y158750D01*
X363538Y101600D02*
X360998Y101600D01*
X360998Y57150D02*
X360998Y44450D01*
X363538Y44450D01*
X363538Y57150D02*
X360998Y57150D01*
X363538Y57150D02*
X363538Y101600D01*
X452438Y128270D02*
X452438Y184150D01*
X452438Y128270D02*
X452438Y87630D01*
X439738Y128270D02*
X439738Y171450D01*
X439738Y128270D02*
X442278Y128270D01*
X452438Y128270D01*
D15*
X442278Y128270D02*
X442278Y173990D01*
X373698Y173990D01*
X373698Y41910D01*
X442278Y41910D01*
X442278Y87630D01*
D12*
X452438Y87630D01*
X452438Y82550D01*
X451168Y82550D01*
X451168Y69850D01*
X452438Y69850D01*
X452438Y31750D01*
D13*
X418776Y57785D02*
X414963Y61598D01*
X426403Y61598D01*
X426403Y57785D02*
X426403Y65412D01*
X401003Y65412D02*
X401003Y57785D01*
X393376Y65412D01*
X391469Y65412D01*
X389563Y63505D01*
X389563Y59692D01*
X391469Y57785D01*
X438459Y108588D02*
X436553Y112402D01*
X438459Y108588D02*
X442273Y104775D01*
X446086Y104775D01*
X447993Y106682D01*
X447993Y110495D01*
X446086Y112402D01*
X444179Y112402D01*
X442273Y110495D01*
X442273Y104775D01*
D11*
X394365Y26613D02*
X395593Y25384D01*
X394365Y26613D02*
X391907Y26613D01*
X390679Y25384D01*
X390679Y24155D01*
X391907Y22927D01*
X394365Y22927D01*
X395593Y21698D01*
X395593Y20469D01*
X394365Y19241D01*
X391907Y19241D01*
X390679Y20469D01*
X398163Y21698D02*
X398163Y26613D01*
X398163Y21698D02*
X400620Y19241D01*
X403078Y21698D01*
X403078Y26613D01*
X405647Y24155D02*
X408104Y26613D01*
X408104Y19241D01*
X405647Y19241D02*
X410562Y19241D01*
D13*
X221438Y86425D02*
X214438Y86425D01*
X221438Y86425D02*
X221438Y111425D01*
X220438Y111425D01*
X181438Y86425D02*
X175438Y86425D01*
X175438Y110425D01*
X176438Y110425D01*
D11*
X225800Y94950D02*
X231943Y94950D01*
X233172Y96179D01*
X233172Y98636D01*
X231943Y99865D01*
X225800Y99865D01*
X228257Y102434D02*
X225800Y104892D01*
X233172Y104892D01*
X233172Y107349D02*
X233172Y102434D01*
D16*
X330200Y471488D02*
X381000Y471488D01*
X330200Y471488D02*
X330200Y490538D01*
X330200Y534988D01*
X381000Y534988D01*
X381000Y490538D01*
X381000Y471488D01*
X381000Y490538D02*
X330200Y490538D01*
D17*
X386898Y500888D02*
X396050Y506989D01*
X396050Y500888D02*
X386898Y506989D01*
X389948Y510243D02*
X386898Y513294D01*
X396050Y513294D01*
X396050Y516344D02*
X396050Y510243D01*
D16*
X388938Y425450D02*
X388938Y374650D01*
X388938Y425450D02*
X407988Y425450D01*
X452438Y425450D01*
X452438Y374650D01*
X407988Y374650D01*
X388938Y374650D01*
X407988Y374650D02*
X407988Y425450D01*
D11*
X427101Y369386D02*
X432016Y362014D01*
X427101Y362014D02*
X432016Y369386D01*
X434585Y362014D02*
X439500Y362014D01*
X439500Y366928D02*
X434585Y362014D01*
X439500Y366928D02*
X439500Y368157D01*
X438271Y369386D01*
X435814Y369386D01*
X434585Y368157D01*
D16*
X71438Y355600D02*
X71438Y406400D01*
X71438Y355600D02*
X52388Y355600D01*
X7938Y355600D01*
X7938Y406400D01*
X52388Y406400D01*
X71438Y406400D01*
X52388Y406400D02*
X52388Y355600D01*
D17*
X36159Y410401D02*
X30058Y419552D01*
X36159Y419552D02*
X30058Y410401D01*
X39413Y418027D02*
X40938Y419552D01*
X43989Y419552D01*
X45514Y418027D01*
X45514Y416502D01*
X43989Y414976D01*
X42463Y414976D01*
X43989Y414976D02*
X45514Y413451D01*
X45514Y411926D01*
X43989Y410401D01*
X40938Y410401D01*
X39413Y411926D01*
D16*
X7938Y171450D02*
X7938Y120650D01*
X7938Y171450D02*
X26988Y171450D01*
X71438Y171450D01*
X71438Y120650D01*
X26988Y120650D01*
X7938Y120650D01*
X26988Y120650D02*
X26988Y171450D01*
D17*
X32258Y116022D02*
X38359Y106871D01*
X32258Y106871D02*
X38359Y116022D01*
X46189Y116022D02*
X46189Y106871D01*
X41613Y111446D02*
X46189Y116022D01*
X47714Y111446D02*
X41613Y111446D01*
D16*
X71438Y177800D02*
X71438Y279400D01*
X71438Y177800D02*
X52388Y177800D01*
X7938Y177800D01*
X7938Y279400D01*
X52388Y279400D01*
X71438Y279400D01*
X52388Y279400D02*
X52388Y177800D01*
D17*
X34889Y283401D02*
X28788Y292552D01*
X34889Y292552D02*
X28788Y283401D01*
X38143Y292552D02*
X44244Y292552D01*
X38143Y292552D02*
X38143Y287976D01*
X41193Y289502D01*
X42719Y289502D01*
X44244Y287976D01*
X44244Y284926D01*
X42719Y283401D01*
X39668Y283401D01*
X38143Y284926D01*
D16*
X52388Y6350D02*
X357188Y6350D01*
X52388Y6350D02*
X52388Y25400D01*
X52388Y69850D01*
X357188Y69850D01*
X357188Y25400D01*
X357188Y6350D01*
X357188Y25400D02*
X52388Y25400D01*
D17*
X37330Y50695D02*
X46482Y56796D01*
X46482Y50695D02*
X37330Y56796D01*
X38856Y63101D02*
X37330Y66152D01*
X38856Y63101D02*
X41906Y60050D01*
X44957Y60050D01*
X46482Y61576D01*
X46482Y64626D01*
X44957Y66152D01*
X43431Y66152D01*
X41906Y64626D01*
X41906Y60050D01*
D16*
X7938Y438150D02*
X7938Y488950D01*
X26988Y488950D01*
X71438Y488950D01*
X71438Y438150D01*
X26988Y438150D01*
X7938Y438150D01*
X26988Y438150D02*
X26988Y488950D01*
D17*
X38359Y492951D02*
X32258Y502102D01*
X38359Y502102D02*
X32258Y492951D01*
X41613Y502102D02*
X47714Y502102D01*
X47714Y500577D01*
X41613Y494476D01*
X41613Y492951D01*
D16*
X274638Y471488D02*
X325438Y471488D01*
X274638Y471488D02*
X274638Y490538D01*
X274638Y534988D01*
X325438Y534988D01*
X325438Y490538D01*
X325438Y471488D01*
X325438Y490538D02*
X274638Y490538D01*
D17*
X261803Y500275D02*
X270955Y506376D01*
X270955Y500275D02*
X261803Y506376D01*
X263328Y509630D02*
X261803Y511156D01*
X261803Y514206D01*
X263328Y515732D01*
X264853Y515732D01*
X266379Y514206D01*
X267904Y515732D01*
X269429Y515732D01*
X270955Y514206D01*
X270955Y511156D01*
X269429Y509630D01*
X267904Y509630D01*
X266379Y511156D01*
X264853Y509630D01*
X263328Y509630D01*
X266379Y511156D02*
X266379Y514206D01*
D16*
X452438Y479425D02*
X452438Y428625D01*
X433388Y428625D01*
X388938Y428625D01*
X388938Y479425D01*
X433388Y479425D01*
X452438Y479425D01*
X433388Y479425D02*
X433388Y428625D01*
D17*
X416524Y484061D02*
X410423Y493212D01*
X416524Y493212D02*
X410423Y484061D01*
X419778Y485586D02*
X421303Y484061D01*
X424354Y484061D01*
X425879Y485586D01*
X425879Y491687D01*
X424354Y493212D01*
X421303Y493212D01*
X419778Y491687D01*
X419778Y490162D01*
X421303Y488636D01*
X425879Y488636D01*
D12*
X348615Y428625D02*
X340995Y428625D01*
X344805Y432435D02*
X344805Y424815D01*
X333375Y441325D02*
X333383Y441948D01*
X333406Y442571D01*
X333444Y443194D01*
X333497Y443815D01*
X333566Y444434D01*
X333650Y445052D01*
X333749Y445667D01*
X333863Y446280D01*
X333992Y446890D01*
X334136Y447497D01*
X334295Y448100D01*
X334469Y448698D01*
X334657Y449293D01*
X334860Y449882D01*
X335077Y450466D01*
X335308Y451045D01*
X335554Y451618D01*
X335814Y452185D01*
X336087Y452745D01*
X336374Y453298D01*
X336675Y453845D01*
X336989Y454383D01*
X337316Y454914D01*
X337656Y455436D01*
X338008Y455951D01*
X338374Y456456D01*
X338751Y456952D01*
X339141Y457439D01*
X339542Y457916D01*
X339955Y458383D01*
X340379Y458839D01*
X340814Y459286D01*
X341261Y459721D01*
X341717Y460145D01*
X342184Y460558D01*
X342661Y460959D01*
X343148Y461349D01*
X343644Y461726D01*
X344149Y462092D01*
X344664Y462444D01*
X345186Y462784D01*
X345717Y463111D01*
X346255Y463425D01*
X346802Y463726D01*
X347355Y464013D01*
X347915Y464286D01*
X348482Y464546D01*
X349055Y464792D01*
X349634Y465023D01*
X350218Y465240D01*
X350807Y465443D01*
X351402Y465631D01*
X352000Y465805D01*
X352603Y465964D01*
X353210Y466108D01*
X353820Y466237D01*
X354433Y466351D01*
X355048Y466450D01*
X355666Y466534D01*
X356285Y466603D01*
X356906Y466656D01*
X357529Y466694D01*
X358152Y466717D01*
X358775Y466725D01*
X359398Y466717D01*
X360021Y466694D01*
X360644Y466656D01*
X361265Y466603D01*
X361884Y466534D01*
X362502Y466450D01*
X363117Y466351D01*
X363730Y466237D01*
X364340Y466108D01*
X364947Y465964D01*
X365550Y465805D01*
X366148Y465631D01*
X366743Y465443D01*
X367332Y465240D01*
X367916Y465023D01*
X368495Y464792D01*
X369068Y464546D01*
X369635Y464286D01*
X370195Y464013D01*
X370748Y463726D01*
X371295Y463425D01*
X371833Y463111D01*
X372364Y462784D01*
X372886Y462444D01*
X373401Y462092D01*
X373906Y461726D01*
X374402Y461349D01*
X374889Y460959D01*
X375366Y460558D01*
X375833Y460145D01*
X376289Y459721D01*
X376736Y459286D01*
X377171Y458839D01*
X377595Y458383D01*
X378008Y457916D01*
X378409Y457439D01*
X378799Y456952D01*
X379176Y456456D01*
X379542Y455951D01*
X379894Y455436D01*
X380234Y454914D01*
X380561Y454383D01*
X380875Y453845D01*
X381176Y453298D01*
X381463Y452745D01*
X381736Y452185D01*
X381996Y451618D01*
X382242Y451045D01*
X382473Y450466D01*
X382690Y449882D01*
X382893Y449293D01*
X383081Y448698D01*
X383255Y448100D01*
X383414Y447497D01*
X383558Y446890D01*
X383687Y446280D01*
X383801Y445667D01*
X383900Y445052D01*
X383984Y444434D01*
X384053Y443815D01*
X384106Y443194D01*
X384144Y442571D01*
X384167Y441948D01*
X384175Y441325D01*
X384167Y440702D01*
X384144Y440079D01*
X384106Y439456D01*
X384053Y438835D01*
X383984Y438216D01*
X383900Y437598D01*
X383801Y436983D01*
X383687Y436370D01*
X383558Y435760D01*
X383414Y435153D01*
X383255Y434550D01*
X383081Y433952D01*
X382893Y433357D01*
X382690Y432768D01*
X382473Y432184D01*
X382242Y431605D01*
X381996Y431032D01*
X381736Y430465D01*
X381463Y429905D01*
X381176Y429352D01*
X380875Y428805D01*
X380561Y428267D01*
X380234Y427736D01*
X379894Y427214D01*
X379542Y426699D01*
X379176Y426194D01*
X378799Y425698D01*
X378409Y425211D01*
X378008Y424734D01*
X377595Y424267D01*
X377171Y423811D01*
X376736Y423364D01*
X376289Y422929D01*
X375833Y422505D01*
X375366Y422092D01*
X374889Y421691D01*
X374402Y421301D01*
X373906Y420924D01*
X373401Y420558D01*
X372886Y420206D01*
X372364Y419866D01*
X371833Y419539D01*
X371295Y419225D01*
X370748Y418924D01*
X370195Y418637D01*
X369635Y418364D01*
X369068Y418104D01*
X368495Y417858D01*
X367916Y417627D01*
X367332Y417410D01*
X366743Y417207D01*
X366148Y417019D01*
X365550Y416845D01*
X364947Y416686D01*
X364340Y416542D01*
X363730Y416413D01*
X363117Y416299D01*
X362502Y416200D01*
X361884Y416116D01*
X361265Y416047D01*
X360644Y415994D01*
X360021Y415956D01*
X359398Y415933D01*
X358775Y415925D01*
X358152Y415933D01*
X357529Y415956D01*
X356906Y415994D01*
X356285Y416047D01*
X355666Y416116D01*
X355048Y416200D01*
X354433Y416299D01*
X353820Y416413D01*
X353210Y416542D01*
X352603Y416686D01*
X352000Y416845D01*
X351402Y417019D01*
X350807Y417207D01*
X350218Y417410D01*
X349634Y417627D01*
X349055Y417858D01*
X348482Y418104D01*
X347915Y418364D01*
X347355Y418637D01*
X346802Y418924D01*
X346255Y419225D01*
X345717Y419539D01*
X345186Y419866D01*
X344664Y420206D01*
X344149Y420558D01*
X343644Y420924D01*
X343148Y421301D01*
X342661Y421691D01*
X342184Y422092D01*
X341717Y422505D01*
X341261Y422929D01*
X340814Y423364D01*
X340379Y423811D01*
X339955Y424267D01*
X339542Y424734D01*
X339141Y425211D01*
X338751Y425698D01*
X338374Y426194D01*
X338008Y426699D01*
X337656Y427214D01*
X337316Y427736D01*
X336989Y428267D01*
X336675Y428805D01*
X336374Y429352D01*
X336087Y429905D01*
X335814Y430465D01*
X335554Y431032D01*
X335308Y431605D01*
X335077Y432184D01*
X334860Y432768D01*
X334657Y433357D01*
X334469Y433952D01*
X334295Y434550D01*
X334136Y435153D01*
X333992Y435760D01*
X333863Y436370D01*
X333749Y436983D01*
X333650Y437598D01*
X333566Y438216D01*
X333497Y438835D01*
X333444Y439456D01*
X333406Y440079D01*
X333383Y440702D01*
X333375Y441325D01*
D13*
X371087Y437221D02*
X379730Y437221D01*
X371087Y434340D02*
X371087Y440102D01*
X371087Y446342D02*
X379730Y446342D01*
X371087Y443461D02*
X371087Y449224D01*
D11*
X324818Y434328D02*
X323590Y433100D01*
X323590Y430642D01*
X324818Y429414D01*
X329733Y429414D01*
X330962Y430642D01*
X330962Y433100D01*
X329733Y434328D01*
X326047Y436898D02*
X323590Y439355D01*
X330962Y439355D01*
X330962Y436898D02*
X330962Y441813D01*
X323590Y444382D02*
X323590Y449297D01*
X323590Y444382D02*
X327276Y444382D01*
X326047Y446839D01*
X326047Y448068D01*
X327276Y449297D01*
X329733Y449297D01*
X330962Y448068D01*
X330962Y445611D01*
X329733Y444382D01*
M02*
