G04 EAGLE Gerber X2 export*
%TF.Part,Single*%
%TF.FileFunction,Soldermask,Bot,1*%
%TF.FilePolarity,Negative*%
%TF.GenerationSoftware,Autodesk,EAGLE,8.7.1*%
%TF.CreationDate,2019-02-08T14:13:12Z*%
G75*
%MOMM*%
%FSLAX34Y34*%
%LPD*%
%AMOC8*
5,1,8,0,0,1.08239X$1,22.5*%
G01*
%ADD10C,3.403200*%
%ADD11R,1.503200X1.703200*%
%ADD12P,1.759533X8X112.500000*%
%ADD13C,1.625600*%
%ADD14P,1.759533X8X292.500000*%
%ADD15R,1.703200X1.503200*%
%ADD16R,2.403200X0.803200*%
%ADD17R,0.762000X1.473200*%
%ADD18R,1.473200X0.762000*%
%ADD19P,2.034460X8X112.500000*%
%ADD20P,1.869504X8X22.500000*%
%ADD21P,2.034460X8X22.500000*%
%ADD22P,2.034460X8X202.500000*%
%ADD23C,1.711200*%
%ADD24C,0.959600*%


D10*
X22225Y23813D03*
X436563Y22225D03*
X23813Y519113D03*
X436563Y519113D03*
D11*
X347638Y368300D03*
X328638Y368300D03*
D12*
X187325Y258763D03*
D13*
X187325Y233363D03*
D14*
X187325Y290513D03*
D13*
X187325Y315913D03*
D12*
X117475Y258763D03*
D13*
X117475Y233363D03*
D14*
X117475Y290513D03*
D13*
X117475Y315913D03*
D14*
X327025Y107950D03*
D13*
X327025Y133350D03*
D11*
X90513Y82550D03*
X109513Y82550D03*
D15*
X279400Y411138D03*
X279400Y392138D03*
X134938Y454050D03*
X134938Y473050D03*
D14*
X274638Y95250D03*
D13*
X274638Y120650D03*
D11*
X303238Y230188D03*
X322238Y230188D03*
D16*
X172438Y431800D03*
X224438Y431800D03*
X172438Y419100D03*
X172438Y444500D03*
X172438Y457200D03*
X224438Y419100D03*
X224438Y444500D03*
X224438Y457200D03*
X172438Y482600D03*
X224438Y482600D03*
X172438Y469900D03*
X172438Y495300D03*
X224438Y469900D03*
X224438Y495300D03*
D17*
X347088Y258699D03*
X339088Y258699D03*
X331088Y258699D03*
X323088Y258699D03*
X315088Y258699D03*
X307088Y258699D03*
X299088Y258699D03*
X291088Y258699D03*
D18*
X276162Y273625D03*
X276162Y281625D03*
X276162Y289625D03*
X276162Y297625D03*
X276162Y305625D03*
X276162Y313625D03*
X276162Y321625D03*
X276162Y329625D03*
D17*
X291088Y344551D03*
X299088Y344551D03*
X307088Y344551D03*
X315088Y344551D03*
X323088Y344551D03*
X331088Y344551D03*
X339088Y344551D03*
X347088Y344551D03*
D18*
X362014Y329625D03*
X362014Y321625D03*
X362014Y313625D03*
X362014Y305625D03*
X362014Y297625D03*
X362014Y289625D03*
X362014Y281625D03*
X362014Y273625D03*
D19*
X407988Y200025D03*
X433388Y200025D03*
D20*
X433388Y317500D03*
X374650Y198438D03*
X433388Y266700D03*
X407988Y254000D03*
X433388Y241300D03*
X407988Y228600D03*
X407988Y355600D03*
X433388Y342900D03*
X407988Y330200D03*
D11*
X106338Y393700D03*
X87338Y393700D03*
X276200Y430213D03*
X257200Y430213D03*
D15*
X211138Y257150D03*
X211138Y238150D03*
X211138Y300013D03*
X211138Y281013D03*
X153988Y204763D03*
X153988Y185763D03*
X125413Y204763D03*
X125413Y185763D03*
X182563Y204763D03*
X182563Y185763D03*
D21*
X138113Y107950D03*
X87313Y107950D03*
X112713Y133350D03*
D11*
X161900Y244475D03*
X142900Y244475D03*
X106338Y368300D03*
X87338Y368300D03*
X161900Y304800D03*
X142900Y304800D03*
D15*
X65088Y88875D03*
X65088Y69875D03*
D11*
X271438Y476250D03*
X252438Y476250D03*
X87338Y450850D03*
X106338Y450850D03*
X385738Y368300D03*
X366738Y368300D03*
D15*
X371475Y387375D03*
X371475Y406375D03*
X147638Y396900D03*
X147638Y415900D03*
D11*
X296888Y450850D03*
X315888Y450850D03*
D22*
X173038Y374650D03*
X223838Y374650D03*
X198438Y349250D03*
D11*
X315888Y430213D03*
X296888Y430213D03*
D12*
X420688Y82550D03*
X395288Y82550D03*
X420688Y107950D03*
X395288Y107950D03*
X420688Y133350D03*
X395288Y133350D03*
D23*
X368300Y495698D02*
X368300Y510778D01*
X342900Y510778D02*
X342900Y495698D01*
X413148Y387350D02*
X428228Y387350D01*
X428228Y412750D02*
X413148Y412750D01*
X47228Y393700D02*
X32148Y393700D01*
X32148Y368300D02*
X47228Y368300D01*
X47228Y133350D02*
X32148Y133350D01*
X32148Y158750D02*
X47228Y158750D01*
X47228Y266700D02*
X32148Y266700D01*
X32148Y241300D02*
X47228Y241300D01*
X47228Y215900D02*
X32148Y215900D01*
X32148Y190500D02*
X47228Y190500D01*
X344488Y45640D02*
X344488Y30560D01*
X319088Y30560D02*
X319088Y45640D01*
X293688Y45640D02*
X293688Y30560D01*
X268288Y30560D02*
X268288Y45640D01*
X242888Y45640D02*
X242888Y30560D01*
X217488Y30560D02*
X217488Y45640D01*
X192088Y45640D02*
X192088Y30560D01*
X166688Y30560D02*
X166688Y45640D01*
X141288Y45640D02*
X141288Y30560D01*
X115888Y30560D02*
X115888Y45640D01*
X90488Y45640D02*
X90488Y30560D01*
X65088Y30560D02*
X65088Y45640D01*
X47228Y450850D02*
X32148Y450850D01*
X32148Y476250D02*
X47228Y476250D01*
X312738Y495698D02*
X312738Y510778D01*
X287338Y510778D02*
X287338Y495698D01*
X413148Y466725D02*
X428228Y466725D01*
X428228Y441325D02*
X413148Y441325D01*
D12*
X358775Y454025D03*
D13*
X358775Y428625D03*
D15*
X385763Y447700D03*
X385763Y466700D03*
D24*
X142875Y274320D03*
X171450Y512763D03*
X146050Y346075D03*
X217488Y512763D03*
X269875Y368300D03*
X409258Y295275D03*
X315913Y390525D03*
X274638Y146050D03*
X347663Y177800D03*
X203196Y177804D03*
X141288Y161925D03*
X296863Y374650D03*
X346075Y82550D03*
X233363Y260350D03*
X236538Y204788D03*
X285750Y193675D03*
X244475Y357188D03*
X298450Y174625D03*
X212725Y328613D03*
X206058Y210820D03*
X137478Y204470D03*
X100013Y190500D03*
X206375Y195263D03*
X366713Y231775D03*
X254000Y222250D03*
X241618Y292100D03*
X334963Y204788D03*
X247650Y327025D03*
X152400Y468313D03*
X120650Y460375D03*
X265113Y398463D03*
X293688Y407670D03*
X288608Y433070D03*
X327338Y452759D03*
X363538Y346075D03*
X249238Y401638D03*
X61913Y107950D03*
X93599Y419037D03*
X354013Y147638D03*
M02*
