G04 EAGLE Gerber X2 export*
%TF.Part,Single*%
%TF.FileFunction,Paste,Bot*%
%TF.FilePolarity,Positive*%
%TF.GenerationSoftware,Autodesk,EAGLE,8.7.1*%
%TF.CreationDate,2019-02-08T14:13:12Z*%
G75*
%MOMM*%
%FSLAX34Y34*%
%LPD*%
%AMOC8*
5,1,8,0,0,1.08239X$1,22.5*%
G01*
%ADD10R,1.300000X1.500000*%
%ADD11R,1.500000X1.300000*%
%ADD12R,2.200000X0.600000*%
%ADD13R,0.558800X1.270000*%
%ADD14R,1.270000X0.558800*%


D10*
X347638Y368300D03*
X328638Y368300D03*
X90513Y82550D03*
X109513Y82550D03*
D11*
X279400Y411138D03*
X279400Y392138D03*
X134938Y454050D03*
X134938Y473050D03*
D10*
X303238Y230188D03*
X322238Y230188D03*
D12*
X172438Y431800D03*
X224438Y431800D03*
X172438Y419100D03*
X172438Y444500D03*
X172438Y457200D03*
X224438Y419100D03*
X224438Y444500D03*
X224438Y457200D03*
X172438Y482600D03*
X224438Y482600D03*
X172438Y469900D03*
X172438Y495300D03*
X224438Y469900D03*
X224438Y495300D03*
D13*
X347088Y258699D03*
X339088Y258699D03*
X331088Y258699D03*
X323088Y258699D03*
X315088Y258699D03*
X307088Y258699D03*
X299088Y258699D03*
X291088Y258699D03*
D14*
X276162Y273625D03*
X276162Y281625D03*
X276162Y289625D03*
X276162Y297625D03*
X276162Y305625D03*
X276162Y313625D03*
X276162Y321625D03*
X276162Y329625D03*
D13*
X291088Y344551D03*
X299088Y344551D03*
X307088Y344551D03*
X315088Y344551D03*
X323088Y344551D03*
X331088Y344551D03*
X339088Y344551D03*
X347088Y344551D03*
D14*
X362014Y329625D03*
X362014Y321625D03*
X362014Y313625D03*
X362014Y305625D03*
X362014Y297625D03*
X362014Y289625D03*
X362014Y281625D03*
X362014Y273625D03*
D10*
X106338Y393700D03*
X87338Y393700D03*
X276200Y430213D03*
X257200Y430213D03*
D11*
X211138Y257150D03*
X211138Y238150D03*
X211138Y300013D03*
X211138Y281013D03*
X153988Y204763D03*
X153988Y185763D03*
X125413Y204763D03*
X125413Y185763D03*
X182563Y204763D03*
X182563Y185763D03*
D10*
X161900Y244475D03*
X142900Y244475D03*
X106338Y368300D03*
X87338Y368300D03*
X161900Y304800D03*
X142900Y304800D03*
D11*
X65088Y88875D03*
X65088Y69875D03*
D10*
X271438Y476250D03*
X252438Y476250D03*
X87338Y450850D03*
X106338Y450850D03*
X385738Y368300D03*
X366738Y368300D03*
D11*
X371475Y387375D03*
X371475Y406375D03*
X147638Y396900D03*
X147638Y415900D03*
D10*
X296888Y450850D03*
X315888Y450850D03*
X315888Y430213D03*
X296888Y430213D03*
D11*
X385763Y447700D03*
X385763Y466700D03*
M02*
